M48
METRIC,LZ,000.000
;FILE_FORMAT=3:3
;TYPE=PLATED
;Layer: PTH_Through
;EasyEDA v6.5.15, 2022-09-22 11:34:21
;4b7f6f8434e74b0d931dc7ec5f8e676b,5f190de28158457892684f41c71a4f21,10
;Gerber Generator version 0.2
;Holesize 1 = 0.305 mm
T01C0.305
;Holesize 2 = 0.800 mm
T02C0.800
;Holesize 3 = 1.200 mm
T03C1.200
%
G05
G90
T01
X010865Y-121031
X011665Y-121031
X012465Y-121031
X013265Y-121031
X055188Y-121031
X055988Y-121031
X056788Y-121031
X057588Y-121031
X096520Y-082931
X092837Y-079121
X110617Y-082931
X107950Y-082931
X106553Y-084201
X106553Y-079121
X098958Y-089281
X070866Y-089281
X115570Y-086252
X083820Y-086252
X078740Y-082931
X082677Y-082931
X068707Y-082931
X064770Y-079121
X042951Y-089281
X053159Y-086252
X050800Y-082804
X054610Y-082804
X040640Y-082804
X036957Y-078994
X015138Y-089281
X012700Y-082931
X009017Y-078994
X022860Y-082931
X026670Y-082931
X028067Y-086252
T02
X106052Y-145151G85X106052Y-144551
X106052Y-141051G85X106052Y-140251
X097402Y-141051G85X097402Y-140251
X097402Y-145151G85X097402Y-144551
T03
X026797Y-072771
X026797Y-075311
X024257Y-072771
X024257Y-075311
X021717Y-072771
X021717Y-075311
X019177Y-072771
X019177Y-075311
X016637Y-072771
X016637Y-075311
X014097Y-072771
X014097Y-075311
X011557Y-072771
X011557Y-075311
X009017Y-072771
X009017Y-075311
X026670Y-093091
X026670Y-095631
X024130Y-093091
X024130Y-095631
X021590Y-093091
X021590Y-095631
X019050Y-093091
X019050Y-095631
X016510Y-093091
X016510Y-095631
X013970Y-093091
X013970Y-095631
X011430Y-093091
X011430Y-095631
X008890Y-093091
X008890Y-095631
X054737Y-072771
X054737Y-075311
X052197Y-072771
X052197Y-075311
X049657Y-072771
X049657Y-075311
X047117Y-072771
X047117Y-075311
X044577Y-072771
X044577Y-075311
X042037Y-072771
X042037Y-075311
X039497Y-072771
X039497Y-075311
X036957Y-072771
X036957Y-075311
X054610Y-093091
X054610Y-095631
X052070Y-093091
X052070Y-095631
X049530Y-093091
X049530Y-095631
X046990Y-093091
X046990Y-095631
X044450Y-093091
X044450Y-095631
X041910Y-093091
X041910Y-095631
X039370Y-093091
X039370Y-095631
X036830Y-093091
X036830Y-095631
X082550Y-072771
X082550Y-075311
X080010Y-072771
X080010Y-075311
X077470Y-072771
X077470Y-075311
X074930Y-072771
X074930Y-075311
X072390Y-072771
X072390Y-075311
X069850Y-072771
X069850Y-075311
X067310Y-072771
X067310Y-075311
X064770Y-072771
X064770Y-075311
X082677Y-093091
X082677Y-095631
X080137Y-093091
X080137Y-095631
X077597Y-093091
X077597Y-095631
X075057Y-093091
X075057Y-095631
X072517Y-093091
X072517Y-095631
X069977Y-093091
X069977Y-095631
X067437Y-093091
X067437Y-095631
X064897Y-093091
X064897Y-095631
X110617Y-072771
X110617Y-075311
X108077Y-072771
X108077Y-075311
X105537Y-072771
X105537Y-075311
X102997Y-072771
X102997Y-075311
X100457Y-072771
X100457Y-075311
X097917Y-072771
X097917Y-075311
X095377Y-072771
X095377Y-075311
X092837Y-072771
X092837Y-075311
X110617Y-093091
X110617Y-095631
X108077Y-093091
X108077Y-095631
X105537Y-093091
X105537Y-095631
X102997Y-093091
X102997Y-095631
X100457Y-093091
X100457Y-095631
X097917Y-093091
X097917Y-095631
X095377Y-093091
X095377Y-095631
X092837Y-093091
X092837Y-095631
X079756Y-138176
X079756Y-140716
X077216Y-138176
X077216Y-140716
X074676Y-138176
X074676Y-140716
X072136Y-138176
X072136Y-140716
X069596Y-138176
X069596Y-140716
X067056Y-138176
X067056Y-140716
X064516Y-138176
X064516Y-140716
X061976Y-138176
X061976Y-140716
X061849Y-125476
X061849Y-122936
X064389Y-125476
X064389Y-122936
X066929Y-125476
X066929Y-122936
X069469Y-125476
X069469Y-122936
X072009Y-125476
X072009Y-122936
X074549Y-125476
X074549Y-122936
X077089Y-125476
X077089Y-122936
X079629Y-125476
X079629Y-122936
X035350Y-122936
X035350Y-125476
X032810Y-122936
X032810Y-125476
X030270Y-122936
X030270Y-125476
X027730Y-122936
X027730Y-125476
X025190Y-122936
X025190Y-125476
X022650Y-122936
X022650Y-125476
X020110Y-122936
X020110Y-125476
X017570Y-122936
X017570Y-125476
M30
