G04 Layer: BottomSolderMaskLayer*
G04 EasyEDA v6.5.15, 2022-09-22 11:34:21*
G04 4b7f6f8434e74b0d931dc7ec5f8e676b,5f190de28158457892684f41c71a4f21,10*
G04 Gerber Generator version 0.2*
G04 Scale: 100 percent, Rotated: No, Reflected: No *
G04 Dimensions in millimeters *
G04 leading zeros omitted , absolute positions ,4 integer and 5 decimal *
%FSLAX45Y45*%
%MOMM*%

%AMMACRO1*1,1,$1,$2,$3*1,1,$1,$4,$5*1,1,$1,0-$2,0-$3*1,1,$1,0-$4,0-$5*20,1,$1,$2,$3,$4,$5,0*20,1,$1,$4,$5,0-$2,0-$3,0*20,1,$1,0-$2,0-$3,0-$4,0-$5,0*20,1,$1,0-$4,0-$5,$2,$3,0*4,1,4,$2,$3,$4,$5,0-$2,0-$3,0-$4,0-$5,$2,$3,0*%
%ADD10C,1.9016*%
%ADD11MACRO1,0.1016X-0.9X0.9X0.9X0.9*%
%ADD12MACRO1,0.1016X0.9X-0.9X-0.9X-0.9*%
%ADD13O,1.1999976X1.7999964*%
%ADD14O,1.1999976X1.9999959999999999*%

%LPD*%
D10*
G01*
X2679700Y-7277100D03*
G01*
X2679700Y-7531100D03*
G01*
X2425700Y-7277100D03*
G01*
X2425700Y-7531100D03*
G01*
X2171700Y-7277100D03*
G01*
X2171700Y-7531100D03*
G01*
X1917700Y-7277100D03*
G01*
X1917700Y-7531100D03*
G01*
X1663700Y-7277100D03*
G01*
X1663700Y-7531100D03*
G01*
X1409700Y-7277100D03*
G01*
X1409700Y-7531100D03*
G01*
X1155700Y-7277100D03*
G01*
X1155700Y-7531100D03*
G01*
X901700Y-7277100D03*
D11*
G01*
X901700Y-7531100D03*
D10*
G01*
X2667000Y-9309100D03*
G01*
X2667000Y-9563100D03*
G01*
X2413000Y-9309100D03*
G01*
X2413000Y-9563100D03*
G01*
X2159000Y-9309100D03*
G01*
X2159000Y-9563100D03*
G01*
X1905000Y-9309100D03*
G01*
X1905000Y-9563100D03*
G01*
X1651000Y-9309100D03*
G01*
X1651000Y-9563100D03*
G01*
X1397000Y-9309100D03*
G01*
X1397000Y-9563100D03*
G01*
X1143000Y-9309100D03*
G01*
X1143000Y-9563100D03*
G01*
X889000Y-9309100D03*
D11*
G01*
X889000Y-9563100D03*
D10*
G01*
X5473700Y-7277100D03*
G01*
X5473700Y-7531100D03*
G01*
X5219700Y-7277100D03*
G01*
X5219700Y-7531100D03*
G01*
X4965700Y-7277100D03*
G01*
X4965700Y-7531100D03*
G01*
X4711700Y-7277100D03*
G01*
X4711700Y-7531100D03*
G01*
X4457700Y-7277100D03*
G01*
X4457700Y-7531100D03*
G01*
X4203700Y-7277100D03*
G01*
X4203700Y-7531100D03*
G01*
X3949700Y-7277100D03*
G01*
X3949700Y-7531100D03*
G01*
X3695700Y-7277100D03*
D11*
G01*
X3695700Y-7531100D03*
D10*
G01*
X5461000Y-9309100D03*
G01*
X5461000Y-9563100D03*
G01*
X5207000Y-9309100D03*
G01*
X5207000Y-9563100D03*
G01*
X4953000Y-9309100D03*
G01*
X4953000Y-9563100D03*
G01*
X4699000Y-9309100D03*
G01*
X4699000Y-9563100D03*
G01*
X4445000Y-9309100D03*
G01*
X4445000Y-9563100D03*
G01*
X4191000Y-9309100D03*
G01*
X4191000Y-9563100D03*
G01*
X3937000Y-9309100D03*
G01*
X3937000Y-9563100D03*
G01*
X3683000Y-9309100D03*
D11*
G01*
X3683000Y-9563100D03*
D10*
G01*
X8255000Y-7277100D03*
G01*
X8255000Y-7531100D03*
G01*
X8001000Y-7277100D03*
G01*
X8001000Y-7531100D03*
G01*
X7747000Y-7277100D03*
G01*
X7747000Y-7531100D03*
G01*
X7493000Y-7277100D03*
G01*
X7493000Y-7531100D03*
G01*
X7239000Y-7277100D03*
G01*
X7239000Y-7531100D03*
G01*
X6985000Y-7277100D03*
G01*
X6985000Y-7531100D03*
G01*
X6731000Y-7277100D03*
G01*
X6731000Y-7531100D03*
G01*
X6477000Y-7277100D03*
D11*
G01*
X6477000Y-7531100D03*
D10*
G01*
X8267700Y-9309100D03*
G01*
X8267700Y-9563100D03*
G01*
X8013700Y-9309100D03*
G01*
X8013700Y-9563100D03*
G01*
X7759700Y-9309100D03*
G01*
X7759700Y-9563100D03*
G01*
X7505700Y-9309100D03*
G01*
X7505700Y-9563100D03*
G01*
X7251700Y-9309100D03*
G01*
X7251700Y-9563100D03*
G01*
X6997700Y-9309100D03*
G01*
X6997700Y-9563100D03*
G01*
X6743700Y-9309100D03*
G01*
X6743700Y-9563100D03*
G01*
X6489700Y-9309100D03*
D11*
G01*
X6489700Y-9563100D03*
D10*
G01*
X11061700Y-7277100D03*
G01*
X11061700Y-7531100D03*
G01*
X10807700Y-7277100D03*
G01*
X10807700Y-7531100D03*
G01*
X10553700Y-7277100D03*
G01*
X10553700Y-7531100D03*
G01*
X10299700Y-7277100D03*
G01*
X10299700Y-7531100D03*
G01*
X10045700Y-7277100D03*
G01*
X10045700Y-7531100D03*
G01*
X9791700Y-7277100D03*
G01*
X9791700Y-7531100D03*
G01*
X9537700Y-7277100D03*
G01*
X9537700Y-7531100D03*
G01*
X9283700Y-7277100D03*
D11*
G01*
X9283700Y-7531100D03*
D10*
G01*
X11061700Y-9309100D03*
G01*
X11061700Y-9563100D03*
G01*
X10807700Y-9309100D03*
G01*
X10807700Y-9563100D03*
G01*
X10553700Y-9309100D03*
G01*
X10553700Y-9563100D03*
G01*
X10299700Y-9309100D03*
G01*
X10299700Y-9563100D03*
G01*
X10045700Y-9309100D03*
G01*
X10045700Y-9563100D03*
G01*
X9791700Y-9309100D03*
G01*
X9791700Y-9563100D03*
G01*
X9537700Y-9309100D03*
G01*
X9537700Y-9563100D03*
G01*
X9283700Y-9309100D03*
D11*
G01*
X9283700Y-9563100D03*
D10*
G01*
X7975600Y-13817600D03*
G01*
X7975600Y-14071600D03*
G01*
X7721600Y-13817600D03*
G01*
X7721600Y-14071600D03*
G01*
X7467600Y-13817600D03*
G01*
X7467600Y-14071600D03*
G01*
X7213600Y-13817600D03*
G01*
X7213600Y-14071600D03*
G01*
X6959600Y-13817600D03*
G01*
X6959600Y-14071600D03*
G01*
X6705600Y-13817600D03*
G01*
X6705600Y-14071600D03*
G01*
X6451600Y-13817600D03*
G01*
X6451600Y-14071600D03*
G01*
X6197600Y-13817600D03*
D11*
G01*
X6197600Y-14071600D03*
D10*
G01*
X6184900Y-12547600D03*
G01*
X6184900Y-12293600D03*
G01*
X6438900Y-12547600D03*
G01*
X6438900Y-12293600D03*
G01*
X6692900Y-12547600D03*
G01*
X6692900Y-12293600D03*
G01*
X6946900Y-12547600D03*
G01*
X6946900Y-12293600D03*
G01*
X7200900Y-12547600D03*
G01*
X7200900Y-12293600D03*
G01*
X7454900Y-12547600D03*
G01*
X7454900Y-12293600D03*
G01*
X7708900Y-12547600D03*
G01*
X7708900Y-12293600D03*
G01*
X7962900Y-12547600D03*
D12*
G01*
X7962900Y-12293600D03*
D10*
G01*
X3535045Y-12293600D03*
G01*
X3535045Y-12547600D03*
G01*
X3281045Y-12293600D03*
G01*
X3281045Y-12547600D03*
G01*
X3027045Y-12293600D03*
G01*
X3027045Y-12547600D03*
G01*
X2773045Y-12293600D03*
G01*
X2773045Y-12547600D03*
G01*
X2519045Y-12293600D03*
G01*
X2519045Y-12547600D03*
G01*
X2265045Y-12293600D03*
G01*
X2265045Y-12547600D03*
G01*
X2011045Y-12293600D03*
G01*
X2011045Y-12547600D03*
G01*
X1757045Y-12293600D03*
D11*
G01*
X1757034Y-12547600D03*
D13*
G01*
X10605211Y-14485112D03*
D14*
G01*
X10605211Y-14065122D03*
G01*
X9740188Y-14065122D03*
D13*
G01*
X9740188Y-14485112D03*
M02*
