G04 Layer: TopPasteMaskLayer*
G04 EasyEDA v6.5.15, 2022-09-22 11:34:21*
G04 4b7f6f8434e74b0d931dc7ec5f8e676b,5f190de28158457892684f41c71a4f21,10*
G04 Gerber Generator version 0.2*
G04 Scale: 100 percent, Rotated: No, Reflected: No *
G04 Dimensions in millimeters *
G04 leading zeros omitted , absolute positions ,4 integer and 5 decimal *
%FSLAX45Y45*%
%MOMM*%

%AMMACRO1*21,1,$1,$2,0,0,$3*%
%ADD10R,0.8000X0.8000*%
%ADD11R,0.6500X0.8000*%
%ADD12R,0.5000X0.8000*%
%ADD13MACRO1,0.505X0.3X90.0000*%
%ADD14MACRO1,0.505X0.3X-90.0000*%
%ADD15R,0.3000X0.7000*%
%ADD16R,1.8000X1.1000*%
%ADD17O,2.0379944X0.5739892*%
%ADD18O,0.0123X0.5739892*%

%LPD*%
G36*
X10280396Y-13286689D02*
G01*
X10270388Y-13296696D01*
X10270388Y-13333730D01*
X10280396Y-13343737D01*
X10310876Y-13343737D01*
X10320883Y-13353745D01*
X10320883Y-13392454D01*
X10310876Y-13402462D01*
X10280396Y-13402462D01*
X10270388Y-13412469D01*
X10270388Y-13449503D01*
X10280396Y-13459510D01*
X10408920Y-13459510D01*
X10418876Y-13449503D01*
X10418876Y-13296696D01*
X10408920Y-13286689D01*
G37*
G36*
X9961880Y-13286689D02*
G01*
X9951923Y-13296696D01*
X9951923Y-13449503D01*
X9961880Y-13459510D01*
X10090404Y-13459510D01*
X10100411Y-13449503D01*
X10100411Y-13412469D01*
X10090404Y-13402462D01*
X10059924Y-13402462D01*
X10049916Y-13392454D01*
X10049916Y-13353745D01*
X10059924Y-13343737D01*
X10090404Y-13343737D01*
X10100411Y-13333730D01*
X10100411Y-13296696D01*
X10090404Y-13286689D01*
G37*
G36*
X10112400Y-12888417D02*
G01*
X10107422Y-12893395D01*
X10107422Y-12938404D01*
X10112400Y-12943382D01*
X10160406Y-12943382D01*
X10167416Y-12938404D01*
X10167416Y-12893395D01*
X10160406Y-12888417D01*
G37*
G36*
X10210393Y-12888417D02*
G01*
X10203383Y-12893395D01*
X10203383Y-12938404D01*
X10210393Y-12943382D01*
X10258399Y-12943382D01*
X10263378Y-12938404D01*
X10263378Y-12893395D01*
X10258399Y-12888417D01*
G37*
G36*
X11228222Y-13391591D02*
G01*
X11223193Y-13396620D01*
X11223193Y-13419378D01*
X11260175Y-13419378D01*
X11260175Y-13452398D01*
X11223193Y-13452398D01*
X11223193Y-13476579D01*
X11228222Y-13481608D01*
X11308181Y-13481608D01*
X11313210Y-13476579D01*
X11313210Y-13396620D01*
X11308181Y-13391591D01*
G37*
G36*
X11069218Y-13391591D02*
G01*
X11064189Y-13396620D01*
X11064189Y-13476579D01*
X11069218Y-13481608D01*
X11148212Y-13481608D01*
X11153190Y-13476579D01*
X11153190Y-13452398D01*
X11115192Y-13452398D01*
X11115192Y-13419378D01*
X11153190Y-13419378D01*
X11153190Y-13396620D01*
X11148212Y-13391591D01*
G37*
G36*
X10231628Y-12453620D02*
G01*
X10204196Y-12482982D01*
X10204196Y-12510617D01*
X10231628Y-12539980D01*
X10281970Y-12539980D01*
X10288371Y-12533579D01*
X10288371Y-12460020D01*
X10281970Y-12453620D01*
G37*
G36*
X10063429Y-12453620D02*
G01*
X10057028Y-12460020D01*
X10057028Y-12533579D01*
X10063429Y-12539980D01*
X10113772Y-12539980D01*
X10141204Y-12510617D01*
X10141204Y-12482982D01*
X10113772Y-12453620D01*
G37*
G36*
X9739426Y-13965224D02*
G01*
X9732365Y-13965682D01*
X9728860Y-13966190D01*
X9722002Y-13967917D01*
X9718649Y-13969034D01*
X9712198Y-13971930D01*
X9706152Y-13975638D01*
X9700564Y-13979956D01*
X9695586Y-13984986D01*
X9691217Y-13990574D01*
X9687560Y-13996619D01*
X9684664Y-14003070D01*
X9682530Y-14009827D01*
X9681260Y-14016786D01*
X9680854Y-14023848D01*
X9680854Y-14110766D01*
X9681718Y-14117675D01*
X9682429Y-14121079D01*
X9684512Y-14127734D01*
X9687407Y-14134084D01*
X9690963Y-14140027D01*
X9695281Y-14145513D01*
X9700209Y-14150441D01*
X9705695Y-14154759D01*
X9711690Y-14158366D01*
X9718040Y-14161211D01*
X9721291Y-14162379D01*
X9728098Y-14164056D01*
X9735007Y-14164868D01*
X9741052Y-14164970D01*
X9748266Y-14164563D01*
X9755327Y-14163243D01*
X9762185Y-14161109D01*
X9768738Y-14158163D01*
X9774885Y-14154454D01*
X9780524Y-14150035D01*
X9785604Y-14144955D01*
X9790074Y-14139265D01*
X9793782Y-14133118D01*
X9796729Y-14126565D01*
X9798862Y-14119707D01*
X9800183Y-14112646D01*
X9800590Y-14105483D01*
X9800590Y-14019428D01*
X9799726Y-14012519D01*
X9799015Y-14009116D01*
X9796932Y-14002461D01*
X9794087Y-13996111D01*
X9790480Y-13990167D01*
X9786162Y-13984681D01*
X9781235Y-13979753D01*
X9775748Y-13975435D01*
X9769805Y-13971828D01*
X9763455Y-13968984D01*
X9756800Y-13966901D01*
X9749942Y-13965682D01*
X9746488Y-13965326D01*
G37*
G36*
X10603433Y-13965224D02*
G01*
X10596372Y-13965682D01*
X10592866Y-13966190D01*
X10586008Y-13967917D01*
X10582656Y-13969034D01*
X10576204Y-13971930D01*
X10570159Y-13975638D01*
X10564571Y-13979956D01*
X10559592Y-13984986D01*
X10555224Y-13990574D01*
X10551566Y-13996619D01*
X10548670Y-14003070D01*
X10546537Y-14009827D01*
X10545267Y-14016786D01*
X10544860Y-14023848D01*
X10544860Y-14110766D01*
X10545724Y-14117675D01*
X10546435Y-14121079D01*
X10548518Y-14127734D01*
X10551414Y-14134084D01*
X10554970Y-14140027D01*
X10559288Y-14145513D01*
X10564215Y-14150441D01*
X10569702Y-14154759D01*
X10575696Y-14158366D01*
X10582046Y-14161211D01*
X10585297Y-14162379D01*
X10592104Y-14164056D01*
X10599013Y-14164868D01*
X10605109Y-14164970D01*
X10612272Y-14164563D01*
X10619333Y-14163243D01*
X10626191Y-14161109D01*
X10632744Y-14158163D01*
X10638891Y-14154454D01*
X10644530Y-14150035D01*
X10649610Y-14144955D01*
X10654080Y-14139265D01*
X10657789Y-14133118D01*
X10660735Y-14126565D01*
X10662869Y-14119707D01*
X10664190Y-14112646D01*
X10664596Y-14105483D01*
X10664596Y-14019428D01*
X10663732Y-14012519D01*
X10663021Y-14009116D01*
X10660938Y-14002461D01*
X10658094Y-13996111D01*
X10654487Y-13990167D01*
X10650169Y-13984681D01*
X10645241Y-13979753D01*
X10639755Y-13975435D01*
X10633811Y-13971828D01*
X10627461Y-13968984D01*
X10620806Y-13966901D01*
X10613948Y-13965682D01*
X10610494Y-13965326D01*
G37*
G36*
X9739731Y-14393367D02*
G01*
X9732670Y-14393773D01*
X9725660Y-14395043D01*
X9718852Y-14397177D01*
X9712350Y-14400072D01*
X9706305Y-14403781D01*
X9700666Y-14408150D01*
X9695637Y-14413179D01*
X9691268Y-14418767D01*
X9687610Y-14424863D01*
X9684664Y-14431365D01*
X9682530Y-14438172D01*
X9681260Y-14445132D01*
X9680854Y-14452244D01*
X9681057Y-14517268D01*
X9681514Y-14524278D01*
X9682784Y-14531136D01*
X9684969Y-14537740D01*
X9687915Y-14544090D01*
X9691674Y-14549983D01*
X9696145Y-14555368D01*
X9701225Y-14560143D01*
X9706864Y-14564258D01*
X9713010Y-14567611D01*
X9719462Y-14570201D01*
X9726269Y-14571929D01*
X9733178Y-14572792D01*
X9741408Y-14572894D01*
X9748520Y-14572488D01*
X9755581Y-14571167D01*
X9762388Y-14569033D01*
X9768890Y-14566138D01*
X9775037Y-14562429D01*
X9780676Y-14558010D01*
X9785705Y-14552930D01*
X9790125Y-14547342D01*
X9793833Y-14541195D01*
X9796780Y-14534692D01*
X9797948Y-14531289D01*
X9799624Y-14524380D01*
X9800488Y-14517268D01*
X9800742Y-14462455D01*
X9800640Y-14447367D01*
X9799828Y-14440509D01*
X9798151Y-14433753D01*
X9797034Y-14430451D01*
X9794138Y-14424151D01*
X9790582Y-14418208D01*
X9786264Y-14412722D01*
X9781387Y-14407794D01*
X9775901Y-14403527D01*
X9769957Y-14399920D01*
X9763607Y-14397075D01*
X9757003Y-14394992D01*
X9750145Y-14393773D01*
X9743236Y-14393367D01*
G37*
G36*
X10603738Y-14393367D02*
G01*
X10596676Y-14393773D01*
X10589666Y-14395043D01*
X10582859Y-14397177D01*
X10576356Y-14400072D01*
X10570311Y-14403781D01*
X10564672Y-14408150D01*
X10559643Y-14413179D01*
X10555274Y-14418767D01*
X10551617Y-14424863D01*
X10548670Y-14431365D01*
X10546537Y-14438172D01*
X10545267Y-14445132D01*
X10544860Y-14452244D01*
X10545064Y-14517268D01*
X10545521Y-14524278D01*
X10546791Y-14531136D01*
X10548975Y-14537740D01*
X10551922Y-14544090D01*
X10555681Y-14549983D01*
X10560151Y-14555368D01*
X10565231Y-14560143D01*
X10570870Y-14564258D01*
X10577017Y-14567611D01*
X10583468Y-14570201D01*
X10590276Y-14571929D01*
X10597184Y-14572792D01*
X10605414Y-14572894D01*
X10612526Y-14572488D01*
X10619587Y-14571167D01*
X10626394Y-14569033D01*
X10632897Y-14566138D01*
X10639044Y-14562429D01*
X10644682Y-14558010D01*
X10649712Y-14552930D01*
X10654131Y-14547342D01*
X10657840Y-14541195D01*
X10660786Y-14534692D01*
X10661954Y-14531289D01*
X10663631Y-14524380D01*
X10664494Y-14517268D01*
X10664748Y-14462455D01*
X10664647Y-14447367D01*
X10663834Y-14440509D01*
X10662158Y-14433753D01*
X10661040Y-14430451D01*
X10658144Y-14424151D01*
X10654588Y-14418208D01*
X10650270Y-14412722D01*
X10645394Y-14407794D01*
X10639907Y-14403527D01*
X10633964Y-14399920D01*
X10627614Y-14397075D01*
X10621010Y-14394992D01*
X10614152Y-14393773D01*
X10607243Y-14393367D01*
G37*
G36*
X10332720Y-13923314D02*
G01*
X10332720Y-14053210D01*
X10362692Y-14053210D01*
X10362692Y-13923314D01*
G37*
G36*
X10282682Y-13923314D02*
G01*
X10282682Y-14053210D01*
X10312654Y-14053210D01*
X10312654Y-13923314D01*
G37*
G36*
X10232694Y-13923314D02*
G01*
X10232694Y-14053210D01*
X10262717Y-14053210D01*
X10262717Y-13923314D01*
G37*
G36*
X10182707Y-13923314D02*
G01*
X10182707Y-14053210D01*
X10212679Y-14053210D01*
X10212679Y-13923314D01*
G37*
G36*
X10132720Y-13923314D02*
G01*
X10132720Y-14053210D01*
X10162692Y-14053210D01*
X10162692Y-13923314D01*
G37*
G36*
X10082682Y-13923314D02*
G01*
X10082682Y-14053210D01*
X10112705Y-14053210D01*
X10112705Y-13923314D01*
G37*
G36*
X10032695Y-13923314D02*
G01*
X10032695Y-14053210D01*
X10062718Y-14053210D01*
X10062718Y-13923314D01*
G37*
G36*
X9982708Y-13923314D02*
G01*
X9982708Y-14053210D01*
X10012680Y-14053210D01*
X10012680Y-13923314D01*
G37*
G36*
X10387685Y-13923314D02*
G01*
X10387685Y-14053312D01*
X10437723Y-14053312D01*
X10437723Y-13923314D01*
G37*
G36*
X10467695Y-13923314D02*
G01*
X10467695Y-14053312D01*
X10517682Y-14053312D01*
X10517682Y-13923314D01*
G37*
G36*
X9827666Y-13923314D02*
G01*
X9827666Y-14053312D01*
X9877704Y-14053312D01*
X9877704Y-13923314D01*
G37*
G36*
X9907676Y-13923314D02*
G01*
X9907676Y-14053312D01*
X9957714Y-14053312D01*
X9957714Y-13923314D01*
G37*
D10*
G01*
X11014633Y-6463944D03*
G01*
X10854740Y-6464655D03*
G01*
X3877309Y-6451320D03*
G01*
X3717416Y-6452006D03*
G01*
X4410709Y-6464020D03*
G01*
X4250816Y-6464706D03*
G01*
X4906009Y-6464020D03*
G01*
X4746116Y-6464706D03*
G01*
X5426709Y-6464020D03*
G01*
X5266816Y-6464706D03*
G01*
X6684009Y-6464020D03*
G01*
X6524116Y-6464706D03*
G01*
X7192009Y-6464020D03*
G01*
X7032116Y-6464706D03*
G01*
X7687309Y-6464020D03*
G01*
X7527416Y-6464706D03*
G01*
X8182609Y-6464020D03*
G01*
X8022716Y-6464706D03*
G01*
X9490633Y-6463944D03*
G01*
X9330740Y-6464655D03*
G01*
X9998633Y-6463944D03*
G01*
X9838740Y-6464655D03*
G01*
X10506633Y-6463944D03*
G01*
X10346740Y-6464655D03*
D11*
G01*
X5518810Y-12510592D03*
G01*
X5518810Y-12330607D03*
D12*
G01*
X5598795Y-12510592D03*
G01*
X5598795Y-12330607D03*
G01*
X5678804Y-12510592D03*
G01*
X5678804Y-12330607D03*
D11*
G01*
X5758789Y-12510592D03*
G01*
X5758789Y-12330607D03*
G01*
X1326489Y-12317907D03*
G01*
X1326489Y-12497892D03*
D12*
G01*
X1246504Y-12317907D03*
G01*
X1246504Y-12497892D03*
G01*
X1166495Y-12317907D03*
G01*
X1166495Y-12497892D03*
D11*
G01*
X1086510Y-12317907D03*
G01*
X1086510Y-12497892D03*
D10*
G01*
X981633Y-6463944D03*
G01*
X821740Y-6464655D03*
G01*
X1603933Y-6463944D03*
G01*
X1444040Y-6464655D03*
G01*
X2124633Y-6463944D03*
G01*
X1964740Y-6464655D03*
G01*
X2632633Y-6463944D03*
G01*
X2472740Y-6464655D03*
G01*
X11121466Y-12751155D03*
G01*
X11281359Y-12750444D03*
G01*
X6391833Y-11556644D03*
G01*
X6231940Y-11557355D03*
G01*
X6899833Y-11556644D03*
G01*
X6739940Y-11557355D03*
G01*
X7407833Y-11556644D03*
G01*
X7247940Y-11557355D03*
G01*
X7915833Y-11556644D03*
G01*
X7755940Y-11557355D03*
G01*
X3483533Y-11556644D03*
G01*
X3323640Y-11557355D03*
G01*
X2975533Y-11556644D03*
G01*
X2815640Y-11557355D03*
G01*
X2467533Y-11556644D03*
G01*
X2307640Y-11557355D03*
G01*
X1959533Y-11556644D03*
G01*
X1799640Y-11557355D03*
D13*
G01*
X1853002Y-6849948D03*
G01*
X1803002Y-6849948D03*
G01*
X1753002Y-6849948D03*
G01*
X1703002Y-6849948D03*
D14*
G01*
X1853002Y-6764446D03*
G01*
X1803002Y-6764446D03*
G01*
X1753002Y-6764446D03*
G01*
X1703002Y-6764446D03*
D15*
G01*
X1952980Y-9996119D03*
G01*
X1903018Y-9996119D03*
G01*
X1853006Y-9996119D03*
G01*
X1803019Y-9996119D03*
G01*
X1753006Y-9996119D03*
G01*
X1703019Y-9996119D03*
G01*
X1653006Y-9996119D03*
G01*
X1603019Y-9996093D03*
G01*
X1603019Y-10146106D03*
G01*
X1653006Y-10146106D03*
G01*
X1703019Y-10146106D03*
G01*
X1753006Y-10146106D03*
G01*
X1803019Y-10146106D03*
G01*
X1853006Y-10146106D03*
G01*
X1903018Y-10146106D03*
G01*
X1952980Y-10146106D03*
D14*
G01*
X4509697Y-6764451D03*
G01*
X4559697Y-6764451D03*
G01*
X4609697Y-6764451D03*
G01*
X4659697Y-6764451D03*
D13*
G01*
X4509697Y-6849953D03*
G01*
X4559697Y-6849953D03*
G01*
X4609697Y-6849953D03*
G01*
X4659697Y-6849953D03*
D15*
G01*
X4746980Y-9996119D03*
G01*
X4697018Y-9996119D03*
G01*
X4646980Y-9996119D03*
G01*
X4597018Y-9996119D03*
G01*
X4546981Y-9996119D03*
G01*
X4497019Y-9996119D03*
G01*
X4447006Y-9996119D03*
G01*
X4397019Y-9996093D03*
G01*
X4397019Y-10146106D03*
G01*
X4447006Y-10146106D03*
G01*
X4497019Y-10146106D03*
G01*
X4546981Y-10146106D03*
G01*
X4597018Y-10146106D03*
G01*
X4646980Y-10146106D03*
G01*
X4697018Y-10146106D03*
G01*
X4746980Y-10146106D03*
D14*
G01*
X7290997Y-6764451D03*
G01*
X7340997Y-6764451D03*
G01*
X7390997Y-6764451D03*
G01*
X7440997Y-6764451D03*
D13*
G01*
X7290997Y-6849953D03*
G01*
X7340997Y-6849953D03*
G01*
X7390997Y-6849953D03*
G01*
X7440997Y-6849953D03*
D15*
G01*
X7540980Y-9996119D03*
G01*
X7491018Y-9996119D03*
G01*
X7440980Y-9996119D03*
G01*
X7391018Y-9996119D03*
G01*
X7340981Y-9996119D03*
G01*
X7291019Y-9996119D03*
G01*
X7241006Y-9996119D03*
G01*
X7191019Y-9996093D03*
G01*
X7191019Y-10146106D03*
G01*
X7241006Y-10146106D03*
G01*
X7291019Y-10146106D03*
G01*
X7340981Y-10146106D03*
G01*
X7391018Y-10146106D03*
G01*
X7440980Y-10146106D03*
G01*
X7491018Y-10146106D03*
G01*
X7540980Y-10146106D03*
D14*
G01*
X10097697Y-6764451D03*
G01*
X10147697Y-6764451D03*
G01*
X10197697Y-6764451D03*
G01*
X10247697Y-6764451D03*
D13*
G01*
X10097697Y-6849953D03*
G01*
X10147697Y-6849953D03*
G01*
X10197697Y-6849953D03*
G01*
X10247697Y-6849953D03*
D15*
G01*
X10334980Y-9996119D03*
G01*
X10285018Y-9996119D03*
G01*
X10234980Y-9996119D03*
G01*
X10185018Y-9996119D03*
G01*
X10134981Y-9996119D03*
G01*
X10085019Y-9996119D03*
G01*
X10035006Y-9996119D03*
G01*
X9985019Y-9996093D03*
G01*
X9985019Y-10146106D03*
G01*
X10035006Y-10146106D03*
G01*
X10085019Y-10146106D03*
G01*
X10134981Y-10146106D03*
G01*
X10185018Y-10146106D03*
G01*
X10234980Y-10146106D03*
G01*
X10285018Y-10146106D03*
G01*
X10334980Y-10146106D03*
D13*
G01*
X7148902Y-11917248D03*
G01*
X7098902Y-11917248D03*
G01*
X7048902Y-11917248D03*
G01*
X6998902Y-11917248D03*
D14*
G01*
X7148902Y-11831746D03*
G01*
X7098902Y-11831746D03*
G01*
X7048902Y-11831746D03*
G01*
X6998902Y-11831746D03*
G01*
X2566597Y-11831751D03*
G01*
X2616597Y-11831751D03*
G01*
X2666597Y-11831751D03*
G01*
X2716597Y-11831751D03*
D13*
G01*
X2566597Y-11917253D03*
G01*
X2616597Y-11917253D03*
G01*
X2666597Y-11917253D03*
G01*
X2716597Y-11917253D03*
D16*
G01*
X1432026Y-14116913D03*
G01*
X812037Y-14116913D03*
G01*
X1432026Y-13746911D03*
G01*
X812037Y-13746911D03*
G01*
X2460726Y-14116913D03*
G01*
X1840737Y-14116913D03*
G01*
X2460726Y-13746911D03*
G01*
X1840737Y-13746911D03*
G01*
X3464026Y-14116913D03*
G01*
X2844038Y-14116913D03*
G01*
X3464026Y-13746911D03*
G01*
X2844038Y-13746911D03*
G01*
X4492726Y-14116913D03*
G01*
X3872738Y-14116913D03*
G01*
X4492726Y-13746911D03*
G01*
X3872738Y-13746911D03*
D17*
G01*
X1513789Y-8039100D03*
G01*
X1513789Y-8166100D03*
G01*
X1513789Y-8293100D03*
G01*
X1513789Y-8420100D03*
G01*
X1513789Y-8547100D03*
G01*
X1513789Y-8674100D03*
G01*
X1513789Y-8801100D03*
G01*
X2067610Y-8039100D03*
G01*
X2067610Y-8166100D03*
G01*
X2067610Y-8293100D03*
G01*
X2067610Y-8420100D03*
G01*
X2067610Y-8547100D03*
G01*
X2067610Y-8674100D03*
G01*
X2067610Y-8801100D03*
G01*
X4295089Y-8026400D03*
G01*
X4295089Y-8153400D03*
G01*
X4295089Y-8280400D03*
G01*
X4295089Y-8407400D03*
G01*
X4295089Y-8534400D03*
G01*
X4295089Y-8661400D03*
G01*
X4295089Y-8788400D03*
G01*
X4848910Y-8026400D03*
G01*
X4848910Y-8153400D03*
G01*
X4848910Y-8280400D03*
G01*
X4848910Y-8407400D03*
G01*
X4848910Y-8534400D03*
G01*
X4848910Y-8661400D03*
G01*
X4848910Y-8788400D03*
G01*
X7089089Y-8039100D03*
G01*
X7089089Y-8166100D03*
G01*
X7089089Y-8293100D03*
G01*
X7089089Y-8420100D03*
G01*
X7089089Y-8547100D03*
G01*
X7089089Y-8674100D03*
G01*
X7089089Y-8801100D03*
G01*
X7642910Y-8039100D03*
G01*
X7642910Y-8166100D03*
G01*
X7642910Y-8293100D03*
G01*
X7642910Y-8420100D03*
G01*
X7642910Y-8547100D03*
G01*
X7642910Y-8674100D03*
G01*
X7642910Y-8801100D03*
G01*
X9895789Y-8039100D03*
G01*
X9895789Y-8166100D03*
G01*
X9895789Y-8293100D03*
G01*
X9895789Y-8420100D03*
G01*
X9895789Y-8547100D03*
G01*
X9895789Y-8674100D03*
G01*
X9895789Y-8801100D03*
G01*
X10449610Y-8039100D03*
G01*
X10449610Y-8166100D03*
G01*
X10449610Y-8293100D03*
G01*
X10449610Y-8420100D03*
G01*
X10449610Y-8547100D03*
G01*
X10449610Y-8674100D03*
G01*
X10449610Y-8801100D03*
M02*
