G04 Layer: TopSilkscreenLayer*
G04 EasyEDA v6.5.15, 2022-09-22 11:34:21*
G04 4b7f6f8434e74b0d931dc7ec5f8e676b,5f190de28158457892684f41c71a4f21,10*
G04 Gerber Generator version 0.2*
G04 Scale: 100 percent, Rotated: No, Reflected: No *
G04 Dimensions in millimeters *
G04 leading zeros omitted , absolute positions ,4 integer and 5 decimal *
%FSLAX45Y45*%
%MOMM*%

%ADD10C,0.1524*%
%ADD11C,0.1500*%
%ADD12C,0.2000*%
%ADD13C,0.2032*%
%ADD14C,0.2540*%
%ADD15C,0.1520*%
%ADD16C,0.3000*%
%ADD17C,0.0195*%

%LPD*%
G36*
X1760982Y-3584701D02*
G01*
X1739900Y-3605784D01*
X1739900Y-4058310D01*
X1163218Y-4066895D01*
X1163218Y-4161790D01*
X1739900Y-4170375D01*
X1739900Y-5006898D01*
X1163218Y-5015534D01*
X1163218Y-5110378D01*
X1739036Y-5119014D01*
X1747824Y-5584698D01*
X2885389Y-5582462D01*
X2992170Y-5553303D01*
X3015132Y-5546344D01*
X3040227Y-5538063D01*
X3066592Y-5528665D01*
X3093415Y-5518556D01*
X3119882Y-5507990D01*
X3145231Y-5497271D01*
X3168599Y-5486755D01*
X3179267Y-5481624D01*
X3280410Y-5431231D01*
X3374898Y-5352491D01*
X3394811Y-5335270D01*
X3418230Y-5314137D01*
X3436010Y-5297322D01*
X3457143Y-5276291D01*
X3473348Y-5259273D01*
X3485184Y-5246319D01*
X3504488Y-5224068D01*
X3523437Y-5200904D01*
X3542233Y-5176469D01*
X3561130Y-5150561D01*
X3576574Y-5128514D01*
X3592322Y-5105247D01*
X3651402Y-5016652D01*
X3679342Y-4929174D01*
X3693820Y-4880965D01*
X3707587Y-4832350D01*
X3713276Y-4811268D01*
X3731666Y-4739843D01*
X3825290Y-4758588D01*
X3918762Y-4719828D01*
X3967734Y-4644999D01*
X4323181Y-4636058D01*
X4323181Y-4541215D01*
X3967734Y-4532274D01*
X3917696Y-4455871D01*
X3812895Y-4421225D01*
X3732682Y-4441393D01*
X3712108Y-4360113D01*
X3706977Y-4341317D01*
X3697732Y-4310329D01*
X3693820Y-4298086D01*
X3685590Y-4273804D01*
X3676802Y-4249775D01*
X3665169Y-4220210D01*
X3652672Y-4191101D01*
X3644849Y-4173880D01*
X3631082Y-4145584D01*
X3616604Y-4117797D01*
X3601364Y-4090568D01*
X3588562Y-4069130D01*
X3578707Y-4053281D01*
X3561638Y-4027373D01*
X3547414Y-4007002D01*
X3532733Y-3987037D01*
X3513785Y-3962552D01*
X3498087Y-3943451D01*
X3485997Y-3929329D01*
X3469487Y-3910888D01*
X3448202Y-3888384D01*
X3430727Y-3870858D01*
X3408222Y-3849471D01*
X3389731Y-3832860D01*
X3370783Y-3816654D01*
X3346551Y-3797046D01*
X3331667Y-3785565D01*
X3316528Y-3774338D01*
X3301237Y-3763416D01*
X3280410Y-3749192D01*
X3201416Y-3696563D01*
X2984246Y-3615131D01*
X2680004Y-3585514D01*
G37*
G36*
X1956307Y-13036804D02*
G01*
X1956307Y-13080238D01*
X1999742Y-13080238D01*
X1999742Y-13036804D01*
G37*
G36*
X2314702Y-13036804D02*
G01*
X2314702Y-13258800D01*
X2358136Y-13258800D01*
X2358136Y-13148056D01*
X2358847Y-13144703D01*
X2360625Y-13142213D01*
X2363419Y-13140690D01*
X2367280Y-13140182D01*
X2398776Y-13140182D01*
X2402636Y-13140740D01*
X2405430Y-13142468D01*
X2407107Y-13145312D01*
X2407666Y-13149326D01*
X2407666Y-13258800D01*
X2451100Y-13258800D01*
X2451100Y-13149834D01*
X2450693Y-13142976D01*
X2449576Y-13136575D01*
X2447747Y-13130580D01*
X2445207Y-13125145D01*
X2442006Y-13120166D01*
X2438196Y-13115747D01*
X2433777Y-13111937D01*
X2428798Y-13108736D01*
X2423363Y-13106196D01*
X2417368Y-13104368D01*
X2410968Y-13103250D01*
X2404110Y-13102844D01*
X2389886Y-13102844D01*
X2380691Y-13103606D01*
X2372309Y-13105739D01*
X2364740Y-13109295D01*
X2358136Y-13114019D01*
X2358136Y-13036804D01*
G37*
G36*
X2743708Y-13036804D02*
G01*
X2743708Y-13114019D01*
X2737154Y-13109295D01*
X2729636Y-13105790D01*
X2721254Y-13103606D01*
X2711958Y-13102844D01*
X2697734Y-13102844D01*
X2690876Y-13103250D01*
X2684475Y-13104368D01*
X2678480Y-13106196D01*
X2673045Y-13108736D01*
X2668066Y-13111937D01*
X2663647Y-13115747D01*
X2659837Y-13120166D01*
X2656636Y-13125145D01*
X2654096Y-13130580D01*
X2652268Y-13136575D01*
X2651150Y-13142976D01*
X2650744Y-13149834D01*
X2650774Y-13212318D01*
X2694178Y-13212318D01*
X2694178Y-13149326D01*
X2694736Y-13145312D01*
X2696464Y-13142468D01*
X2699308Y-13140740D01*
X2703322Y-13140182D01*
X2734818Y-13140182D01*
X2738374Y-13140690D01*
X2741066Y-13142213D01*
X2742844Y-13144703D01*
X2743708Y-13148056D01*
X2743708Y-13213842D01*
X2742844Y-13217144D01*
X2741066Y-13219430D01*
X2738374Y-13220750D01*
X2734818Y-13221207D01*
X2703322Y-13221207D01*
X2699308Y-13220700D01*
X2696464Y-13219023D01*
X2694736Y-13216280D01*
X2694178Y-13212318D01*
X2650774Y-13212318D01*
X2651150Y-13218668D01*
X2652268Y-13225068D01*
X2654096Y-13231063D01*
X2656636Y-13236498D01*
X2659837Y-13241477D01*
X2663647Y-13245896D01*
X2668066Y-13249706D01*
X2673045Y-13252907D01*
X2678480Y-13255447D01*
X2684475Y-13257276D01*
X2690876Y-13258393D01*
X2697734Y-13258800D01*
X2711958Y-13258800D01*
X2717444Y-13258546D01*
X2722676Y-13257834D01*
X2727655Y-13256615D01*
X2732328Y-13254939D01*
X2736646Y-13252805D01*
X2740660Y-13250214D01*
X2744266Y-13247217D01*
X2747518Y-13243813D01*
X2754122Y-13258800D01*
X2787142Y-13258800D01*
X2787142Y-13036804D01*
G37*
G36*
X2097278Y-13047726D02*
G01*
X2053589Y-13060680D01*
X2053589Y-13102844D01*
X2017775Y-13102844D01*
X2017775Y-13140182D01*
X2053589Y-13140182D01*
X2053589Y-13258800D01*
X2097278Y-13258800D01*
X2097278Y-13140182D01*
X2133092Y-13140182D01*
X2133092Y-13102844D01*
X2097278Y-13102844D01*
G37*
G36*
X3571748Y-13047726D02*
G01*
X3528314Y-13060680D01*
X3528314Y-13102844D01*
X3492246Y-13102844D01*
X3492246Y-13140182D01*
X3528314Y-13140182D01*
X3528314Y-13258800D01*
X3571748Y-13258800D01*
X3571748Y-13140182D01*
X3607815Y-13140182D01*
X3607815Y-13102844D01*
X3571748Y-13102844D01*
G37*
G36*
X1576070Y-13048742D02*
G01*
X1569262Y-13049148D01*
X1562912Y-13050265D01*
X1556969Y-13052145D01*
X1551533Y-13054736D01*
X1546606Y-13057936D01*
X1542237Y-13061797D01*
X1538427Y-13066217D01*
X1535226Y-13071195D01*
X1532686Y-13076732D01*
X1530858Y-13082676D01*
X1529740Y-13089128D01*
X1529334Y-13095986D01*
X1529334Y-13126719D01*
X1529740Y-13133578D01*
X1530858Y-13140029D01*
X1532686Y-13145973D01*
X1535226Y-13151510D01*
X1538427Y-13156488D01*
X1542237Y-13160908D01*
X1546606Y-13164769D01*
X1551533Y-13167969D01*
X1556969Y-13170560D01*
X1562912Y-13172440D01*
X1569262Y-13173557D01*
X1576070Y-13173963D01*
X1638300Y-13173963D01*
X1642160Y-13174522D01*
X1644954Y-13176199D01*
X1646631Y-13178993D01*
X1647189Y-13182854D01*
X1647189Y-13209269D01*
X1646631Y-13213283D01*
X1644954Y-13216128D01*
X1642160Y-13217855D01*
X1638300Y-13218413D01*
X1584706Y-13218413D01*
X1580845Y-13217855D01*
X1578051Y-13216128D01*
X1576374Y-13213283D01*
X1575816Y-13209269D01*
X1575816Y-13192760D01*
X1529334Y-13192760D01*
X1529334Y-13211810D01*
X1529740Y-13218668D01*
X1530858Y-13225068D01*
X1532686Y-13231063D01*
X1535226Y-13236498D01*
X1538427Y-13241477D01*
X1542237Y-13245896D01*
X1546656Y-13249706D01*
X1551635Y-13252907D01*
X1557070Y-13255447D01*
X1563065Y-13257276D01*
X1569466Y-13258393D01*
X1576324Y-13258800D01*
X1646936Y-13258800D01*
X1653743Y-13258393D01*
X1660093Y-13257276D01*
X1666036Y-13255447D01*
X1671472Y-13252907D01*
X1676400Y-13249706D01*
X1680768Y-13245896D01*
X1684578Y-13241477D01*
X1687779Y-13236498D01*
X1690319Y-13231063D01*
X1692148Y-13225068D01*
X1693265Y-13218668D01*
X1693672Y-13211810D01*
X1693672Y-13180568D01*
X1693265Y-13173710D01*
X1692148Y-13167258D01*
X1690319Y-13161314D01*
X1687779Y-13155777D01*
X1684578Y-13150799D01*
X1680768Y-13146379D01*
X1676400Y-13142518D01*
X1671472Y-13139318D01*
X1666036Y-13136727D01*
X1660093Y-13134848D01*
X1653743Y-13133730D01*
X1646936Y-13133324D01*
X1584706Y-13133324D01*
X1580845Y-13132765D01*
X1578051Y-13131088D01*
X1576374Y-13128294D01*
X1575816Y-13124434D01*
X1575816Y-13098271D01*
X1576374Y-13094309D01*
X1578051Y-13091515D01*
X1580845Y-13089890D01*
X1584706Y-13089382D01*
X1638300Y-13089382D01*
X1642160Y-13089890D01*
X1644954Y-13091515D01*
X1646631Y-13094309D01*
X1647189Y-13098271D01*
X1647189Y-13114782D01*
X1693672Y-13114782D01*
X1693672Y-13095986D01*
X1693265Y-13089128D01*
X1692148Y-13082676D01*
X1690319Y-13076732D01*
X1687779Y-13071195D01*
X1684578Y-13066217D01*
X1680768Y-13061797D01*
X1676349Y-13057936D01*
X1671370Y-13054736D01*
X1665935Y-13052145D01*
X1659940Y-13050265D01*
X1653539Y-13049148D01*
X1646682Y-13048742D01*
G37*
G36*
X2913126Y-13048742D02*
G01*
X2913126Y-13258800D01*
X2959608Y-13258800D01*
X2959608Y-13048742D01*
G37*
G36*
X1711706Y-13102844D02*
G01*
X1754124Y-13258800D01*
X1802892Y-13258800D01*
X1824736Y-13167868D01*
X1847088Y-13258800D01*
X1895856Y-13258800D01*
X1938274Y-13102844D01*
X1896110Y-13102844D01*
X1871725Y-13205713D01*
X1848104Y-13102844D01*
X1804670Y-13102844D01*
X1781048Y-13205713D01*
X1756664Y-13102844D01*
G37*
G36*
X1956307Y-13102844D02*
G01*
X1956307Y-13258800D01*
X1999742Y-13258800D01*
X1999742Y-13102844D01*
G37*
G36*
X2195068Y-13102844D02*
G01*
X2188260Y-13103250D01*
X2181910Y-13104368D01*
X2175916Y-13106196D01*
X2170480Y-13108736D01*
X2165502Y-13111937D01*
X2161082Y-13115747D01*
X2157272Y-13120166D01*
X2154072Y-13125145D01*
X2151481Y-13130580D01*
X2149602Y-13136575D01*
X2148484Y-13142976D01*
X2148078Y-13149834D01*
X2148078Y-13211810D01*
X2148484Y-13218668D01*
X2149602Y-13225068D01*
X2151481Y-13231063D01*
X2154072Y-13236498D01*
X2157272Y-13241477D01*
X2161082Y-13245896D01*
X2165502Y-13249706D01*
X2170480Y-13252907D01*
X2175916Y-13255447D01*
X2181910Y-13257276D01*
X2188260Y-13258393D01*
X2195068Y-13258800D01*
X2237486Y-13258800D01*
X2244344Y-13258393D01*
X2250795Y-13257276D01*
X2256739Y-13255447D01*
X2262276Y-13252907D01*
X2267254Y-13249706D01*
X2271674Y-13245896D01*
X2275535Y-13241477D01*
X2278735Y-13236498D01*
X2281326Y-13231063D01*
X2283206Y-13225068D01*
X2284323Y-13218668D01*
X2284730Y-13211810D01*
X2284730Y-13200380D01*
X2241296Y-13200380D01*
X2241296Y-13212318D01*
X2240737Y-13216280D01*
X2239010Y-13219023D01*
X2236165Y-13220700D01*
X2232152Y-13221207D01*
X2200656Y-13221207D01*
X2196795Y-13220700D01*
X2194001Y-13219023D01*
X2192324Y-13216280D01*
X2191766Y-13212318D01*
X2191766Y-13149326D01*
X2192324Y-13145312D01*
X2194001Y-13142468D01*
X2196795Y-13140740D01*
X2200656Y-13140182D01*
X2232152Y-13140182D01*
X2236165Y-13140740D01*
X2239010Y-13142468D01*
X2240737Y-13145312D01*
X2241296Y-13149326D01*
X2241296Y-13161263D01*
X2284730Y-13161263D01*
X2284730Y-13149834D01*
X2284323Y-13142976D01*
X2283206Y-13136575D01*
X2281326Y-13130580D01*
X2278735Y-13125145D01*
X2275535Y-13120166D01*
X2271674Y-13115747D01*
X2267254Y-13111937D01*
X2262276Y-13108736D01*
X2256739Y-13106196D01*
X2250795Y-13104368D01*
X2244344Y-13103250D01*
X2237486Y-13102844D01*
G37*
G36*
X2531110Y-13102844D02*
G01*
X2524302Y-13103250D01*
X2517952Y-13104368D01*
X2511958Y-13106196D01*
X2506522Y-13108736D01*
X2501544Y-13111937D01*
X2497124Y-13115747D01*
X2493314Y-13120166D01*
X2490114Y-13125145D01*
X2487523Y-13130580D01*
X2485644Y-13136575D01*
X2484526Y-13142976D01*
X2484120Y-13149834D01*
X2484120Y-13162788D01*
X2527808Y-13162788D01*
X2527808Y-13149326D01*
X2528316Y-13145312D01*
X2529992Y-13142468D01*
X2532735Y-13140740D01*
X2536698Y-13140182D01*
X2568194Y-13140182D01*
X2572156Y-13140740D01*
X2574950Y-13142468D01*
X2576576Y-13145312D01*
X2577084Y-13149326D01*
X2577084Y-13162788D01*
X2484120Y-13162788D01*
X2484120Y-13211810D01*
X2484526Y-13218668D01*
X2485644Y-13225068D01*
X2487523Y-13231063D01*
X2490114Y-13236498D01*
X2493314Y-13241477D01*
X2497124Y-13245896D01*
X2501544Y-13249706D01*
X2506522Y-13252907D01*
X2511958Y-13255447D01*
X2517952Y-13257276D01*
X2524302Y-13258393D01*
X2531110Y-13258800D01*
X2573528Y-13258800D01*
X2580386Y-13258393D01*
X2586837Y-13257276D01*
X2592781Y-13255447D01*
X2598318Y-13252907D01*
X2603296Y-13249706D01*
X2607716Y-13245896D01*
X2611577Y-13241477D01*
X2614777Y-13236498D01*
X2617368Y-13231063D01*
X2619248Y-13225068D01*
X2620365Y-13218668D01*
X2620772Y-13211810D01*
X2620772Y-13206222D01*
X2577084Y-13206222D01*
X2577084Y-13212318D01*
X2576576Y-13216280D01*
X2574950Y-13219023D01*
X2572156Y-13220700D01*
X2568194Y-13221207D01*
X2536698Y-13221207D01*
X2532735Y-13220700D01*
X2529941Y-13219023D01*
X2528316Y-13216280D01*
X2527808Y-13212318D01*
X2527808Y-13197332D01*
X2620772Y-13197332D01*
X2620772Y-13149834D01*
X2620365Y-13142976D01*
X2619248Y-13136575D01*
X2617368Y-13130580D01*
X2614777Y-13125145D01*
X2611577Y-13120166D01*
X2607716Y-13115747D01*
X2603296Y-13111937D01*
X2598318Y-13108736D01*
X2592781Y-13106196D01*
X2586837Y-13104368D01*
X2580386Y-13103250D01*
X2573528Y-13102844D01*
G37*
G36*
X2995676Y-13102844D02*
G01*
X2995676Y-13258800D01*
X3039110Y-13258800D01*
X3039110Y-13148056D01*
X3039922Y-13144703D01*
X3041700Y-13142213D01*
X3044444Y-13140690D01*
X3048254Y-13140182D01*
X3079750Y-13140182D01*
X3083610Y-13140740D01*
X3086404Y-13142468D01*
X3088081Y-13145312D01*
X3088640Y-13149326D01*
X3088640Y-13258800D01*
X3132074Y-13258800D01*
X3132074Y-13149834D01*
X3131667Y-13142976D01*
X3130550Y-13136575D01*
X3128721Y-13130580D01*
X3126181Y-13125145D01*
X3122980Y-13120166D01*
X3119170Y-13115747D01*
X3114751Y-13111937D01*
X3109772Y-13108736D01*
X3104337Y-13106196D01*
X3098342Y-13104368D01*
X3091942Y-13103250D01*
X3085084Y-13102844D01*
X3071114Y-13102844D01*
X3065475Y-13103098D01*
X3060141Y-13103860D01*
X3055112Y-13105130D01*
X3050438Y-13106857D01*
X3046069Y-13109041D01*
X3042056Y-13111632D01*
X3038348Y-13114680D01*
X3035046Y-13118084D01*
X3028696Y-13102844D01*
G37*
G36*
X3168142Y-13102844D02*
G01*
X3168142Y-13212318D01*
X3211576Y-13212318D01*
X3211576Y-13148056D01*
X3212388Y-13144703D01*
X3214166Y-13142213D01*
X3216910Y-13140690D01*
X3220720Y-13140182D01*
X3252215Y-13140182D01*
X3256178Y-13140740D01*
X3258972Y-13142468D01*
X3260598Y-13145312D01*
X3261106Y-13149326D01*
X3261106Y-13212318D01*
X3260598Y-13216280D01*
X3258972Y-13219023D01*
X3256178Y-13220700D01*
X3252215Y-13221207D01*
X3220720Y-13221207D01*
X3216706Y-13220700D01*
X3213862Y-13219023D01*
X3212134Y-13216280D01*
X3211576Y-13212318D01*
X3168142Y-13212318D01*
X3168142Y-13318744D01*
X3211576Y-13318744D01*
X3211576Y-13247624D01*
X3218180Y-13252500D01*
X3225749Y-13255955D01*
X3234232Y-13258088D01*
X3243580Y-13258800D01*
X3257550Y-13258800D01*
X3264408Y-13258393D01*
X3270859Y-13257276D01*
X3276803Y-13255447D01*
X3282340Y-13252907D01*
X3287318Y-13249706D01*
X3291738Y-13245896D01*
X3295599Y-13241477D01*
X3298799Y-13236498D01*
X3301390Y-13231063D01*
X3303270Y-13225068D01*
X3304387Y-13218668D01*
X3304794Y-13211810D01*
X3304794Y-13149834D01*
X3304387Y-13142976D01*
X3303270Y-13136575D01*
X3301390Y-13130580D01*
X3298799Y-13125145D01*
X3295599Y-13120166D01*
X3291738Y-13115747D01*
X3287318Y-13111937D01*
X3282340Y-13108736D01*
X3276803Y-13106196D01*
X3270859Y-13104368D01*
X3264408Y-13103250D01*
X3257550Y-13102844D01*
X3243580Y-13102844D01*
X3237941Y-13103098D01*
X3232607Y-13103860D01*
X3227578Y-13105130D01*
X3222904Y-13106857D01*
X3218535Y-13109041D01*
X3214522Y-13111632D01*
X3210814Y-13114680D01*
X3207512Y-13118084D01*
X3201162Y-13102844D01*
G37*
G36*
X3337814Y-13102844D02*
G01*
X3337814Y-13211810D01*
X3338220Y-13218668D01*
X3339337Y-13225068D01*
X3341166Y-13231063D01*
X3343706Y-13236498D01*
X3346907Y-13241477D01*
X3350717Y-13245896D01*
X3355136Y-13249706D01*
X3360115Y-13252907D01*
X3365550Y-13255447D01*
X3371545Y-13257276D01*
X3377946Y-13258393D01*
X3384804Y-13258800D01*
X3398774Y-13258800D01*
X3404362Y-13258546D01*
X3409645Y-13257834D01*
X3414674Y-13256615D01*
X3419348Y-13254939D01*
X3423716Y-13252805D01*
X3427729Y-13250214D01*
X3431336Y-13247217D01*
X3434587Y-13243813D01*
X3441192Y-13258800D01*
X3474212Y-13258800D01*
X3474212Y-13102844D01*
X3430778Y-13102844D01*
X3430778Y-13212318D01*
X3430219Y-13216280D01*
X3428492Y-13219023D01*
X3425647Y-13220700D01*
X3421634Y-13221207D01*
X3390137Y-13221207D01*
X3386277Y-13220700D01*
X3383483Y-13219023D01*
X3381806Y-13216280D01*
X3381248Y-13212318D01*
X3381248Y-13102844D01*
G37*
G36*
X3671062Y-13102844D02*
G01*
X3664254Y-13103250D01*
X3657904Y-13104368D01*
X3651910Y-13106196D01*
X3646474Y-13108736D01*
X3641496Y-13111937D01*
X3637076Y-13115747D01*
X3633266Y-13120166D01*
X3630066Y-13125145D01*
X3627475Y-13130580D01*
X3625596Y-13136575D01*
X3624478Y-13142976D01*
X3624072Y-13150850D01*
X3624478Y-13157707D01*
X3625596Y-13164108D01*
X3627475Y-13170103D01*
X3630066Y-13175538D01*
X3633266Y-13180517D01*
X3637076Y-13184936D01*
X3641496Y-13188746D01*
X3646474Y-13191947D01*
X3651910Y-13194487D01*
X3657904Y-13196316D01*
X3664254Y-13197433D01*
X3671062Y-13197840D01*
X3706622Y-13197840D01*
X3710635Y-13198449D01*
X3713479Y-13200278D01*
X3715207Y-13203174D01*
X3715765Y-13207238D01*
X3715765Y-13212063D01*
X3715207Y-13215975D01*
X3713479Y-13218820D01*
X3710635Y-13220598D01*
X3706622Y-13221207D01*
X3675126Y-13221207D01*
X3671265Y-13220700D01*
X3668471Y-13219023D01*
X3666794Y-13216280D01*
X3666236Y-13212318D01*
X3666236Y-13206222D01*
X3622801Y-13206222D01*
X3622801Y-13211810D01*
X3623208Y-13218668D01*
X3624326Y-13225068D01*
X3626154Y-13231063D01*
X3628694Y-13236498D01*
X3631895Y-13241477D01*
X3635705Y-13245896D01*
X3640124Y-13249706D01*
X3645103Y-13252907D01*
X3650538Y-13255447D01*
X3656533Y-13257276D01*
X3662934Y-13258393D01*
X3669792Y-13258800D01*
X3712464Y-13258800D01*
X3719271Y-13258393D01*
X3725621Y-13257276D01*
X3731564Y-13255447D01*
X3737000Y-13252907D01*
X3741928Y-13249706D01*
X3746296Y-13245896D01*
X3750106Y-13241477D01*
X3753307Y-13236498D01*
X3755847Y-13231063D01*
X3757676Y-13225068D01*
X3758793Y-13218668D01*
X3759200Y-13210540D01*
X3758793Y-13203682D01*
X3757676Y-13197230D01*
X3755847Y-13191286D01*
X3753307Y-13185749D01*
X3750106Y-13180771D01*
X3746296Y-13176351D01*
X3741928Y-13172490D01*
X3737000Y-13169290D01*
X3731564Y-13166699D01*
X3725621Y-13164819D01*
X3719271Y-13163702D01*
X3712464Y-13163296D01*
X3676650Y-13163296D01*
X3672789Y-13162788D01*
X3669995Y-13161111D01*
X3668318Y-13158368D01*
X3667760Y-13154406D01*
X3667760Y-13149326D01*
X3668318Y-13145312D01*
X3669995Y-13142468D01*
X3672789Y-13140740D01*
X3676650Y-13140182D01*
X3705098Y-13140182D01*
X3709111Y-13140740D01*
X3711956Y-13142468D01*
X3713683Y-13145312D01*
X3714242Y-13149326D01*
X3714242Y-13155422D01*
X3757676Y-13155422D01*
X3757676Y-13149834D01*
X3757269Y-13142976D01*
X3756151Y-13136575D01*
X3754323Y-13130580D01*
X3751783Y-13125145D01*
X3748582Y-13120166D01*
X3744772Y-13115747D01*
X3740353Y-13111937D01*
X3735374Y-13108736D01*
X3729939Y-13106196D01*
X3723944Y-13104368D01*
X3717544Y-13103250D01*
X3710686Y-13102844D01*
G37*
G36*
X6770116Y-14457426D02*
G01*
X6726681Y-14470380D01*
X6726681Y-14512544D01*
X6690614Y-14512544D01*
X6690614Y-14549882D01*
X6726681Y-14549882D01*
X6726681Y-14668500D01*
X6770116Y-14668500D01*
X6770116Y-14549882D01*
X6806184Y-14549882D01*
X6806184Y-14512544D01*
X6770116Y-14512544D01*
G37*
G36*
X7224522Y-14457426D02*
G01*
X7181088Y-14470380D01*
X7181088Y-14512544D01*
X7145020Y-14512544D01*
X7145020Y-14549882D01*
X7181088Y-14549882D01*
X7181088Y-14668500D01*
X7224522Y-14668500D01*
X7224522Y-14549882D01*
X7260590Y-14549882D01*
X7260590Y-14512544D01*
X7224522Y-14512544D01*
G37*
G36*
X8027162Y-14457426D02*
G01*
X7983474Y-14470380D01*
X7983474Y-14512544D01*
X7947659Y-14512544D01*
X7947659Y-14549882D01*
X7983474Y-14549882D01*
X7983474Y-14668500D01*
X8027162Y-14668500D01*
X8027162Y-14549882D01*
X8062975Y-14549882D01*
X8062975Y-14512544D01*
X8027162Y-14512544D01*
G37*
G36*
X6046470Y-14458442D02*
G01*
X6039662Y-14458848D01*
X6033312Y-14459966D01*
X6027369Y-14461845D01*
X6021933Y-14464436D01*
X6017006Y-14467636D01*
X6012637Y-14471497D01*
X6008827Y-14475917D01*
X6005626Y-14480895D01*
X6003086Y-14486432D01*
X6001258Y-14492376D01*
X6000140Y-14498828D01*
X5999734Y-14505686D01*
X5999734Y-14621510D01*
X6000140Y-14628368D01*
X6001258Y-14634768D01*
X6003086Y-14640763D01*
X6005626Y-14646198D01*
X6008827Y-14651177D01*
X6012637Y-14655596D01*
X6017006Y-14659406D01*
X6021933Y-14662607D01*
X6027369Y-14665147D01*
X6033312Y-14666976D01*
X6039662Y-14668093D01*
X6046470Y-14668500D01*
X6119876Y-14668500D01*
X6126784Y-14668093D01*
X6133236Y-14666976D01*
X6139281Y-14665147D01*
X6144768Y-14662607D01*
X6149746Y-14659406D01*
X6154166Y-14655596D01*
X6157976Y-14651177D01*
X6161176Y-14646198D01*
X6163716Y-14640763D01*
X6165596Y-14634768D01*
X6166713Y-14628368D01*
X6167120Y-14621510D01*
X6167120Y-14593569D01*
X6120638Y-14593569D01*
X6120638Y-14618969D01*
X6120079Y-14622983D01*
X6118352Y-14625828D01*
X6115507Y-14627555D01*
X6111494Y-14628113D01*
X6055106Y-14628113D01*
X6051245Y-14627555D01*
X6048451Y-14625828D01*
X6046774Y-14622983D01*
X6046216Y-14618969D01*
X6046216Y-14507972D01*
X6046774Y-14504009D01*
X6048451Y-14501215D01*
X6051245Y-14499590D01*
X6055106Y-14499082D01*
X6111494Y-14499082D01*
X6115507Y-14499590D01*
X6118352Y-14501215D01*
X6120079Y-14504009D01*
X6120638Y-14507972D01*
X6120638Y-14533626D01*
X6167120Y-14533626D01*
X6167120Y-14505686D01*
X6166713Y-14498828D01*
X6165596Y-14492376D01*
X6163716Y-14486432D01*
X6161176Y-14480895D01*
X6157976Y-14475917D01*
X6154166Y-14471497D01*
X6149746Y-14467636D01*
X6144768Y-14464436D01*
X6139281Y-14461845D01*
X6133236Y-14459966D01*
X6126784Y-14458848D01*
X6119876Y-14458442D01*
G37*
G36*
X7368540Y-14458442D02*
G01*
X7368540Y-14668500D01*
X7415022Y-14668500D01*
X7415022Y-14458442D01*
G37*
G36*
X6246876Y-14512544D02*
G01*
X6240068Y-14512950D01*
X6233718Y-14514068D01*
X6227775Y-14515896D01*
X6222339Y-14518436D01*
X6217412Y-14521637D01*
X6213043Y-14525447D01*
X6209233Y-14529866D01*
X6206032Y-14534845D01*
X6203492Y-14540280D01*
X6201664Y-14546275D01*
X6200546Y-14552676D01*
X6200140Y-14559534D01*
X6200170Y-14622018D01*
X6243574Y-14622018D01*
X6243574Y-14559026D01*
X6244132Y-14555012D01*
X6245860Y-14552168D01*
X6248704Y-14550440D01*
X6252718Y-14549882D01*
X6284214Y-14549882D01*
X6288074Y-14550440D01*
X6290868Y-14552168D01*
X6292545Y-14555012D01*
X6293104Y-14559026D01*
X6293104Y-14622018D01*
X6292545Y-14625980D01*
X6290868Y-14628723D01*
X6288074Y-14630400D01*
X6284214Y-14630907D01*
X6252718Y-14630907D01*
X6248704Y-14630400D01*
X6245860Y-14628723D01*
X6244132Y-14625980D01*
X6243574Y-14622018D01*
X6200170Y-14622018D01*
X6200546Y-14628368D01*
X6201664Y-14634768D01*
X6203492Y-14640763D01*
X6206032Y-14646198D01*
X6209233Y-14651177D01*
X6213043Y-14655596D01*
X6217412Y-14659406D01*
X6222339Y-14662607D01*
X6227775Y-14665147D01*
X6233718Y-14666976D01*
X6240068Y-14668093D01*
X6246876Y-14668500D01*
X6289548Y-14668500D01*
X6296406Y-14668093D01*
X6302806Y-14666976D01*
X6308801Y-14665147D01*
X6314236Y-14662607D01*
X6319215Y-14659406D01*
X6323634Y-14655596D01*
X6327444Y-14651177D01*
X6330645Y-14646198D01*
X6333185Y-14640763D01*
X6335014Y-14634768D01*
X6336131Y-14628368D01*
X6336538Y-14621510D01*
X6336538Y-14559534D01*
X6336131Y-14552676D01*
X6335014Y-14546275D01*
X6333185Y-14540280D01*
X6330645Y-14534845D01*
X6327444Y-14529866D01*
X6323634Y-14525447D01*
X6319215Y-14521637D01*
X6314236Y-14518436D01*
X6308801Y-14515896D01*
X6302806Y-14514068D01*
X6296406Y-14512950D01*
X6289548Y-14512544D01*
G37*
G36*
X6369558Y-14512544D02*
G01*
X6369558Y-14668500D01*
X6412992Y-14668500D01*
X6412992Y-14557756D01*
X6413804Y-14554403D01*
X6415582Y-14551913D01*
X6418326Y-14550390D01*
X6422136Y-14549882D01*
X6453632Y-14549882D01*
X6457492Y-14550440D01*
X6460286Y-14552168D01*
X6461963Y-14555012D01*
X6462522Y-14559026D01*
X6462522Y-14668500D01*
X6506209Y-14668500D01*
X6506209Y-14559534D01*
X6505803Y-14552676D01*
X6504685Y-14546275D01*
X6502806Y-14540280D01*
X6500215Y-14534845D01*
X6497015Y-14529866D01*
X6493154Y-14525447D01*
X6488734Y-14521637D01*
X6483756Y-14518436D01*
X6478219Y-14515896D01*
X6472275Y-14514068D01*
X6465824Y-14512950D01*
X6458966Y-14512544D01*
X6444996Y-14512544D01*
X6439357Y-14512798D01*
X6434023Y-14513560D01*
X6428994Y-14514830D01*
X6424269Y-14516557D01*
X6419951Y-14518741D01*
X6415938Y-14521332D01*
X6412230Y-14524380D01*
X6408928Y-14527784D01*
X6402578Y-14512544D01*
G37*
G36*
X6587490Y-14512544D02*
G01*
X6580682Y-14512950D01*
X6574332Y-14514068D01*
X6568338Y-14515896D01*
X6562902Y-14518436D01*
X6557924Y-14521637D01*
X6553504Y-14525447D01*
X6549694Y-14529866D01*
X6546494Y-14534845D01*
X6543903Y-14540280D01*
X6542024Y-14546275D01*
X6540906Y-14552676D01*
X6540500Y-14560550D01*
X6540906Y-14567407D01*
X6542024Y-14573808D01*
X6543903Y-14579803D01*
X6546494Y-14585238D01*
X6549694Y-14590217D01*
X6553504Y-14594636D01*
X6557924Y-14598446D01*
X6562902Y-14601647D01*
X6568338Y-14604187D01*
X6574332Y-14606016D01*
X6580682Y-14607133D01*
X6587490Y-14607540D01*
X6623050Y-14607540D01*
X6627063Y-14608149D01*
X6629908Y-14609978D01*
X6631635Y-14612874D01*
X6632194Y-14616938D01*
X6632194Y-14621763D01*
X6631635Y-14625675D01*
X6629908Y-14628520D01*
X6627063Y-14630298D01*
X6623050Y-14630907D01*
X6591553Y-14630907D01*
X6587693Y-14630400D01*
X6584899Y-14628723D01*
X6583222Y-14625980D01*
X6582664Y-14622018D01*
X6582664Y-14615922D01*
X6538976Y-14615922D01*
X6538976Y-14621510D01*
X6539382Y-14628368D01*
X6540500Y-14634768D01*
X6542379Y-14640763D01*
X6544970Y-14646198D01*
X6548170Y-14651177D01*
X6552031Y-14655596D01*
X6556451Y-14659406D01*
X6561429Y-14662607D01*
X6566966Y-14665147D01*
X6572910Y-14666976D01*
X6579362Y-14668093D01*
X6586220Y-14668500D01*
X6628892Y-14668500D01*
X6635648Y-14668093D01*
X6641947Y-14666976D01*
X6647891Y-14665147D01*
X6653326Y-14662607D01*
X6658254Y-14659406D01*
X6662623Y-14655596D01*
X6666484Y-14651177D01*
X6669684Y-14646198D01*
X6672224Y-14640763D01*
X6674103Y-14634768D01*
X6675221Y-14628368D01*
X6675628Y-14620240D01*
X6675221Y-14613382D01*
X6674103Y-14606930D01*
X6672224Y-14600986D01*
X6669684Y-14595449D01*
X6666484Y-14590471D01*
X6662623Y-14586051D01*
X6658254Y-14582190D01*
X6653326Y-14578990D01*
X6647891Y-14576399D01*
X6641947Y-14574519D01*
X6635648Y-14573402D01*
X6628892Y-14572996D01*
X6593078Y-14572996D01*
X6589115Y-14572488D01*
X6586321Y-14570811D01*
X6584696Y-14568068D01*
X6584188Y-14564106D01*
X6584188Y-14559026D01*
X6584696Y-14555012D01*
X6586372Y-14552168D01*
X6589115Y-14550440D01*
X6593078Y-14549882D01*
X6621525Y-14549882D01*
X6625539Y-14550440D01*
X6628384Y-14552168D01*
X6630111Y-14555012D01*
X6630670Y-14559026D01*
X6630670Y-14565122D01*
X6674103Y-14565122D01*
X6674103Y-14559534D01*
X6673697Y-14552676D01*
X6672580Y-14546275D01*
X6670751Y-14540280D01*
X6668211Y-14534845D01*
X6665010Y-14529866D01*
X6661200Y-14525447D01*
X6656781Y-14521637D01*
X6651802Y-14518436D01*
X6646367Y-14515896D01*
X6640372Y-14514068D01*
X6633972Y-14512950D01*
X6627114Y-14512544D01*
G37*
G36*
X6872731Y-14512544D02*
G01*
X6865874Y-14512950D01*
X6859422Y-14514068D01*
X6853478Y-14515896D01*
X6847941Y-14518436D01*
X6842963Y-14521637D01*
X6838543Y-14525447D01*
X6834682Y-14529866D01*
X6831482Y-14534845D01*
X6828891Y-14540280D01*
X6827012Y-14546275D01*
X6825894Y-14552676D01*
X6825488Y-14559534D01*
X6825488Y-14565122D01*
X6869175Y-14565122D01*
X6869175Y-14559026D01*
X6869734Y-14555012D01*
X6871411Y-14552168D01*
X6874205Y-14550440D01*
X6878066Y-14549882D01*
X6902196Y-14549882D01*
X6906056Y-14550440D01*
X6908850Y-14552168D01*
X6910527Y-14555012D01*
X6911086Y-14559026D01*
X6911086Y-14585188D01*
X6904532Y-14580463D01*
X6897014Y-14576907D01*
X6888632Y-14574774D01*
X6879336Y-14574012D01*
X6865112Y-14574012D01*
X6858253Y-14574418D01*
X6851853Y-14575536D01*
X6845858Y-14577364D01*
X6840423Y-14579904D01*
X6835444Y-14583105D01*
X6831025Y-14586915D01*
X6827215Y-14591334D01*
X6824014Y-14596313D01*
X6821474Y-14601748D01*
X6819646Y-14607743D01*
X6818528Y-14614144D01*
X6818152Y-14622018D01*
X6861556Y-14622018D01*
X6861556Y-14617446D01*
X6862114Y-14613585D01*
X6863842Y-14610791D01*
X6866686Y-14609114D01*
X6870700Y-14608556D01*
X6902196Y-14608556D01*
X6905752Y-14609013D01*
X6908444Y-14610435D01*
X6910222Y-14612823D01*
X6911086Y-14616176D01*
X6911086Y-14622018D01*
X6910527Y-14625980D01*
X6908850Y-14628723D01*
X6906056Y-14630400D01*
X6902196Y-14630907D01*
X6870700Y-14630907D01*
X6866686Y-14630400D01*
X6863842Y-14628723D01*
X6862114Y-14625980D01*
X6861556Y-14622018D01*
X6818152Y-14622018D01*
X6818528Y-14628368D01*
X6819646Y-14634768D01*
X6821474Y-14640763D01*
X6824014Y-14646198D01*
X6827215Y-14651177D01*
X6831025Y-14655596D01*
X6835444Y-14659406D01*
X6840423Y-14662607D01*
X6845858Y-14665147D01*
X6851853Y-14666976D01*
X6858253Y-14668093D01*
X6865112Y-14668500D01*
X6879336Y-14668500D01*
X6884822Y-14668246D01*
X6890105Y-14667534D01*
X6895084Y-14666315D01*
X6899808Y-14664639D01*
X6904126Y-14662505D01*
X6908139Y-14659914D01*
X6911746Y-14656917D01*
X6914896Y-14653513D01*
X6921500Y-14668500D01*
X6954520Y-14668500D01*
X6954520Y-14559534D01*
X6954113Y-14552676D01*
X6952996Y-14546275D01*
X6951167Y-14540280D01*
X6948627Y-14534845D01*
X6945426Y-14529866D01*
X6941616Y-14525447D01*
X6937248Y-14521637D01*
X6932320Y-14518436D01*
X6926884Y-14515896D01*
X6920941Y-14514068D01*
X6914591Y-14512950D01*
X6907784Y-14512544D01*
G37*
G36*
X6990588Y-14512544D02*
G01*
X6990588Y-14668500D01*
X7034022Y-14668500D01*
X7034022Y-14557756D01*
X7034733Y-14554403D01*
X7036511Y-14551913D01*
X7039305Y-14550390D01*
X7043166Y-14549882D01*
X7074662Y-14549882D01*
X7078522Y-14550440D01*
X7081316Y-14552168D01*
X7082993Y-14555012D01*
X7083552Y-14559026D01*
X7083552Y-14668500D01*
X7126986Y-14668500D01*
X7126986Y-14559534D01*
X7126579Y-14552676D01*
X7125462Y-14546275D01*
X7123633Y-14540280D01*
X7121093Y-14534845D01*
X7117892Y-14529866D01*
X7114082Y-14525447D01*
X7109663Y-14521637D01*
X7104684Y-14518436D01*
X7099249Y-14515896D01*
X7093254Y-14514068D01*
X7086853Y-14512950D01*
X7079996Y-14512544D01*
X7065772Y-14512544D01*
X7060184Y-14512798D01*
X7054900Y-14513560D01*
X7049973Y-14514830D01*
X7045299Y-14516557D01*
X7040930Y-14518741D01*
X7036968Y-14521332D01*
X7033259Y-14524380D01*
X7029958Y-14527784D01*
X7023608Y-14512544D01*
G37*
G36*
X7451090Y-14512544D02*
G01*
X7451090Y-14668500D01*
X7494524Y-14668500D01*
X7494524Y-14557756D01*
X7495235Y-14554403D01*
X7497013Y-14551913D01*
X7499807Y-14550390D01*
X7503668Y-14549882D01*
X7535164Y-14549882D01*
X7539024Y-14550440D01*
X7541818Y-14552168D01*
X7543495Y-14555012D01*
X7544053Y-14559026D01*
X7544053Y-14668500D01*
X7587488Y-14668500D01*
X7587488Y-14559534D01*
X7587081Y-14552676D01*
X7585964Y-14546275D01*
X7584135Y-14540280D01*
X7581595Y-14534845D01*
X7578394Y-14529866D01*
X7574584Y-14525447D01*
X7570165Y-14521637D01*
X7565186Y-14518436D01*
X7559751Y-14515896D01*
X7553756Y-14514068D01*
X7547356Y-14512950D01*
X7540498Y-14512544D01*
X7526274Y-14512544D01*
X7520686Y-14512798D01*
X7515402Y-14513560D01*
X7510475Y-14514830D01*
X7505801Y-14516557D01*
X7501432Y-14518741D01*
X7497470Y-14521332D01*
X7493762Y-14524380D01*
X7490459Y-14527784D01*
X7484109Y-14512544D01*
G37*
G36*
X7623556Y-14512544D02*
G01*
X7623556Y-14622018D01*
X7666990Y-14622018D01*
X7666990Y-14557756D01*
X7667802Y-14554403D01*
X7669580Y-14551913D01*
X7672324Y-14550390D01*
X7676134Y-14549882D01*
X7707630Y-14549882D01*
X7711490Y-14550440D01*
X7714284Y-14552168D01*
X7715961Y-14555012D01*
X7716520Y-14559026D01*
X7716520Y-14622018D01*
X7715961Y-14625980D01*
X7714284Y-14628723D01*
X7711490Y-14630400D01*
X7707630Y-14630907D01*
X7676134Y-14630907D01*
X7672120Y-14630400D01*
X7669275Y-14628723D01*
X7667548Y-14625980D01*
X7666990Y-14622018D01*
X7623556Y-14622018D01*
X7623556Y-14728444D01*
X7666990Y-14728444D01*
X7666990Y-14657324D01*
X7673594Y-14662200D01*
X7681163Y-14665655D01*
X7689646Y-14667788D01*
X7698994Y-14668500D01*
X7712964Y-14668500D01*
X7719822Y-14668093D01*
X7726273Y-14666976D01*
X7732217Y-14665147D01*
X7737754Y-14662607D01*
X7742732Y-14659406D01*
X7747152Y-14655596D01*
X7751013Y-14651177D01*
X7754213Y-14646198D01*
X7756804Y-14640763D01*
X7758684Y-14634768D01*
X7759801Y-14628368D01*
X7760208Y-14621510D01*
X7760208Y-14559534D01*
X7759801Y-14552676D01*
X7758684Y-14546275D01*
X7756804Y-14540280D01*
X7754213Y-14534845D01*
X7751013Y-14529866D01*
X7747152Y-14525447D01*
X7742732Y-14521637D01*
X7737754Y-14518436D01*
X7732217Y-14515896D01*
X7726273Y-14514068D01*
X7719822Y-14512950D01*
X7712964Y-14512544D01*
X7698994Y-14512544D01*
X7693355Y-14512798D01*
X7688021Y-14513560D01*
X7682992Y-14514830D01*
X7678318Y-14516557D01*
X7673949Y-14518741D01*
X7669936Y-14521332D01*
X7666228Y-14524380D01*
X7662925Y-14527784D01*
X7656575Y-14512544D01*
G37*
G36*
X7792974Y-14512544D02*
G01*
X7792974Y-14621510D01*
X7793380Y-14628368D01*
X7794498Y-14634768D01*
X7796377Y-14640763D01*
X7798968Y-14646198D01*
X7802168Y-14651177D01*
X7806029Y-14655596D01*
X7810449Y-14659406D01*
X7815427Y-14662607D01*
X7820964Y-14665147D01*
X7826908Y-14666976D01*
X7833359Y-14668093D01*
X7840218Y-14668500D01*
X7854188Y-14668500D01*
X7859674Y-14668246D01*
X7864957Y-14667534D01*
X7869986Y-14666315D01*
X7874660Y-14664639D01*
X7879029Y-14662505D01*
X7883093Y-14659914D01*
X7886750Y-14656917D01*
X7890002Y-14653513D01*
X7896606Y-14668500D01*
X7929625Y-14668500D01*
X7929625Y-14512544D01*
X7886192Y-14512544D01*
X7886192Y-14622018D01*
X7885633Y-14625980D01*
X7883906Y-14628723D01*
X7881061Y-14630400D01*
X7877048Y-14630907D01*
X7845552Y-14630907D01*
X7841691Y-14630400D01*
X7838897Y-14628723D01*
X7837220Y-14625980D01*
X7836662Y-14622018D01*
X7836662Y-14512544D01*
G37*
G36*
X8126475Y-14512544D02*
G01*
X8119668Y-14512950D01*
X8113318Y-14514068D01*
X8107324Y-14515896D01*
X8101888Y-14518436D01*
X8096910Y-14521637D01*
X8092490Y-14525447D01*
X8088680Y-14529866D01*
X8085480Y-14534845D01*
X8082889Y-14540280D01*
X8081009Y-14546275D01*
X8079892Y-14552676D01*
X8079486Y-14560550D01*
X8079892Y-14567407D01*
X8081009Y-14573808D01*
X8082889Y-14579803D01*
X8085480Y-14585238D01*
X8088680Y-14590217D01*
X8092490Y-14594636D01*
X8096910Y-14598446D01*
X8101888Y-14601647D01*
X8107324Y-14604187D01*
X8113318Y-14606016D01*
X8119668Y-14607133D01*
X8126475Y-14607540D01*
X8162036Y-14607540D01*
X8166049Y-14608149D01*
X8168894Y-14609978D01*
X8170621Y-14612874D01*
X8171180Y-14616938D01*
X8171180Y-14621763D01*
X8170621Y-14625675D01*
X8168894Y-14628520D01*
X8166049Y-14630298D01*
X8162036Y-14630907D01*
X8130540Y-14630907D01*
X8126679Y-14630400D01*
X8123885Y-14628723D01*
X8122208Y-14625980D01*
X8121650Y-14622018D01*
X8121650Y-14615922D01*
X8078216Y-14615922D01*
X8078216Y-14621510D01*
X8078622Y-14628368D01*
X8079740Y-14634768D01*
X8081568Y-14640763D01*
X8084108Y-14646198D01*
X8087309Y-14651177D01*
X8091119Y-14655596D01*
X8095538Y-14659406D01*
X8100517Y-14662607D01*
X8105952Y-14665147D01*
X8111947Y-14666976D01*
X8118348Y-14668093D01*
X8125206Y-14668500D01*
X8167878Y-14668500D01*
X8174685Y-14668093D01*
X8181035Y-14666976D01*
X8186978Y-14665147D01*
X8192414Y-14662607D01*
X8197342Y-14659406D01*
X8201710Y-14655596D01*
X8205520Y-14651177D01*
X8208721Y-14646198D01*
X8211261Y-14640763D01*
X8213090Y-14634768D01*
X8214207Y-14628368D01*
X8214614Y-14620240D01*
X8214207Y-14613382D01*
X8213090Y-14606930D01*
X8211261Y-14600986D01*
X8208721Y-14595449D01*
X8205520Y-14590471D01*
X8201710Y-14586051D01*
X8197342Y-14582190D01*
X8192414Y-14578990D01*
X8186978Y-14576399D01*
X8181035Y-14574519D01*
X8174685Y-14573402D01*
X8167878Y-14572996D01*
X8132064Y-14572996D01*
X8128203Y-14572488D01*
X8125409Y-14570811D01*
X8123732Y-14568068D01*
X8123174Y-14564106D01*
X8123174Y-14559026D01*
X8123732Y-14555012D01*
X8125409Y-14552168D01*
X8128203Y-14550440D01*
X8132064Y-14549882D01*
X8160512Y-14549882D01*
X8164525Y-14550440D01*
X8167370Y-14552168D01*
X8169097Y-14555012D01*
X8169656Y-14559026D01*
X8169656Y-14565122D01*
X8213090Y-14565122D01*
X8213090Y-14559534D01*
X8212683Y-14552676D01*
X8211566Y-14546275D01*
X8209737Y-14540280D01*
X8207197Y-14534845D01*
X8203996Y-14529866D01*
X8200186Y-14525447D01*
X8195767Y-14521637D01*
X8190788Y-14518436D01*
X8185353Y-14515896D01*
X8179358Y-14514068D01*
X8172958Y-14512950D01*
X8166100Y-14512544D01*
G37*
G36*
X10544556Y-4162298D02*
G01*
X10544556Y-4419092D01*
X10536224Y-4412488D01*
X10527334Y-4406493D01*
X10517936Y-4401058D01*
X10507980Y-4396232D01*
X10497616Y-4392117D01*
X10486694Y-4388662D01*
X10475366Y-4385919D01*
X10463530Y-4383887D01*
X10451287Y-4382668D01*
X10438638Y-4382262D01*
X10385298Y-4382363D01*
X10372852Y-4383125D01*
X10360863Y-4384649D01*
X10349280Y-4386935D01*
X10338155Y-4389882D01*
X10327487Y-4393590D01*
X10317276Y-4397908D01*
X10307624Y-4402937D01*
X10298430Y-4408627D01*
X10289794Y-4414926D01*
X10281716Y-4421835D01*
X10274249Y-4429302D01*
X10267340Y-4437380D01*
X10261041Y-4446016D01*
X10255351Y-4455210D01*
X10250322Y-4464862D01*
X10246004Y-4475073D01*
X10242296Y-4485741D01*
X10239349Y-4496866D01*
X10237063Y-4508449D01*
X10235539Y-4520438D01*
X10234777Y-4532884D01*
X10234708Y-4747260D01*
X10379710Y-4747260D01*
X10379710Y-4537202D01*
X10380167Y-4530140D01*
X10381589Y-4524044D01*
X10383926Y-4518914D01*
X10387177Y-4514697D01*
X10391394Y-4511446D01*
X10396524Y-4509109D01*
X10402620Y-4507687D01*
X10409682Y-4507230D01*
X10514584Y-4507230D01*
X10520984Y-4507636D01*
X10526572Y-4508906D01*
X10531449Y-4510938D01*
X10535564Y-4513783D01*
X10538917Y-4517440D01*
X10541558Y-4521911D01*
X10543438Y-4527143D01*
X10544556Y-4533138D01*
X10544556Y-4752086D01*
X10543438Y-4758029D01*
X10541558Y-4763211D01*
X10538917Y-4767529D01*
X10535564Y-4771034D01*
X10531449Y-4773777D01*
X10526572Y-4775708D01*
X10520984Y-4776825D01*
X10514584Y-4777232D01*
X10409682Y-4777232D01*
X10402620Y-4776774D01*
X10396524Y-4775352D01*
X10391394Y-4773015D01*
X10387177Y-4769764D01*
X10383926Y-4765548D01*
X10381589Y-4760417D01*
X10380167Y-4754321D01*
X10379710Y-4747260D01*
X10234708Y-4747260D01*
X10235082Y-4757826D01*
X10236200Y-4770069D01*
X10238130Y-4781854D01*
X10240721Y-4793234D01*
X10244074Y-4804105D01*
X10248087Y-4814570D01*
X10252760Y-4824476D01*
X10258145Y-4833924D01*
X10264089Y-4842814D01*
X10270693Y-4851146D01*
X10277906Y-4858969D01*
X10285730Y-4866182D01*
X10294061Y-4872786D01*
X10302951Y-4878730D01*
X10312400Y-4884115D01*
X10322306Y-4888788D01*
X10332770Y-4892802D01*
X10343642Y-4896154D01*
X10355021Y-4898745D01*
X10366806Y-4900676D01*
X10379049Y-4901793D01*
X10391648Y-4902200D01*
X10438638Y-4902200D01*
X10446105Y-4902047D01*
X10453420Y-4901641D01*
X10460583Y-4900980D01*
X10467644Y-4900066D01*
X10474553Y-4898898D01*
X10487914Y-4895748D01*
X10494365Y-4893818D01*
X10500614Y-4891633D01*
X10506760Y-4889195D01*
X10512704Y-4886502D01*
X10518444Y-4883607D01*
X10524032Y-4880457D01*
X10529417Y-4877104D01*
X10534599Y-4873498D01*
X10539628Y-4869637D01*
X10544403Y-4865624D01*
X10548975Y-4861356D01*
X10557510Y-4852162D01*
X10579608Y-4902200D01*
X10689590Y-4902200D01*
X10689590Y-4162298D01*
G37*
G36*
X5114544Y-4202176D02*
G01*
X5114544Y-4902200D01*
X5269484Y-4902200D01*
X5269484Y-4487164D01*
X5527548Y-4902200D01*
X5672582Y-4902200D01*
X5672582Y-4202176D01*
X5517642Y-4202176D01*
X5517642Y-4617212D01*
X5259578Y-4202176D01*
G37*
G36*
X5961634Y-4202176D02*
G01*
X5825133Y-4619244D01*
X5976620Y-4619244D01*
X6053582Y-4367276D01*
X6130544Y-4619244D01*
X5825133Y-4619244D01*
X5732526Y-4902200D01*
X5890514Y-4902200D01*
X5935472Y-4754118D01*
X6172708Y-4754118D01*
X6217666Y-4902200D01*
X6380480Y-4902200D01*
X6151626Y-4202176D01*
G37*
G36*
X6440678Y-4202176D02*
G01*
X6440678Y-4902200D01*
X6595618Y-4902200D01*
X6595618Y-4487164D01*
X6853681Y-4902200D01*
X6998716Y-4902200D01*
X6998716Y-4202176D01*
X6843522Y-4202176D01*
X6843522Y-4617212D01*
X6585712Y-4202176D01*
G37*
G36*
X7118603Y-4202176D02*
G01*
X7118603Y-4337304D01*
X7491475Y-4337304D01*
X7498537Y-4337761D01*
X7504684Y-4339183D01*
X7509865Y-4341520D01*
X7514132Y-4344771D01*
X7517434Y-4348988D01*
X7519822Y-4354118D01*
X7521244Y-4360214D01*
X7521702Y-4367276D01*
X7521702Y-4737100D01*
X7521244Y-4744161D01*
X7519822Y-4750308D01*
X7517434Y-4755489D01*
X7514132Y-4759756D01*
X7509865Y-4763058D01*
X7504684Y-4765446D01*
X7498537Y-4766868D01*
X7491475Y-4767326D01*
X7273544Y-4767326D01*
X7273544Y-4337304D01*
X7118603Y-4337304D01*
X7118603Y-4902200D01*
X7526020Y-4902098D01*
X7538466Y-4901336D01*
X7550454Y-4899812D01*
X7562037Y-4897526D01*
X7573162Y-4894580D01*
X7583830Y-4890871D01*
X7594041Y-4886553D01*
X7603693Y-4881524D01*
X7612888Y-4875834D01*
X7621524Y-4869535D01*
X7629601Y-4862626D01*
X7637068Y-4855159D01*
X7643977Y-4847082D01*
X7650276Y-4838446D01*
X7655966Y-4829251D01*
X7660995Y-4819599D01*
X7665313Y-4809388D01*
X7669022Y-4798720D01*
X7671968Y-4787595D01*
X7674254Y-4776012D01*
X7675778Y-4764024D01*
X7676540Y-4751578D01*
X7676642Y-4359148D01*
X7676235Y-4346549D01*
X7675118Y-4334306D01*
X7673187Y-4322521D01*
X7670596Y-4311142D01*
X7667244Y-4300270D01*
X7663230Y-4289806D01*
X7658557Y-4279900D01*
X7653172Y-4270451D01*
X7647228Y-4261561D01*
X7640624Y-4253230D01*
X7633411Y-4245406D01*
X7625588Y-4238193D01*
X7617256Y-4231589D01*
X7608366Y-4225645D01*
X7598918Y-4220260D01*
X7589012Y-4215587D01*
X7578547Y-4211574D01*
X7567675Y-4208221D01*
X7556296Y-4205630D01*
X7544511Y-4203700D01*
X7532268Y-4202582D01*
X7519670Y-4202176D01*
G37*
G36*
X8096503Y-4202176D02*
G01*
X8096503Y-4337304D01*
X8459470Y-4337304D01*
X8466531Y-4337761D01*
X8472678Y-4339183D01*
X8477859Y-4341520D01*
X8482126Y-4344771D01*
X8485428Y-4348988D01*
X8487816Y-4354118D01*
X8489238Y-4360214D01*
X8489696Y-4367276D01*
X8489696Y-4454144D01*
X8489238Y-4461205D01*
X8487816Y-4467301D01*
X8485428Y-4472432D01*
X8482126Y-4476648D01*
X8477859Y-4479899D01*
X8472678Y-4482236D01*
X8466531Y-4483658D01*
X8459470Y-4484116D01*
X8251698Y-4484116D01*
X8251698Y-4337304D01*
X8096503Y-4337304D01*
X8096503Y-4619244D01*
X8459470Y-4619244D01*
X8466531Y-4619701D01*
X8472678Y-4621123D01*
X8477859Y-4623460D01*
X8482126Y-4626711D01*
X8485428Y-4630928D01*
X8487816Y-4636058D01*
X8489238Y-4642154D01*
X8489696Y-4649216D01*
X8489696Y-4737100D01*
X8489238Y-4744161D01*
X8487816Y-4750308D01*
X8485428Y-4755489D01*
X8482126Y-4759756D01*
X8477859Y-4763058D01*
X8472678Y-4765446D01*
X8466531Y-4766868D01*
X8459470Y-4767326D01*
X8251698Y-4767326D01*
X8251698Y-4619244D01*
X8096503Y-4619244D01*
X8096503Y-4902200D01*
X8494014Y-4902098D01*
X8506460Y-4901336D01*
X8518448Y-4899812D01*
X8530031Y-4897526D01*
X8541156Y-4894580D01*
X8551824Y-4890871D01*
X8562035Y-4886553D01*
X8571687Y-4881524D01*
X8580882Y-4875834D01*
X8589518Y-4869535D01*
X8597595Y-4862626D01*
X8605062Y-4855159D01*
X8611971Y-4847082D01*
X8618270Y-4838446D01*
X8623960Y-4829251D01*
X8628989Y-4819599D01*
X8633307Y-4809388D01*
X8637016Y-4798720D01*
X8639962Y-4787595D01*
X8642248Y-4776012D01*
X8643772Y-4764024D01*
X8644534Y-4751578D01*
X8644636Y-4687316D01*
X8644229Y-4674412D01*
X8643010Y-4661916D01*
X8641029Y-4649876D01*
X8638286Y-4638294D01*
X8634780Y-4627168D01*
X8630564Y-4616602D01*
X8625636Y-4606493D01*
X8620048Y-4596993D01*
X8613800Y-4588002D01*
X8606942Y-4579620D01*
X8599474Y-4571796D01*
X8591346Y-4564634D01*
X8582710Y-4558080D01*
X8573516Y-4552188D01*
X8582710Y-4546295D01*
X8591346Y-4539742D01*
X8599474Y-4532579D01*
X8606942Y-4524806D01*
X8613800Y-4516374D01*
X8620048Y-4507433D01*
X8625636Y-4497882D01*
X8630564Y-4487824D01*
X8634780Y-4477258D01*
X8638286Y-4466183D01*
X8641029Y-4454652D01*
X8643010Y-4442612D01*
X8644229Y-4430166D01*
X8644636Y-4417314D01*
X8644534Y-4352798D01*
X8643772Y-4340352D01*
X8642248Y-4328363D01*
X8639962Y-4316780D01*
X8637016Y-4305655D01*
X8633307Y-4294987D01*
X8628989Y-4284776D01*
X8623960Y-4275124D01*
X8618270Y-4265930D01*
X8611971Y-4257294D01*
X8605062Y-4249216D01*
X8597595Y-4241749D01*
X8589518Y-4234840D01*
X8580882Y-4228541D01*
X8571687Y-4222851D01*
X8562035Y-4217822D01*
X8551824Y-4213504D01*
X8541156Y-4209796D01*
X8530031Y-4206849D01*
X8518448Y-4204563D01*
X8506460Y-4203039D01*
X8494014Y-4202277D01*
G37*
G36*
X8890508Y-4382262D02*
G01*
X8878011Y-4382668D01*
X8865920Y-4383786D01*
X8854236Y-4385716D01*
X8842959Y-4388307D01*
X8832138Y-4391660D01*
X8821826Y-4395673D01*
X8811920Y-4400346D01*
X8802573Y-4405731D01*
X8793734Y-4411675D01*
X8785402Y-4418279D01*
X8777681Y-4425492D01*
X8770518Y-4433316D01*
X8767114Y-4437380D01*
X8760866Y-4446016D01*
X8755227Y-4455210D01*
X8750198Y-4464862D01*
X8745829Y-4475073D01*
X8742172Y-4485741D01*
X8739225Y-4496866D01*
X8736939Y-4508449D01*
X8735415Y-4520438D01*
X8734653Y-4532884D01*
X8734584Y-4747260D01*
X8879586Y-4747260D01*
X8879586Y-4537202D01*
X8880043Y-4530140D01*
X8881465Y-4524044D01*
X8883802Y-4518914D01*
X8887053Y-4514697D01*
X8891270Y-4511446D01*
X8896400Y-4509109D01*
X8902496Y-4507687D01*
X8909558Y-4507230D01*
X9014714Y-4507230D01*
X9021673Y-4507687D01*
X9027769Y-4509109D01*
X9032900Y-4511446D01*
X9037116Y-4514697D01*
X9040418Y-4518914D01*
X9042806Y-4524044D01*
X9044228Y-4530140D01*
X9044686Y-4537202D01*
X9044686Y-4747260D01*
X9044228Y-4754321D01*
X9042806Y-4760417D01*
X9040418Y-4765548D01*
X9037116Y-4769764D01*
X9032900Y-4773015D01*
X9027769Y-4775352D01*
X9021673Y-4776774D01*
X9014714Y-4777232D01*
X8909558Y-4777232D01*
X8902496Y-4776774D01*
X8896400Y-4775352D01*
X8891270Y-4773015D01*
X8887053Y-4769764D01*
X8883802Y-4765548D01*
X8881465Y-4760417D01*
X8880043Y-4754321D01*
X8879586Y-4747260D01*
X8734584Y-4747260D01*
X8734958Y-4757826D01*
X8736076Y-4770069D01*
X8738006Y-4781854D01*
X8740597Y-4793234D01*
X8743950Y-4804105D01*
X8745829Y-4809388D01*
X8750198Y-4819599D01*
X8755227Y-4829251D01*
X8760866Y-4838446D01*
X8767114Y-4847082D01*
X8774023Y-4855159D01*
X8781491Y-4862626D01*
X8785402Y-4866182D01*
X8793734Y-4872786D01*
X8802573Y-4878730D01*
X8811920Y-4884115D01*
X8821826Y-4888788D01*
X8832138Y-4892802D01*
X8842959Y-4896154D01*
X8854236Y-4898745D01*
X8865920Y-4900676D01*
X8878011Y-4901793D01*
X8890508Y-4902200D01*
X9038844Y-4902098D01*
X9051290Y-4901336D01*
X9063278Y-4899812D01*
X9074861Y-4897526D01*
X9085986Y-4894580D01*
X9096654Y-4890871D01*
X9106865Y-4886553D01*
X9116517Y-4881524D01*
X9125712Y-4875834D01*
X9134348Y-4869535D01*
X9142425Y-4862626D01*
X9149892Y-4855159D01*
X9156801Y-4847082D01*
X9163100Y-4838446D01*
X9168790Y-4829251D01*
X9173819Y-4819599D01*
X9178137Y-4809388D01*
X9181846Y-4798720D01*
X9184792Y-4787595D01*
X9187078Y-4776012D01*
X9188602Y-4764024D01*
X9189364Y-4751578D01*
X9189466Y-4539234D01*
X9189059Y-4526635D01*
X9187942Y-4514392D01*
X9186011Y-4502607D01*
X9183420Y-4491228D01*
X9180068Y-4480356D01*
X9176054Y-4469892D01*
X9171381Y-4459986D01*
X9165996Y-4450537D01*
X9160052Y-4441647D01*
X9153448Y-4433316D01*
X9146235Y-4425492D01*
X9138412Y-4418279D01*
X9130080Y-4411675D01*
X9121190Y-4405731D01*
X9111742Y-4400346D01*
X9101836Y-4395673D01*
X9091371Y-4391660D01*
X9080500Y-4388307D01*
X9069120Y-4385716D01*
X9057335Y-4383786D01*
X9045092Y-4382668D01*
X9032494Y-4382262D01*
G37*
G36*
X9461500Y-4382262D02*
G01*
X9448901Y-4382668D01*
X9436658Y-4383786D01*
X9424873Y-4385716D01*
X9413494Y-4388307D01*
X9402622Y-4391660D01*
X9392158Y-4395673D01*
X9382252Y-4400346D01*
X9372803Y-4405731D01*
X9363913Y-4411675D01*
X9355582Y-4418279D01*
X9347758Y-4425492D01*
X9340545Y-4433316D01*
X9333941Y-4441647D01*
X9327997Y-4450537D01*
X9322612Y-4459986D01*
X9317939Y-4469892D01*
X9313926Y-4480356D01*
X9310573Y-4491228D01*
X9307982Y-4502607D01*
X9306052Y-4514392D01*
X9304934Y-4526635D01*
X9304528Y-4539234D01*
X9304528Y-4557268D01*
X9449562Y-4557268D01*
X9449562Y-4537202D01*
X9450019Y-4530140D01*
X9451441Y-4524044D01*
X9453778Y-4518914D01*
X9457029Y-4514697D01*
X9461246Y-4511446D01*
X9466376Y-4509109D01*
X9472472Y-4507687D01*
X9479534Y-4507230D01*
X9559544Y-4507230D01*
X9566605Y-4507687D01*
X9572701Y-4509109D01*
X9577832Y-4511446D01*
X9582048Y-4514697D01*
X9585299Y-4518914D01*
X9587636Y-4524044D01*
X9589058Y-4530140D01*
X9589516Y-4537202D01*
X9589516Y-4624324D01*
X9581184Y-4617669D01*
X9572294Y-4611573D01*
X9562896Y-4606137D01*
X9552940Y-4601260D01*
X9542576Y-4597095D01*
X9531654Y-4593640D01*
X9520326Y-4590897D01*
X9508490Y-4588865D01*
X9496247Y-4587646D01*
X9483598Y-4587240D01*
X9430258Y-4587341D01*
X9417812Y-4588103D01*
X9405823Y-4589627D01*
X9394240Y-4591913D01*
X9383115Y-4594860D01*
X9372447Y-4598568D01*
X9362236Y-4602886D01*
X9352584Y-4607915D01*
X9343390Y-4613605D01*
X9334754Y-4619904D01*
X9326676Y-4626813D01*
X9319209Y-4634280D01*
X9312300Y-4642358D01*
X9306001Y-4650994D01*
X9300311Y-4660188D01*
X9295282Y-4669840D01*
X9290964Y-4680051D01*
X9287256Y-4690719D01*
X9284309Y-4701844D01*
X9282023Y-4713427D01*
X9280499Y-4725416D01*
X9279737Y-4737862D01*
X9279668Y-4747260D01*
X9424670Y-4747260D01*
X9424670Y-4732274D01*
X9425127Y-4725212D01*
X9426549Y-4719116D01*
X9428886Y-4713986D01*
X9432137Y-4709769D01*
X9436354Y-4706518D01*
X9441484Y-4704181D01*
X9447580Y-4702759D01*
X9454642Y-4702302D01*
X9559544Y-4702302D01*
X9565944Y-4702708D01*
X9571532Y-4703978D01*
X9576409Y-4706010D01*
X9580524Y-4708855D01*
X9583877Y-4712512D01*
X9586518Y-4716983D01*
X9588398Y-4722215D01*
X9589516Y-4728210D01*
X9589516Y-4747260D01*
X9589058Y-4754321D01*
X9587636Y-4760417D01*
X9585299Y-4765548D01*
X9582048Y-4769764D01*
X9577832Y-4773015D01*
X9572701Y-4775352D01*
X9566605Y-4776774D01*
X9559544Y-4777232D01*
X9454642Y-4777232D01*
X9447580Y-4776774D01*
X9441484Y-4775352D01*
X9436354Y-4773015D01*
X9432137Y-4769764D01*
X9428886Y-4765548D01*
X9426549Y-4760417D01*
X9425127Y-4754321D01*
X9424670Y-4747260D01*
X9279668Y-4747260D01*
X9280042Y-4757826D01*
X9281160Y-4770069D01*
X9283090Y-4781854D01*
X9285681Y-4793234D01*
X9289034Y-4804105D01*
X9293047Y-4814570D01*
X9297720Y-4824476D01*
X9303105Y-4833924D01*
X9309049Y-4842814D01*
X9315653Y-4851146D01*
X9322866Y-4858969D01*
X9330690Y-4866182D01*
X9339021Y-4872786D01*
X9347911Y-4878730D01*
X9357360Y-4884115D01*
X9367266Y-4888788D01*
X9377730Y-4892802D01*
X9388602Y-4896154D01*
X9399981Y-4898745D01*
X9411766Y-4900676D01*
X9424009Y-4901793D01*
X9436608Y-4902200D01*
X9483598Y-4902200D01*
X9491065Y-4902047D01*
X9498380Y-4901641D01*
X9505543Y-4900980D01*
X9512604Y-4900066D01*
X9519513Y-4898898D01*
X9532874Y-4895748D01*
X9539325Y-4893818D01*
X9545574Y-4891633D01*
X9551720Y-4889195D01*
X9557664Y-4886502D01*
X9563404Y-4883607D01*
X9568992Y-4880457D01*
X9574377Y-4877104D01*
X9579559Y-4873498D01*
X9584588Y-4869637D01*
X9589363Y-4865624D01*
X9593935Y-4861356D01*
X9602470Y-4852162D01*
X9624568Y-4902200D01*
X9734550Y-4902200D01*
X9734448Y-4532884D01*
X9733686Y-4520438D01*
X9732162Y-4508449D01*
X9729876Y-4496866D01*
X9726930Y-4485741D01*
X9723272Y-4475073D01*
X9718903Y-4464862D01*
X9713874Y-4455210D01*
X9708235Y-4446016D01*
X9701987Y-4437380D01*
X9695078Y-4429302D01*
X9687610Y-4421835D01*
X9683699Y-4418279D01*
X9675368Y-4411675D01*
X9666528Y-4405731D01*
X9657181Y-4400346D01*
X9647275Y-4395673D01*
X9636963Y-4391660D01*
X9626142Y-4388307D01*
X9614865Y-4385716D01*
X9603181Y-4383786D01*
X9591090Y-4382668D01*
X9578594Y-4382262D01*
G37*
G36*
X9854692Y-4382262D02*
G01*
X9854692Y-4902200D01*
X9999472Y-4902200D01*
X9999472Y-4533138D01*
X10000284Y-4527143D01*
X10001961Y-4521911D01*
X10004450Y-4517440D01*
X10007803Y-4513783D01*
X10012019Y-4510938D01*
X10017099Y-4508906D01*
X10022992Y-4507636D01*
X10029698Y-4507230D01*
X10184638Y-4507230D01*
X10184638Y-4382262D01*
X10105644Y-4382262D01*
X10098074Y-4382414D01*
X10090658Y-4382820D01*
X10083342Y-4383532D01*
X10076230Y-4384497D01*
X10069322Y-4385716D01*
X10062514Y-4387240D01*
X10049408Y-4390999D01*
X10043109Y-4393285D01*
X10037013Y-4395774D01*
X10031069Y-4398518D01*
X10019639Y-4404715D01*
X10008971Y-4411827D01*
X9999014Y-4419803D01*
X9989820Y-4428591D01*
X9985502Y-4433316D01*
X9964674Y-4382262D01*
G37*
G36*
X6203188Y-13062204D02*
G01*
X6203188Y-13105638D01*
X6246622Y-13105638D01*
X6246622Y-13062204D01*
G37*
G36*
X6618478Y-13062204D02*
G01*
X6618478Y-13284200D01*
X6662166Y-13284200D01*
X6662166Y-13062204D01*
G37*
G36*
X7549388Y-13073126D02*
G01*
X7505953Y-13086080D01*
X7505953Y-13128244D01*
X7469886Y-13128244D01*
X7469886Y-13165582D01*
X7505953Y-13165582D01*
X7505953Y-13284200D01*
X7549388Y-13284200D01*
X7549388Y-13165582D01*
X7585456Y-13165582D01*
X7585456Y-13128244D01*
X7549388Y-13128244D01*
G37*
G36*
X8007096Y-13073126D02*
G01*
X7963408Y-13086080D01*
X7963408Y-13128244D01*
X7927594Y-13128244D01*
X7927594Y-13165582D01*
X7963408Y-13165582D01*
X7963408Y-13284200D01*
X8007096Y-13284200D01*
X8007096Y-13165582D01*
X8042909Y-13165582D01*
X8042909Y-13128244D01*
X8007096Y-13128244D01*
G37*
G36*
X5999734Y-13074142D02*
G01*
X5999734Y-13114782D01*
X6111494Y-13114782D01*
X6115507Y-13115290D01*
X6118352Y-13116915D01*
X6120079Y-13119709D01*
X6120638Y-13123672D01*
X6120638Y-13234669D01*
X6120079Y-13238683D01*
X6118352Y-13241528D01*
X6115507Y-13243255D01*
X6111494Y-13243813D01*
X6046216Y-13243813D01*
X6046216Y-13114782D01*
X5999734Y-13114782D01*
X5999734Y-13284200D01*
X6119876Y-13284200D01*
X6126784Y-13283793D01*
X6133236Y-13282676D01*
X6139281Y-13280847D01*
X6144768Y-13278307D01*
X6149746Y-13275106D01*
X6154166Y-13271296D01*
X6157976Y-13266877D01*
X6161176Y-13261898D01*
X6163716Y-13256463D01*
X6165596Y-13250468D01*
X6166713Y-13244068D01*
X6167120Y-13237210D01*
X6167120Y-13121386D01*
X6166713Y-13114528D01*
X6165596Y-13108076D01*
X6163716Y-13102132D01*
X6161176Y-13096595D01*
X6157976Y-13091617D01*
X6154166Y-13087197D01*
X6149746Y-13083336D01*
X6144768Y-13080136D01*
X6139281Y-13077545D01*
X6133236Y-13075665D01*
X6126784Y-13074548D01*
X6119876Y-13074142D01*
G37*
G36*
X7158990Y-13074142D02*
G01*
X7152182Y-13074548D01*
X7145832Y-13075665D01*
X7139838Y-13077545D01*
X7134402Y-13080136D01*
X7129424Y-13083336D01*
X7125004Y-13087197D01*
X7121194Y-13091617D01*
X7117994Y-13096595D01*
X7115403Y-13102132D01*
X7113524Y-13108076D01*
X7112406Y-13114528D01*
X7112000Y-13121386D01*
X7112000Y-13234669D01*
X7158481Y-13234669D01*
X7158481Y-13123672D01*
X7159040Y-13119709D01*
X7160768Y-13116915D01*
X7163612Y-13115290D01*
X7167625Y-13114782D01*
X7224014Y-13114782D01*
X7227976Y-13115290D01*
X7230770Y-13116915D01*
X7232396Y-13119709D01*
X7232903Y-13123672D01*
X7232903Y-13234669D01*
X7232396Y-13238683D01*
X7230719Y-13241528D01*
X7227976Y-13243255D01*
X7224014Y-13243813D01*
X7167625Y-13243813D01*
X7163612Y-13243255D01*
X7160768Y-13241528D01*
X7159040Y-13238683D01*
X7158481Y-13234669D01*
X7112000Y-13234669D01*
X7112406Y-13244068D01*
X7113524Y-13250468D01*
X7115403Y-13256463D01*
X7117994Y-13261898D01*
X7121194Y-13266877D01*
X7125004Y-13271296D01*
X7129424Y-13275106D01*
X7134402Y-13278307D01*
X7139838Y-13280847D01*
X7145832Y-13282676D01*
X7152182Y-13283793D01*
X7158990Y-13284200D01*
X7232396Y-13284200D01*
X7239253Y-13283793D01*
X7245654Y-13282676D01*
X7251649Y-13280847D01*
X7257084Y-13278307D01*
X7262063Y-13275106D01*
X7266482Y-13271296D01*
X7270292Y-13266877D01*
X7273493Y-13261898D01*
X7276033Y-13256463D01*
X7277862Y-13250468D01*
X7278979Y-13244068D01*
X7279386Y-13237210D01*
X7279386Y-13121386D01*
X7278979Y-13114528D01*
X7277862Y-13108076D01*
X7276033Y-13102132D01*
X7273493Y-13096595D01*
X7270292Y-13091617D01*
X7266482Y-13087197D01*
X7262063Y-13083336D01*
X7257084Y-13080136D01*
X7251649Y-13077545D01*
X7245654Y-13075665D01*
X7239253Y-13074548D01*
X7232396Y-13074142D01*
G37*
G36*
X6203188Y-13128244D02*
G01*
X6203188Y-13284200D01*
X6246622Y-13284200D01*
X6246622Y-13128244D01*
G37*
G36*
X6327902Y-13128244D02*
G01*
X6321094Y-13128650D01*
X6314744Y-13129768D01*
X6308801Y-13131596D01*
X6303365Y-13134136D01*
X6298438Y-13137337D01*
X6294069Y-13141147D01*
X6290259Y-13145566D01*
X6287058Y-13150545D01*
X6284518Y-13155980D01*
X6282690Y-13161975D01*
X6281572Y-13168376D01*
X6281166Y-13176250D01*
X6281572Y-13183107D01*
X6282690Y-13189508D01*
X6284518Y-13195503D01*
X6287058Y-13200938D01*
X6290259Y-13205917D01*
X6294069Y-13210336D01*
X6298438Y-13214146D01*
X6303365Y-13217347D01*
X6308801Y-13219887D01*
X6314744Y-13221716D01*
X6321094Y-13222833D01*
X6327902Y-13223240D01*
X6363716Y-13223240D01*
X6367576Y-13223849D01*
X6370370Y-13225678D01*
X6372047Y-13228574D01*
X6372606Y-13232638D01*
X6372606Y-13237463D01*
X6372047Y-13241375D01*
X6370370Y-13244220D01*
X6367576Y-13245998D01*
X6363716Y-13246607D01*
X6332220Y-13246607D01*
X6328206Y-13246100D01*
X6325362Y-13244423D01*
X6323634Y-13241680D01*
X6323076Y-13237718D01*
X6323076Y-13231622D01*
X6279642Y-13231622D01*
X6279642Y-13237210D01*
X6280048Y-13244068D01*
X6281166Y-13250468D01*
X6282994Y-13256463D01*
X6285534Y-13261898D01*
X6288735Y-13266877D01*
X6292545Y-13271296D01*
X6296964Y-13275106D01*
X6301943Y-13278307D01*
X6307378Y-13280847D01*
X6313373Y-13282676D01*
X6319774Y-13283793D01*
X6326632Y-13284200D01*
X6369304Y-13284200D01*
X6376111Y-13283793D01*
X6382461Y-13282676D01*
X6388404Y-13280847D01*
X6393840Y-13278307D01*
X6398768Y-13275106D01*
X6403136Y-13271296D01*
X6406946Y-13266877D01*
X6410147Y-13261898D01*
X6412687Y-13256463D01*
X6414516Y-13250468D01*
X6415633Y-13244068D01*
X6416040Y-13235940D01*
X6415633Y-13229082D01*
X6414516Y-13222630D01*
X6412687Y-13216686D01*
X6410147Y-13211149D01*
X6406946Y-13206171D01*
X6403136Y-13201751D01*
X6398768Y-13197890D01*
X6393840Y-13194690D01*
X6388404Y-13192099D01*
X6382461Y-13190219D01*
X6376111Y-13189102D01*
X6369304Y-13188696D01*
X6333490Y-13188696D01*
X6329629Y-13188188D01*
X6326835Y-13186511D01*
X6325158Y-13183768D01*
X6324600Y-13179806D01*
X6324600Y-13174726D01*
X6325158Y-13170712D01*
X6326835Y-13167868D01*
X6329629Y-13166140D01*
X6333490Y-13165582D01*
X6362192Y-13165582D01*
X6366052Y-13166140D01*
X6368846Y-13167868D01*
X6370523Y-13170712D01*
X6371082Y-13174726D01*
X6371082Y-13180822D01*
X6414516Y-13180822D01*
X6414516Y-13175234D01*
X6414109Y-13168376D01*
X6412992Y-13161975D01*
X6411163Y-13155980D01*
X6408623Y-13150545D01*
X6405422Y-13145566D01*
X6401612Y-13141147D01*
X6397193Y-13137337D01*
X6392214Y-13134136D01*
X6386779Y-13131596D01*
X6380784Y-13129768D01*
X6374384Y-13128650D01*
X6367526Y-13128244D01*
G37*
G36*
X6449060Y-13128244D02*
G01*
X6449060Y-13237718D01*
X6492494Y-13237718D01*
X6492494Y-13173456D01*
X6493306Y-13170103D01*
X6495084Y-13167613D01*
X6497828Y-13166090D01*
X6501638Y-13165582D01*
X6533134Y-13165582D01*
X6536994Y-13166140D01*
X6539788Y-13167868D01*
X6541465Y-13170712D01*
X6542024Y-13174726D01*
X6542024Y-13237718D01*
X6541465Y-13241680D01*
X6539788Y-13244423D01*
X6536994Y-13246100D01*
X6533134Y-13246607D01*
X6501638Y-13246607D01*
X6497624Y-13246100D01*
X6494780Y-13244423D01*
X6493052Y-13241680D01*
X6492494Y-13237718D01*
X6449060Y-13237718D01*
X6449060Y-13344144D01*
X6492494Y-13344144D01*
X6492494Y-13273024D01*
X6499098Y-13277900D01*
X6506667Y-13281355D01*
X6515150Y-13283488D01*
X6524498Y-13284200D01*
X6538468Y-13284200D01*
X6545326Y-13283793D01*
X6551777Y-13282676D01*
X6557721Y-13280847D01*
X6563258Y-13278307D01*
X6568236Y-13275106D01*
X6572656Y-13271296D01*
X6576517Y-13266877D01*
X6579717Y-13261898D01*
X6582308Y-13256463D01*
X6584188Y-13250468D01*
X6585305Y-13244068D01*
X6585712Y-13237210D01*
X6585712Y-13175234D01*
X6585305Y-13168376D01*
X6584188Y-13161975D01*
X6582308Y-13155980D01*
X6579717Y-13150545D01*
X6576517Y-13145566D01*
X6572656Y-13141147D01*
X6568236Y-13137337D01*
X6563258Y-13134136D01*
X6557721Y-13131596D01*
X6551777Y-13129768D01*
X6545326Y-13128650D01*
X6538468Y-13128244D01*
X6524498Y-13128244D01*
X6518859Y-13128498D01*
X6513525Y-13129260D01*
X6508496Y-13130530D01*
X6503822Y-13132257D01*
X6499453Y-13134441D01*
X6495440Y-13137032D01*
X6491732Y-13140080D01*
X6488430Y-13143484D01*
X6482080Y-13128244D01*
G37*
G36*
X6746748Y-13128244D02*
G01*
X6739890Y-13128650D01*
X6733438Y-13129768D01*
X6727494Y-13131596D01*
X6721957Y-13134136D01*
X6716979Y-13137337D01*
X6712559Y-13141147D01*
X6708698Y-13145566D01*
X6705498Y-13150545D01*
X6702907Y-13155980D01*
X6701028Y-13161975D01*
X6699910Y-13168376D01*
X6699503Y-13175234D01*
X6699503Y-13180822D01*
X6743192Y-13180822D01*
X6743192Y-13174726D01*
X6743700Y-13170712D01*
X6745325Y-13167868D01*
X6748119Y-13166140D01*
X6752081Y-13165582D01*
X6776212Y-13165582D01*
X6780072Y-13166140D01*
X6782866Y-13167868D01*
X6784543Y-13170712D01*
X6785102Y-13174726D01*
X6785102Y-13200888D01*
X6778548Y-13196163D01*
X6771030Y-13192607D01*
X6762648Y-13190474D01*
X6753352Y-13189712D01*
X6739128Y-13189712D01*
X6732270Y-13190118D01*
X6725869Y-13191236D01*
X6719874Y-13193064D01*
X6714439Y-13195604D01*
X6709460Y-13198805D01*
X6705041Y-13202615D01*
X6701231Y-13207034D01*
X6698030Y-13212013D01*
X6695490Y-13217448D01*
X6693662Y-13223443D01*
X6692544Y-13229844D01*
X6692168Y-13237718D01*
X6735572Y-13237718D01*
X6735572Y-13233146D01*
X6736130Y-13229285D01*
X6737858Y-13226491D01*
X6740702Y-13224814D01*
X6744716Y-13224256D01*
X6776212Y-13224256D01*
X6779768Y-13224713D01*
X6782460Y-13226135D01*
X6784238Y-13228523D01*
X6785102Y-13231876D01*
X6785102Y-13237718D01*
X6784543Y-13241680D01*
X6782866Y-13244423D01*
X6780072Y-13246100D01*
X6776212Y-13246607D01*
X6744716Y-13246607D01*
X6740702Y-13246100D01*
X6737858Y-13244423D01*
X6736130Y-13241680D01*
X6735572Y-13237718D01*
X6692168Y-13237718D01*
X6692544Y-13244068D01*
X6693662Y-13250468D01*
X6695490Y-13256463D01*
X6698030Y-13261898D01*
X6701231Y-13266877D01*
X6705041Y-13271296D01*
X6709460Y-13275106D01*
X6714439Y-13278307D01*
X6719874Y-13280847D01*
X6725869Y-13282676D01*
X6732270Y-13283793D01*
X6739128Y-13284200D01*
X6753352Y-13284200D01*
X6758838Y-13283946D01*
X6764070Y-13283234D01*
X6769049Y-13282015D01*
X6773722Y-13280339D01*
X6778040Y-13278205D01*
X6782053Y-13275614D01*
X6785660Y-13272617D01*
X6788912Y-13269213D01*
X6795516Y-13284200D01*
X6828536Y-13284200D01*
X6828536Y-13175234D01*
X6828129Y-13168376D01*
X6827012Y-13161975D01*
X6825183Y-13155980D01*
X6822643Y-13150545D01*
X6819442Y-13145566D01*
X6815632Y-13141147D01*
X6811264Y-13137337D01*
X6806336Y-13134136D01*
X6800900Y-13131596D01*
X6794957Y-13129768D01*
X6788607Y-13128650D01*
X6781800Y-13128244D01*
G37*
G36*
X6846570Y-13128244D02*
G01*
X6899402Y-13284200D01*
X6904736Y-13284200D01*
X6884416Y-13344144D01*
X6930898Y-13344144D01*
X7004050Y-13128244D01*
X6960616Y-13128244D01*
X6927088Y-13235686D01*
X6893052Y-13128244D01*
G37*
G36*
X7315453Y-13128244D02*
G01*
X7315453Y-13237210D01*
X7315860Y-13244068D01*
X7316978Y-13250468D01*
X7318857Y-13256463D01*
X7321448Y-13261898D01*
X7324648Y-13266877D01*
X7328509Y-13271296D01*
X7332929Y-13275106D01*
X7337907Y-13278307D01*
X7343444Y-13280847D01*
X7349388Y-13282676D01*
X7355840Y-13283793D01*
X7362698Y-13284200D01*
X7376668Y-13284200D01*
X7382154Y-13283946D01*
X7387437Y-13283234D01*
X7392466Y-13282015D01*
X7397140Y-13280339D01*
X7401509Y-13278205D01*
X7405573Y-13275614D01*
X7409230Y-13272617D01*
X7412481Y-13269213D01*
X7419086Y-13284200D01*
X7452106Y-13284200D01*
X7452106Y-13128244D01*
X7408418Y-13128244D01*
X7408418Y-13237718D01*
X7407909Y-13241680D01*
X7406284Y-13244423D01*
X7403490Y-13246100D01*
X7399528Y-13246607D01*
X7368031Y-13246607D01*
X7364018Y-13246100D01*
X7361174Y-13244423D01*
X7359446Y-13241680D01*
X7358888Y-13237718D01*
X7358888Y-13128244D01*
G37*
G36*
X7603490Y-13128244D02*
G01*
X7603490Y-13237718D01*
X7646924Y-13237718D01*
X7646924Y-13173456D01*
X7647635Y-13170103D01*
X7649413Y-13167613D01*
X7652207Y-13166090D01*
X7656068Y-13165582D01*
X7687564Y-13165582D01*
X7691424Y-13166140D01*
X7694218Y-13167868D01*
X7695895Y-13170712D01*
X7696453Y-13174726D01*
X7696453Y-13237718D01*
X7695895Y-13241680D01*
X7694218Y-13244423D01*
X7691424Y-13246100D01*
X7687564Y-13246607D01*
X7656068Y-13246607D01*
X7652054Y-13246100D01*
X7649209Y-13244423D01*
X7647482Y-13241680D01*
X7646924Y-13237718D01*
X7603490Y-13237718D01*
X7603490Y-13344144D01*
X7646924Y-13344144D01*
X7646924Y-13273024D01*
X7653528Y-13277900D01*
X7661097Y-13281355D01*
X7669479Y-13283488D01*
X7678674Y-13284200D01*
X7692898Y-13284200D01*
X7699756Y-13283793D01*
X7706156Y-13282676D01*
X7712151Y-13280847D01*
X7717586Y-13278307D01*
X7722565Y-13275106D01*
X7726984Y-13271296D01*
X7730794Y-13266877D01*
X7733995Y-13261898D01*
X7736535Y-13256463D01*
X7738364Y-13250468D01*
X7739481Y-13244068D01*
X7739888Y-13237210D01*
X7739888Y-13175234D01*
X7739481Y-13168376D01*
X7738364Y-13161975D01*
X7736535Y-13155980D01*
X7733995Y-13150545D01*
X7730794Y-13145566D01*
X7726984Y-13141147D01*
X7722565Y-13137337D01*
X7717586Y-13134136D01*
X7712151Y-13131596D01*
X7706156Y-13129768D01*
X7699756Y-13128650D01*
X7692898Y-13128244D01*
X7678674Y-13128244D01*
X7673086Y-13128498D01*
X7667802Y-13129260D01*
X7662875Y-13130530D01*
X7658201Y-13132257D01*
X7653832Y-13134441D01*
X7649870Y-13137032D01*
X7646162Y-13140080D01*
X7642859Y-13143484D01*
X7636509Y-13128244D01*
G37*
G36*
X7772908Y-13128244D02*
G01*
X7772908Y-13237210D01*
X7773314Y-13244068D01*
X7774431Y-13250468D01*
X7776311Y-13256463D01*
X7778902Y-13261898D01*
X7782102Y-13266877D01*
X7785963Y-13271296D01*
X7790383Y-13275106D01*
X7795361Y-13278307D01*
X7800898Y-13280847D01*
X7806842Y-13282676D01*
X7813294Y-13283793D01*
X7820152Y-13284200D01*
X7834122Y-13284200D01*
X7839608Y-13283946D01*
X7844891Y-13283234D01*
X7849920Y-13282015D01*
X7854594Y-13280339D01*
X7858963Y-13278205D01*
X7863027Y-13275614D01*
X7866684Y-13272617D01*
X7869936Y-13269213D01*
X7876540Y-13284200D01*
X7909559Y-13284200D01*
X7909559Y-13128244D01*
X7865872Y-13128244D01*
X7865872Y-13237718D01*
X7865364Y-13241680D01*
X7863738Y-13244423D01*
X7860944Y-13246100D01*
X7856981Y-13246607D01*
X7825486Y-13246607D01*
X7821523Y-13246100D01*
X7818729Y-13244423D01*
X7817103Y-13241680D01*
X7816596Y-13237718D01*
X7816596Y-13128244D01*
G37*
G36*
X8106409Y-13128244D02*
G01*
X8099602Y-13128650D01*
X8093252Y-13129768D01*
X8087258Y-13131596D01*
X8081822Y-13134136D01*
X8076844Y-13137337D01*
X8072424Y-13141147D01*
X8068614Y-13145566D01*
X8065414Y-13150545D01*
X8062823Y-13155980D01*
X8060944Y-13161975D01*
X8059826Y-13168376D01*
X8059420Y-13176250D01*
X8059826Y-13183107D01*
X8060944Y-13189508D01*
X8062823Y-13195503D01*
X8065414Y-13200938D01*
X8068614Y-13205917D01*
X8072424Y-13210336D01*
X8076844Y-13214146D01*
X8081822Y-13217347D01*
X8087258Y-13219887D01*
X8093252Y-13221716D01*
X8099602Y-13222833D01*
X8106409Y-13223240D01*
X8141970Y-13223240D01*
X8145983Y-13223849D01*
X8148828Y-13225678D01*
X8150555Y-13228574D01*
X8151114Y-13232638D01*
X8151114Y-13237463D01*
X8150555Y-13241375D01*
X8148828Y-13244220D01*
X8145983Y-13245998D01*
X8141970Y-13246607D01*
X8110474Y-13246607D01*
X8106511Y-13246100D01*
X8103768Y-13244423D01*
X8102092Y-13241680D01*
X8101584Y-13237718D01*
X8101584Y-13231622D01*
X8057896Y-13231622D01*
X8057896Y-13237210D01*
X8058302Y-13244068D01*
X8059420Y-13250468D01*
X8061299Y-13256463D01*
X8063890Y-13261898D01*
X8067090Y-13266877D01*
X8070951Y-13271296D01*
X8075371Y-13275106D01*
X8080349Y-13278307D01*
X8085886Y-13280847D01*
X8091830Y-13282676D01*
X8098281Y-13283793D01*
X8105140Y-13284200D01*
X8147812Y-13284200D01*
X8154568Y-13283793D01*
X8160867Y-13282676D01*
X8166811Y-13280847D01*
X8172246Y-13278307D01*
X8177174Y-13275106D01*
X8181543Y-13271296D01*
X8185403Y-13266877D01*
X8188604Y-13261898D01*
X8191144Y-13256463D01*
X8193024Y-13250468D01*
X8194141Y-13244068D01*
X8194548Y-13235940D01*
X8194141Y-13229082D01*
X8193024Y-13222630D01*
X8191144Y-13216686D01*
X8188604Y-13211149D01*
X8185403Y-13206171D01*
X8181543Y-13201751D01*
X8177174Y-13197890D01*
X8172246Y-13194690D01*
X8166811Y-13192099D01*
X8160867Y-13190219D01*
X8154568Y-13189102D01*
X8147812Y-13188696D01*
X8111998Y-13188696D01*
X8108035Y-13188188D01*
X8105241Y-13186511D01*
X8103616Y-13183768D01*
X8103108Y-13179806D01*
X8103108Y-13174726D01*
X8103616Y-13170712D01*
X8105292Y-13167868D01*
X8108035Y-13166140D01*
X8111998Y-13165582D01*
X8140446Y-13165582D01*
X8144459Y-13166140D01*
X8147303Y-13167868D01*
X8149031Y-13170712D01*
X8149590Y-13174726D01*
X8149590Y-13180822D01*
X8193024Y-13180822D01*
X8193024Y-13175234D01*
X8192617Y-13168376D01*
X8191500Y-13161975D01*
X8189620Y-13155980D01*
X8187029Y-13150545D01*
X8183829Y-13145566D01*
X8179968Y-13141147D01*
X8175548Y-13137337D01*
X8170570Y-13134136D01*
X8165033Y-13131596D01*
X8159089Y-13129768D01*
X8152638Y-13128650D01*
X8145780Y-13128244D01*
G37*
G36*
X792734Y-10534142D02*
G01*
X792734Y-10744200D01*
X839216Y-10744200D01*
X839216Y-10619740D01*
X916686Y-10744200D01*
X960119Y-10744200D01*
X960119Y-10534142D01*
X913637Y-10534142D01*
X913637Y-10658602D01*
X836168Y-10534142D01*
G37*
G36*
X1046734Y-10534142D02*
G01*
X1005851Y-10659364D01*
X1051306Y-10659364D01*
X1074420Y-10583672D01*
X1097534Y-10659364D01*
X1005851Y-10659364D01*
X978153Y-10744200D01*
X1025398Y-10744200D01*
X1039114Y-10699750D01*
X1109980Y-10699750D01*
X1123696Y-10744200D01*
X1172464Y-10744200D01*
X1103884Y-10534142D01*
G37*
G36*
X1190498Y-10534142D02*
G01*
X1190498Y-10744200D01*
X1236980Y-10744200D01*
X1236980Y-10619740D01*
X1314450Y-10744200D01*
X1357884Y-10744200D01*
X1357884Y-10534142D01*
X1311402Y-10534142D01*
X1311402Y-10658602D01*
X1233932Y-10534142D01*
G37*
G36*
X1393952Y-10534142D02*
G01*
X1393952Y-10574782D01*
X1505712Y-10574782D01*
X1509725Y-10575290D01*
X1512570Y-10576915D01*
X1514297Y-10579709D01*
X1514856Y-10583672D01*
X1514856Y-10694670D01*
X1514297Y-10698683D01*
X1512570Y-10701528D01*
X1509725Y-10703255D01*
X1505712Y-10703814D01*
X1440434Y-10703814D01*
X1440434Y-10574782D01*
X1393952Y-10574782D01*
X1393952Y-10744200D01*
X1514094Y-10744200D01*
X1520952Y-10743793D01*
X1527403Y-10742676D01*
X1533347Y-10740847D01*
X1538884Y-10738307D01*
X1543862Y-10735106D01*
X1548282Y-10731296D01*
X1552143Y-10726877D01*
X1555343Y-10721898D01*
X1557934Y-10716463D01*
X1559814Y-10710468D01*
X1560931Y-10704068D01*
X1561338Y-10697210D01*
X1561338Y-10581386D01*
X1560931Y-10574528D01*
X1559814Y-10568076D01*
X1557934Y-10562132D01*
X1555343Y-10556595D01*
X1552143Y-10551617D01*
X1548282Y-10547197D01*
X1543862Y-10543336D01*
X1538884Y-10540136D01*
X1533347Y-10537545D01*
X1527403Y-10535666D01*
X1520952Y-10534548D01*
X1514094Y-10534142D01*
G37*
G36*
X1734057Y-10534142D02*
G01*
X1727250Y-10534548D01*
X1720900Y-10535666D01*
X1714957Y-10537545D01*
X1709521Y-10540136D01*
X1704593Y-10543336D01*
X1700225Y-10547197D01*
X1696415Y-10551617D01*
X1693214Y-10556595D01*
X1690674Y-10562132D01*
X1688846Y-10568076D01*
X1687728Y-10574528D01*
X1687322Y-10581386D01*
X1687322Y-10697210D01*
X1687728Y-10704068D01*
X1688846Y-10710468D01*
X1690674Y-10716463D01*
X1693214Y-10721898D01*
X1696415Y-10726877D01*
X1700225Y-10731296D01*
X1704593Y-10735106D01*
X1709521Y-10738307D01*
X1714957Y-10740847D01*
X1720900Y-10742676D01*
X1727250Y-10743793D01*
X1734057Y-10744200D01*
X1777492Y-10744200D01*
X1783181Y-10743946D01*
X1788566Y-10743184D01*
X1793646Y-10741914D01*
X1798421Y-10740186D01*
X1802841Y-10737951D01*
X1806905Y-10735310D01*
X1810562Y-10732211D01*
X1813814Y-10728706D01*
X1820418Y-10744200D01*
X1854707Y-10744200D01*
X1854707Y-10627868D01*
X1763775Y-10627868D01*
X1763775Y-10668254D01*
X1808225Y-10668254D01*
X1808225Y-10694670D01*
X1807667Y-10698683D01*
X1805939Y-10701528D01*
X1803095Y-10703255D01*
X1799082Y-10703814D01*
X1742693Y-10703814D01*
X1738833Y-10703255D01*
X1736039Y-10701528D01*
X1734362Y-10698683D01*
X1733804Y-10694670D01*
X1733804Y-10583672D01*
X1734362Y-10579709D01*
X1736039Y-10576915D01*
X1738833Y-10575290D01*
X1742693Y-10574782D01*
X1799082Y-10574782D01*
X1803095Y-10575290D01*
X1805939Y-10576915D01*
X1807667Y-10579709D01*
X1808225Y-10583672D01*
X1808225Y-10603230D01*
X1854707Y-10603230D01*
X1854707Y-10581386D01*
X1854301Y-10574528D01*
X1853184Y-10568076D01*
X1851355Y-10562132D01*
X1848815Y-10556595D01*
X1845614Y-10551617D01*
X1841804Y-10547197D01*
X1837385Y-10543336D01*
X1832406Y-10540136D01*
X1826971Y-10537545D01*
X1820976Y-10535666D01*
X1814575Y-10534548D01*
X1807718Y-10534142D01*
G37*
G36*
X2656840Y-10534142D02*
G01*
X2615957Y-10659364D01*
X2661412Y-10659364D01*
X2684526Y-10583672D01*
X2707640Y-10659364D01*
X2615957Y-10659364D01*
X2588260Y-10744200D01*
X2635504Y-10744200D01*
X2649220Y-10699750D01*
X2720086Y-10699750D01*
X2733802Y-10744200D01*
X2782570Y-10744200D01*
X2713990Y-10534142D01*
G37*
G36*
X1890775Y-10588244D02*
G01*
X1890775Y-10744200D01*
X1934210Y-10744200D01*
X1934210Y-10633456D01*
X1934921Y-10630103D01*
X1936648Y-10627614D01*
X1939391Y-10626090D01*
X1943100Y-10625582D01*
X1989582Y-10625582D01*
X1989582Y-10588244D01*
X1965960Y-10588244D01*
X1960372Y-10588498D01*
X1955088Y-10589260D01*
X1950059Y-10590530D01*
X1945335Y-10592257D01*
X1940966Y-10594441D01*
X1936902Y-10597032D01*
X1933244Y-10600080D01*
X1929892Y-10603484D01*
X1923796Y-10588244D01*
G37*
G36*
X2051557Y-10588244D02*
G01*
X2044750Y-10588650D01*
X2038400Y-10589768D01*
X2032457Y-10591596D01*
X2027021Y-10594136D01*
X2022093Y-10597337D01*
X2017725Y-10601147D01*
X2013915Y-10605566D01*
X2010714Y-10610545D01*
X2008174Y-10615980D01*
X2006346Y-10621975D01*
X2005228Y-10628376D01*
X2004822Y-10635234D01*
X2004852Y-10697718D01*
X2048256Y-10697718D01*
X2048256Y-10634726D01*
X2048814Y-10630712D01*
X2050491Y-10627868D01*
X2053285Y-10626140D01*
X2057146Y-10625582D01*
X2088642Y-10625582D01*
X2092655Y-10626140D01*
X2095500Y-10627868D01*
X2097227Y-10630712D01*
X2097786Y-10634726D01*
X2097786Y-10697718D01*
X2097227Y-10701680D01*
X2095500Y-10704423D01*
X2092655Y-10706100D01*
X2088642Y-10706608D01*
X2057146Y-10706608D01*
X2053285Y-10706100D01*
X2050491Y-10704423D01*
X2048814Y-10701680D01*
X2048256Y-10697718D01*
X2004852Y-10697718D01*
X2005228Y-10704068D01*
X2006346Y-10710468D01*
X2008174Y-10716463D01*
X2010714Y-10721898D01*
X2013915Y-10726877D01*
X2017725Y-10731296D01*
X2022093Y-10735106D01*
X2027021Y-10738307D01*
X2032457Y-10740847D01*
X2038400Y-10742676D01*
X2044750Y-10743793D01*
X2051557Y-10744200D01*
X2093975Y-10744200D01*
X2100884Y-10743793D01*
X2107336Y-10742676D01*
X2113381Y-10740847D01*
X2118868Y-10738307D01*
X2123846Y-10735106D01*
X2128266Y-10731296D01*
X2132076Y-10726877D01*
X2135276Y-10721898D01*
X2137816Y-10716463D01*
X2139696Y-10710468D01*
X2140813Y-10704068D01*
X2141220Y-10697210D01*
X2141220Y-10635234D01*
X2140813Y-10628376D01*
X2139696Y-10621975D01*
X2137816Y-10615980D01*
X2135276Y-10610545D01*
X2132076Y-10605566D01*
X2128266Y-10601147D01*
X2123846Y-10597337D01*
X2118868Y-10594136D01*
X2113381Y-10591596D01*
X2107336Y-10589768D01*
X2100884Y-10588650D01*
X2093975Y-10588244D01*
G37*
G36*
X2174240Y-10588244D02*
G01*
X2174240Y-10697210D01*
X2174646Y-10704068D01*
X2175764Y-10710468D01*
X2177592Y-10716463D01*
X2180132Y-10721898D01*
X2183333Y-10726877D01*
X2187143Y-10731296D01*
X2191562Y-10735106D01*
X2196541Y-10738307D01*
X2201976Y-10740847D01*
X2207971Y-10742676D01*
X2214372Y-10743793D01*
X2221230Y-10744200D01*
X2235454Y-10744200D01*
X2240940Y-10743946D01*
X2246172Y-10743234D01*
X2251151Y-10742015D01*
X2255824Y-10740339D01*
X2260142Y-10738205D01*
X2264156Y-10735614D01*
X2267762Y-10732617D01*
X2271014Y-10729214D01*
X2277618Y-10744200D01*
X2310638Y-10744200D01*
X2310638Y-10588244D01*
X2267204Y-10588244D01*
X2267204Y-10697718D01*
X2266645Y-10701680D01*
X2264968Y-10704423D01*
X2262174Y-10706100D01*
X2258314Y-10706608D01*
X2226818Y-10706608D01*
X2222804Y-10706100D01*
X2219960Y-10704423D01*
X2218232Y-10701680D01*
X2217674Y-10697718D01*
X2217674Y-10588244D01*
G37*
G36*
X2346706Y-10588244D02*
G01*
X2346706Y-10697718D01*
X2390140Y-10697718D01*
X2390140Y-10633456D01*
X2390851Y-10630103D01*
X2392629Y-10627614D01*
X2395423Y-10626090D01*
X2399284Y-10625582D01*
X2430780Y-10625582D01*
X2434640Y-10626140D01*
X2437434Y-10627868D01*
X2439111Y-10630712D01*
X2439670Y-10634726D01*
X2439670Y-10697718D01*
X2439111Y-10701680D01*
X2437434Y-10704423D01*
X2434640Y-10706100D01*
X2430780Y-10706608D01*
X2399284Y-10706608D01*
X2395270Y-10706100D01*
X2392426Y-10704423D01*
X2390698Y-10701680D01*
X2390140Y-10697718D01*
X2346706Y-10697718D01*
X2346706Y-10804144D01*
X2390140Y-10804144D01*
X2390140Y-10733024D01*
X2396744Y-10737900D01*
X2404313Y-10741355D01*
X2412695Y-10743488D01*
X2421890Y-10744200D01*
X2436114Y-10744200D01*
X2442972Y-10743793D01*
X2449372Y-10742676D01*
X2455367Y-10740847D01*
X2460802Y-10738307D01*
X2465781Y-10735106D01*
X2470200Y-10731296D01*
X2474010Y-10726877D01*
X2477211Y-10721898D01*
X2479751Y-10716463D01*
X2481580Y-10710468D01*
X2482697Y-10704068D01*
X2483104Y-10697210D01*
X2483104Y-10635234D01*
X2482697Y-10628376D01*
X2481580Y-10621975D01*
X2479751Y-10615980D01*
X2477211Y-10610545D01*
X2474010Y-10605566D01*
X2470200Y-10601147D01*
X2465781Y-10597337D01*
X2460802Y-10594136D01*
X2455367Y-10591596D01*
X2449372Y-10589768D01*
X2442972Y-10588650D01*
X2436114Y-10588244D01*
X2421890Y-10588244D01*
X2416302Y-10588498D01*
X2411018Y-10589260D01*
X2406091Y-10590530D01*
X2401417Y-10592257D01*
X2397048Y-10594441D01*
X2393086Y-10597032D01*
X2389378Y-10600080D01*
X2386076Y-10603484D01*
X2379726Y-10588244D01*
G37*
G36*
X3586734Y-10546842D02*
G01*
X3586734Y-10756900D01*
X3633215Y-10756900D01*
X3633215Y-10632440D01*
X3710686Y-10756900D01*
X3754120Y-10756900D01*
X3754120Y-10546842D01*
X3707637Y-10546842D01*
X3707637Y-10671302D01*
X3630168Y-10546842D01*
G37*
G36*
X3840734Y-10546842D02*
G01*
X3799851Y-10672064D01*
X3845306Y-10672064D01*
X3868420Y-10596372D01*
X3891534Y-10672064D01*
X3799851Y-10672064D01*
X3772154Y-10756900D01*
X3819398Y-10756900D01*
X3833114Y-10712450D01*
X3903979Y-10712450D01*
X3917696Y-10756900D01*
X3966464Y-10756900D01*
X3897884Y-10546842D01*
G37*
G36*
X3984498Y-10546842D02*
G01*
X3984498Y-10756900D01*
X4030979Y-10756900D01*
X4030979Y-10632440D01*
X4108450Y-10756900D01*
X4151884Y-10756900D01*
X4151884Y-10546842D01*
X4105401Y-10546842D01*
X4105401Y-10671302D01*
X4027932Y-10546842D01*
G37*
G36*
X4187951Y-10546842D02*
G01*
X4187951Y-10587482D01*
X4299712Y-10587482D01*
X4303725Y-10587990D01*
X4306570Y-10589615D01*
X4308297Y-10592409D01*
X4308856Y-10596372D01*
X4308856Y-10707370D01*
X4308297Y-10711383D01*
X4306570Y-10714228D01*
X4303725Y-10715955D01*
X4299712Y-10716514D01*
X4234434Y-10716514D01*
X4234434Y-10587482D01*
X4187951Y-10587482D01*
X4187951Y-10756900D01*
X4308094Y-10756900D01*
X4314952Y-10756493D01*
X4321403Y-10755376D01*
X4327347Y-10753547D01*
X4332884Y-10751007D01*
X4337862Y-10747806D01*
X4342282Y-10743996D01*
X4346143Y-10739577D01*
X4349343Y-10734598D01*
X4351934Y-10729163D01*
X4353814Y-10723168D01*
X4354931Y-10716768D01*
X4355338Y-10709910D01*
X4355338Y-10594086D01*
X4354931Y-10587228D01*
X4353814Y-10580776D01*
X4351934Y-10574832D01*
X4349343Y-10569295D01*
X4346143Y-10564317D01*
X4342282Y-10559897D01*
X4337862Y-10556036D01*
X4332884Y-10552836D01*
X4327347Y-10550245D01*
X4321403Y-10548366D01*
X4314952Y-10547248D01*
X4308094Y-10546842D01*
G37*
G36*
X4528058Y-10546842D02*
G01*
X4521250Y-10547248D01*
X4514900Y-10548366D01*
X4508957Y-10550245D01*
X4503521Y-10552836D01*
X4498594Y-10556036D01*
X4494225Y-10559897D01*
X4490415Y-10564317D01*
X4487214Y-10569295D01*
X4484674Y-10574832D01*
X4482846Y-10580776D01*
X4481728Y-10587228D01*
X4481322Y-10594086D01*
X4481322Y-10709910D01*
X4481728Y-10716768D01*
X4482846Y-10723168D01*
X4484674Y-10729163D01*
X4487214Y-10734598D01*
X4490415Y-10739577D01*
X4494225Y-10743996D01*
X4498594Y-10747806D01*
X4503521Y-10751007D01*
X4508957Y-10753547D01*
X4514900Y-10755376D01*
X4521250Y-10756493D01*
X4528058Y-10756900D01*
X4571492Y-10756900D01*
X4577181Y-10756646D01*
X4582566Y-10755884D01*
X4587646Y-10754614D01*
X4592421Y-10752886D01*
X4596841Y-10750651D01*
X4600905Y-10748010D01*
X4604562Y-10744911D01*
X4607814Y-10741406D01*
X4614418Y-10756900D01*
X4648708Y-10756900D01*
X4648708Y-10640568D01*
X4557776Y-10640568D01*
X4557776Y-10680954D01*
X4602226Y-10680954D01*
X4602226Y-10707370D01*
X4601667Y-10711383D01*
X4599940Y-10714228D01*
X4597095Y-10715955D01*
X4593082Y-10716514D01*
X4536694Y-10716514D01*
X4532833Y-10715955D01*
X4530039Y-10714228D01*
X4528362Y-10711383D01*
X4527804Y-10707370D01*
X4527804Y-10596372D01*
X4528362Y-10592409D01*
X4530039Y-10589615D01*
X4532833Y-10587990D01*
X4536694Y-10587482D01*
X4593082Y-10587482D01*
X4597095Y-10587990D01*
X4599940Y-10589615D01*
X4601667Y-10592409D01*
X4602226Y-10596372D01*
X4602226Y-10615930D01*
X4648708Y-10615930D01*
X4648708Y-10594086D01*
X4648301Y-10587228D01*
X4647184Y-10580776D01*
X4645355Y-10574832D01*
X4642815Y-10569295D01*
X4639614Y-10564317D01*
X4635804Y-10559897D01*
X4631385Y-10556036D01*
X4626406Y-10552836D01*
X4620971Y-10550245D01*
X4614976Y-10548366D01*
X4608576Y-10547248D01*
X4601718Y-10546842D01*
G37*
G36*
X5400294Y-10546842D02*
G01*
X5400294Y-10587482D01*
X5509006Y-10587482D01*
X5513019Y-10587990D01*
X5515864Y-10589615D01*
X5517591Y-10592409D01*
X5518150Y-10596372D01*
X5518150Y-10622534D01*
X5517591Y-10626394D01*
X5515864Y-10629188D01*
X5513019Y-10630865D01*
X5509006Y-10631424D01*
X5446776Y-10631424D01*
X5446776Y-10587482D01*
X5400294Y-10587482D01*
X5400294Y-10672064D01*
X5509006Y-10672064D01*
X5513019Y-10672622D01*
X5515864Y-10674299D01*
X5517591Y-10677093D01*
X5518150Y-10680954D01*
X5518150Y-10707370D01*
X5517591Y-10711383D01*
X5515864Y-10714228D01*
X5513019Y-10715955D01*
X5509006Y-10716514D01*
X5446776Y-10716514D01*
X5446776Y-10672064D01*
X5400294Y-10672064D01*
X5400294Y-10756900D01*
X5517388Y-10756900D01*
X5524246Y-10756493D01*
X5530697Y-10755376D01*
X5536641Y-10753547D01*
X5542178Y-10751007D01*
X5547156Y-10747806D01*
X5551576Y-10743996D01*
X5555437Y-10739577D01*
X5558637Y-10734598D01*
X5561228Y-10729163D01*
X5563108Y-10723168D01*
X5564225Y-10716768D01*
X5564632Y-10709910D01*
X5564632Y-10692384D01*
X5564276Y-10685729D01*
X5563158Y-10679430D01*
X5561380Y-10673588D01*
X5558891Y-10668203D01*
X5555843Y-10663326D01*
X5552186Y-10658957D01*
X5548020Y-10655147D01*
X5543296Y-10651998D01*
X5548020Y-10648746D01*
X5552186Y-10644886D01*
X5555843Y-10640517D01*
X5558942Y-10635589D01*
X5561380Y-10630154D01*
X5563158Y-10624312D01*
X5564276Y-10618012D01*
X5564632Y-10611358D01*
X5564632Y-10594086D01*
X5564225Y-10587228D01*
X5563108Y-10580776D01*
X5561228Y-10574832D01*
X5558637Y-10569295D01*
X5555437Y-10564317D01*
X5551576Y-10559897D01*
X5547156Y-10556036D01*
X5542178Y-10552836D01*
X5536641Y-10550245D01*
X5530697Y-10548366D01*
X5524246Y-10547248D01*
X5517388Y-10546842D01*
G37*
G36*
X4684776Y-10600944D02*
G01*
X4684776Y-10756900D01*
X4728210Y-10756900D01*
X4728210Y-10646156D01*
X4728921Y-10642803D01*
X4730648Y-10640314D01*
X4733391Y-10638790D01*
X4737100Y-10638282D01*
X4783582Y-10638282D01*
X4783582Y-10600944D01*
X4759960Y-10600944D01*
X4754372Y-10601198D01*
X4749088Y-10601960D01*
X4744059Y-10603230D01*
X4739335Y-10604957D01*
X4734966Y-10607141D01*
X4730902Y-10609732D01*
X4727244Y-10612780D01*
X4723892Y-10616184D01*
X4717796Y-10600944D01*
G37*
G36*
X4845558Y-10600944D02*
G01*
X4838750Y-10601350D01*
X4832400Y-10602468D01*
X4826457Y-10604296D01*
X4821021Y-10606836D01*
X4816094Y-10610037D01*
X4811725Y-10613847D01*
X4807915Y-10618266D01*
X4804714Y-10623245D01*
X4802174Y-10628680D01*
X4800346Y-10634675D01*
X4799228Y-10641076D01*
X4798822Y-10647934D01*
X4798852Y-10710418D01*
X4842256Y-10710418D01*
X4842256Y-10647426D01*
X4842814Y-10643412D01*
X4844491Y-10640568D01*
X4847285Y-10638840D01*
X4851146Y-10638282D01*
X4882642Y-10638282D01*
X4886655Y-10638840D01*
X4889500Y-10640568D01*
X4891227Y-10643412D01*
X4891786Y-10647426D01*
X4891786Y-10710418D01*
X4891227Y-10714380D01*
X4889500Y-10717123D01*
X4886655Y-10718800D01*
X4882642Y-10719308D01*
X4851146Y-10719308D01*
X4847285Y-10718800D01*
X4844491Y-10717123D01*
X4842814Y-10714380D01*
X4842256Y-10710418D01*
X4798852Y-10710418D01*
X4799228Y-10716768D01*
X4800346Y-10723168D01*
X4802174Y-10729163D01*
X4804714Y-10734598D01*
X4807915Y-10739577D01*
X4811725Y-10743996D01*
X4816094Y-10747806D01*
X4821021Y-10751007D01*
X4826457Y-10753547D01*
X4832400Y-10755376D01*
X4838750Y-10756493D01*
X4845558Y-10756900D01*
X4887976Y-10756900D01*
X4894884Y-10756493D01*
X4901336Y-10755376D01*
X4907381Y-10753547D01*
X4912868Y-10751007D01*
X4917846Y-10747806D01*
X4922266Y-10743996D01*
X4926076Y-10739577D01*
X4929276Y-10734598D01*
X4931816Y-10729163D01*
X4933696Y-10723168D01*
X4934813Y-10716768D01*
X4935220Y-10709910D01*
X4935220Y-10647934D01*
X4934813Y-10641076D01*
X4933696Y-10634675D01*
X4931816Y-10628680D01*
X4929276Y-10623245D01*
X4926076Y-10618266D01*
X4922266Y-10613847D01*
X4917846Y-10610037D01*
X4912868Y-10606836D01*
X4907381Y-10604296D01*
X4901336Y-10602468D01*
X4894884Y-10601350D01*
X4887976Y-10600944D01*
G37*
G36*
X4968240Y-10600944D02*
G01*
X4968240Y-10709910D01*
X4968646Y-10716768D01*
X4969764Y-10723168D01*
X4971592Y-10729163D01*
X4974132Y-10734598D01*
X4977333Y-10739577D01*
X4981143Y-10743996D01*
X4985562Y-10747806D01*
X4990541Y-10751007D01*
X4995976Y-10753547D01*
X5001971Y-10755376D01*
X5008372Y-10756493D01*
X5015230Y-10756900D01*
X5029454Y-10756900D01*
X5034940Y-10756646D01*
X5040172Y-10755934D01*
X5045151Y-10754715D01*
X5049824Y-10753039D01*
X5054142Y-10750905D01*
X5058156Y-10748314D01*
X5061762Y-10745317D01*
X5065014Y-10741914D01*
X5071618Y-10756900D01*
X5104638Y-10756900D01*
X5104638Y-10600944D01*
X5061204Y-10600944D01*
X5061204Y-10710418D01*
X5060645Y-10714380D01*
X5058968Y-10717123D01*
X5056174Y-10718800D01*
X5052314Y-10719308D01*
X5020818Y-10719308D01*
X5016804Y-10718800D01*
X5013960Y-10717123D01*
X5012232Y-10714380D01*
X5011674Y-10710418D01*
X5011674Y-10600944D01*
G37*
G36*
X5140706Y-10600944D02*
G01*
X5140706Y-10710418D01*
X5184140Y-10710418D01*
X5184140Y-10646156D01*
X5184851Y-10642803D01*
X5186629Y-10640314D01*
X5189423Y-10638790D01*
X5193284Y-10638282D01*
X5224780Y-10638282D01*
X5228640Y-10638840D01*
X5231434Y-10640568D01*
X5233111Y-10643412D01*
X5233670Y-10647426D01*
X5233670Y-10710418D01*
X5233111Y-10714380D01*
X5231434Y-10717123D01*
X5228640Y-10718800D01*
X5224780Y-10719308D01*
X5193284Y-10719308D01*
X5189270Y-10718800D01*
X5186426Y-10717123D01*
X5184698Y-10714380D01*
X5184140Y-10710418D01*
X5140706Y-10710418D01*
X5140706Y-10816844D01*
X5184140Y-10816844D01*
X5184140Y-10745724D01*
X5190744Y-10750600D01*
X5198313Y-10754055D01*
X5206695Y-10756188D01*
X5215890Y-10756900D01*
X5230114Y-10756900D01*
X5236972Y-10756493D01*
X5243372Y-10755376D01*
X5249367Y-10753547D01*
X5254802Y-10751007D01*
X5259781Y-10747806D01*
X5264200Y-10743996D01*
X5268010Y-10739577D01*
X5271211Y-10734598D01*
X5273751Y-10729163D01*
X5275580Y-10723168D01*
X5276697Y-10716768D01*
X5277104Y-10709910D01*
X5277104Y-10647934D01*
X5276697Y-10641076D01*
X5275580Y-10634675D01*
X5273751Y-10628680D01*
X5271211Y-10623245D01*
X5268010Y-10618266D01*
X5264200Y-10613847D01*
X5259781Y-10610037D01*
X5254802Y-10606836D01*
X5249367Y-10604296D01*
X5243372Y-10602468D01*
X5236972Y-10601350D01*
X5230114Y-10600944D01*
X5215890Y-10600944D01*
X5210302Y-10601198D01*
X5205018Y-10601960D01*
X5200091Y-10603230D01*
X5195417Y-10604957D01*
X5191048Y-10607141D01*
X5187086Y-10609732D01*
X5183378Y-10612780D01*
X5180076Y-10616184D01*
X5173726Y-10600944D01*
G37*
G36*
X6368034Y-10534142D02*
G01*
X6368034Y-10744200D01*
X6414516Y-10744200D01*
X6414516Y-10619740D01*
X6491986Y-10744200D01*
X6535420Y-10744200D01*
X6535420Y-10534142D01*
X6488938Y-10534142D01*
X6488938Y-10658602D01*
X6411468Y-10534142D01*
G37*
G36*
X6622034Y-10534142D02*
G01*
X6581151Y-10659364D01*
X6626606Y-10659364D01*
X6649720Y-10583672D01*
X6672834Y-10659364D01*
X6581151Y-10659364D01*
X6553454Y-10744200D01*
X6600698Y-10744200D01*
X6614414Y-10699750D01*
X6685280Y-10699750D01*
X6698996Y-10744200D01*
X6747764Y-10744200D01*
X6679184Y-10534142D01*
G37*
G36*
X6765798Y-10534142D02*
G01*
X6765798Y-10744200D01*
X6812280Y-10744200D01*
X6812280Y-10619740D01*
X6889750Y-10744200D01*
X6933184Y-10744200D01*
X6933184Y-10534142D01*
X6886702Y-10534142D01*
X6886702Y-10658602D01*
X6809231Y-10534142D01*
G37*
G36*
X6969252Y-10534142D02*
G01*
X6969252Y-10574782D01*
X7081012Y-10574782D01*
X7085025Y-10575290D01*
X7087870Y-10576915D01*
X7089597Y-10579709D01*
X7090156Y-10583672D01*
X7090156Y-10694670D01*
X7089597Y-10698683D01*
X7087870Y-10701528D01*
X7085025Y-10703255D01*
X7081012Y-10703814D01*
X7015734Y-10703814D01*
X7015734Y-10574782D01*
X6969252Y-10574782D01*
X6969252Y-10744200D01*
X7089394Y-10744200D01*
X7096252Y-10743793D01*
X7102703Y-10742676D01*
X7108647Y-10740847D01*
X7114184Y-10738307D01*
X7119162Y-10735106D01*
X7123582Y-10731296D01*
X7127443Y-10726877D01*
X7130643Y-10721898D01*
X7133234Y-10716463D01*
X7135114Y-10710468D01*
X7136231Y-10704068D01*
X7136638Y-10697210D01*
X7136638Y-10581386D01*
X7136231Y-10574528D01*
X7135114Y-10568076D01*
X7133234Y-10562132D01*
X7130643Y-10556595D01*
X7127443Y-10551617D01*
X7123582Y-10547197D01*
X7119162Y-10543336D01*
X7114184Y-10540136D01*
X7108647Y-10537545D01*
X7102703Y-10535666D01*
X7096252Y-10534548D01*
X7089394Y-10534142D01*
G37*
G36*
X7309358Y-10534142D02*
G01*
X7302550Y-10534548D01*
X7296200Y-10535666D01*
X7290257Y-10537545D01*
X7284821Y-10540136D01*
X7279894Y-10543336D01*
X7275525Y-10547197D01*
X7271715Y-10551617D01*
X7268514Y-10556595D01*
X7265974Y-10562132D01*
X7264146Y-10568076D01*
X7263028Y-10574528D01*
X7262622Y-10581386D01*
X7262622Y-10697210D01*
X7263028Y-10704068D01*
X7264146Y-10710468D01*
X7265974Y-10716463D01*
X7268514Y-10721898D01*
X7271715Y-10726877D01*
X7275525Y-10731296D01*
X7279894Y-10735106D01*
X7284821Y-10738307D01*
X7290257Y-10740847D01*
X7296200Y-10742676D01*
X7302550Y-10743793D01*
X7309358Y-10744200D01*
X7352792Y-10744200D01*
X7358481Y-10743946D01*
X7363866Y-10743184D01*
X7368946Y-10741914D01*
X7373721Y-10740186D01*
X7378141Y-10737951D01*
X7382205Y-10735310D01*
X7385862Y-10732211D01*
X7389114Y-10728706D01*
X7395718Y-10744200D01*
X7430008Y-10744200D01*
X7430008Y-10627868D01*
X7339075Y-10627868D01*
X7339075Y-10668254D01*
X7383525Y-10668254D01*
X7383525Y-10694670D01*
X7382967Y-10698683D01*
X7381240Y-10701528D01*
X7378395Y-10703255D01*
X7374381Y-10703814D01*
X7317994Y-10703814D01*
X7314133Y-10703255D01*
X7311339Y-10701528D01*
X7309662Y-10698683D01*
X7309103Y-10694670D01*
X7309103Y-10583672D01*
X7309662Y-10579709D01*
X7311339Y-10576915D01*
X7314133Y-10575290D01*
X7317994Y-10574782D01*
X7374381Y-10574782D01*
X7378395Y-10575290D01*
X7381240Y-10576915D01*
X7382967Y-10579709D01*
X7383525Y-10583672D01*
X7383525Y-10603230D01*
X7430008Y-10603230D01*
X7430008Y-10581386D01*
X7429601Y-10574528D01*
X7428484Y-10568076D01*
X7426655Y-10562132D01*
X7424115Y-10556595D01*
X7420914Y-10551617D01*
X7417104Y-10547197D01*
X7412685Y-10543336D01*
X7407706Y-10540136D01*
X7402271Y-10537545D01*
X7396276Y-10535666D01*
X7389875Y-10534548D01*
X7383018Y-10534142D01*
G37*
G36*
X8228330Y-10534142D02*
G01*
X8221522Y-10534548D01*
X8215172Y-10535666D01*
X8209229Y-10537545D01*
X8203793Y-10540136D01*
X8198866Y-10543336D01*
X8194497Y-10547197D01*
X8190687Y-10551617D01*
X8187486Y-10556595D01*
X8184946Y-10562132D01*
X8183118Y-10568076D01*
X8182000Y-10574528D01*
X8181594Y-10581386D01*
X8181594Y-10697210D01*
X8182000Y-10704068D01*
X8183118Y-10710468D01*
X8184946Y-10716463D01*
X8187486Y-10721898D01*
X8190687Y-10726877D01*
X8194497Y-10731296D01*
X8198866Y-10735106D01*
X8203793Y-10738307D01*
X8209229Y-10740847D01*
X8215172Y-10742676D01*
X8221522Y-10743793D01*
X8228330Y-10744200D01*
X8301736Y-10744200D01*
X8308594Y-10743793D01*
X8315045Y-10742676D01*
X8320989Y-10740847D01*
X8326526Y-10738307D01*
X8331504Y-10735106D01*
X8335924Y-10731296D01*
X8339785Y-10726877D01*
X8342985Y-10721898D01*
X8345576Y-10716463D01*
X8347456Y-10710468D01*
X8348573Y-10704068D01*
X8348980Y-10697210D01*
X8348980Y-10669270D01*
X8302498Y-10669270D01*
X8302498Y-10694670D01*
X8301939Y-10698683D01*
X8300212Y-10701528D01*
X8297367Y-10703255D01*
X8293353Y-10703814D01*
X8236966Y-10703814D01*
X8233003Y-10703255D01*
X8230260Y-10701528D01*
X8228584Y-10698683D01*
X8228075Y-10694670D01*
X8228075Y-10583672D01*
X8228584Y-10579709D01*
X8230209Y-10576915D01*
X8233003Y-10575290D01*
X8236966Y-10574782D01*
X8293353Y-10574782D01*
X8297367Y-10575290D01*
X8300212Y-10576915D01*
X8301939Y-10579709D01*
X8302498Y-10583672D01*
X8302498Y-10609326D01*
X8348980Y-10609326D01*
X8348980Y-10581386D01*
X8348573Y-10574528D01*
X8347456Y-10568076D01*
X8345576Y-10562132D01*
X8342985Y-10556595D01*
X8339785Y-10551617D01*
X8335924Y-10547197D01*
X8331504Y-10543336D01*
X8326526Y-10540136D01*
X8320989Y-10537545D01*
X8315045Y-10535666D01*
X8308594Y-10534548D01*
X8301736Y-10534142D01*
G37*
G36*
X7466075Y-10588244D02*
G01*
X7466075Y-10744200D01*
X7509509Y-10744200D01*
X7509509Y-10633456D01*
X7510221Y-10630103D01*
X7511948Y-10627614D01*
X7514691Y-10626090D01*
X7518400Y-10625582D01*
X7564881Y-10625582D01*
X7564881Y-10588244D01*
X7541259Y-10588244D01*
X7535672Y-10588498D01*
X7530388Y-10589260D01*
X7525359Y-10590530D01*
X7520635Y-10592257D01*
X7516266Y-10594441D01*
X7512202Y-10597032D01*
X7508544Y-10600080D01*
X7505192Y-10603484D01*
X7499096Y-10588244D01*
G37*
G36*
X7626858Y-10588244D02*
G01*
X7620050Y-10588650D01*
X7613700Y-10589768D01*
X7607757Y-10591596D01*
X7602321Y-10594136D01*
X7597394Y-10597337D01*
X7593025Y-10601147D01*
X7589215Y-10605566D01*
X7586014Y-10610545D01*
X7583474Y-10615980D01*
X7581646Y-10621975D01*
X7580528Y-10628376D01*
X7580122Y-10635234D01*
X7580152Y-10697718D01*
X7623556Y-10697718D01*
X7623556Y-10634726D01*
X7624114Y-10630712D01*
X7625791Y-10627868D01*
X7628585Y-10626140D01*
X7632446Y-10625582D01*
X7663942Y-10625582D01*
X7667955Y-10626140D01*
X7670800Y-10627868D01*
X7672527Y-10630712D01*
X7673086Y-10634726D01*
X7673086Y-10697718D01*
X7672527Y-10701680D01*
X7670800Y-10704423D01*
X7667955Y-10706100D01*
X7663942Y-10706608D01*
X7632446Y-10706608D01*
X7628585Y-10706100D01*
X7625791Y-10704423D01*
X7624114Y-10701680D01*
X7623556Y-10697718D01*
X7580152Y-10697718D01*
X7580528Y-10704068D01*
X7581646Y-10710468D01*
X7583474Y-10716463D01*
X7586014Y-10721898D01*
X7589215Y-10726877D01*
X7593025Y-10731296D01*
X7597394Y-10735106D01*
X7602321Y-10738307D01*
X7607757Y-10740847D01*
X7613700Y-10742676D01*
X7620050Y-10743793D01*
X7626858Y-10744200D01*
X7669275Y-10744200D01*
X7676184Y-10743793D01*
X7682636Y-10742676D01*
X7688681Y-10740847D01*
X7694168Y-10738307D01*
X7699146Y-10735106D01*
X7703566Y-10731296D01*
X7707375Y-10726877D01*
X7710576Y-10721898D01*
X7713116Y-10716463D01*
X7714996Y-10710468D01*
X7716113Y-10704068D01*
X7716520Y-10697210D01*
X7716520Y-10635234D01*
X7716113Y-10628376D01*
X7714996Y-10621975D01*
X7713116Y-10615980D01*
X7710576Y-10610545D01*
X7707375Y-10605566D01*
X7703566Y-10601147D01*
X7699146Y-10597337D01*
X7694168Y-10594136D01*
X7688681Y-10591596D01*
X7682636Y-10589768D01*
X7676184Y-10588650D01*
X7669275Y-10588244D01*
G37*
G36*
X7749540Y-10588244D02*
G01*
X7749540Y-10697210D01*
X7749946Y-10704068D01*
X7751064Y-10710468D01*
X7752892Y-10716463D01*
X7755432Y-10721898D01*
X7758633Y-10726877D01*
X7762443Y-10731296D01*
X7766862Y-10735106D01*
X7771841Y-10738307D01*
X7777276Y-10740847D01*
X7783271Y-10742676D01*
X7789672Y-10743793D01*
X7796530Y-10744200D01*
X7810753Y-10744200D01*
X7816240Y-10743946D01*
X7821472Y-10743234D01*
X7826451Y-10742015D01*
X7831124Y-10740339D01*
X7835442Y-10738205D01*
X7839456Y-10735614D01*
X7843062Y-10732617D01*
X7846314Y-10729214D01*
X7852918Y-10744200D01*
X7885938Y-10744200D01*
X7885938Y-10588244D01*
X7842503Y-10588244D01*
X7842503Y-10697718D01*
X7841945Y-10701680D01*
X7840268Y-10704423D01*
X7837474Y-10706100D01*
X7833614Y-10706608D01*
X7802118Y-10706608D01*
X7798104Y-10706100D01*
X7795259Y-10704423D01*
X7793532Y-10701680D01*
X7792974Y-10697718D01*
X7792974Y-10588244D01*
G37*
G36*
X7922006Y-10588244D02*
G01*
X7922006Y-10697718D01*
X7965440Y-10697718D01*
X7965440Y-10633456D01*
X7966151Y-10630103D01*
X7967929Y-10627614D01*
X7970723Y-10626090D01*
X7974584Y-10625582D01*
X8006080Y-10625582D01*
X8009940Y-10626140D01*
X8012734Y-10627868D01*
X8014411Y-10630712D01*
X8014970Y-10634726D01*
X8014970Y-10697718D01*
X8014411Y-10701680D01*
X8012734Y-10704423D01*
X8009940Y-10706100D01*
X8006080Y-10706608D01*
X7974584Y-10706608D01*
X7970570Y-10706100D01*
X7967725Y-10704423D01*
X7965998Y-10701680D01*
X7965440Y-10697718D01*
X7922006Y-10697718D01*
X7922006Y-10804144D01*
X7965440Y-10804144D01*
X7965440Y-10733024D01*
X7972044Y-10737900D01*
X7979613Y-10741355D01*
X7987995Y-10743488D01*
X7997190Y-10744200D01*
X8011414Y-10744200D01*
X8018272Y-10743793D01*
X8024672Y-10742676D01*
X8030667Y-10740847D01*
X8036102Y-10738307D01*
X8041081Y-10735106D01*
X8045500Y-10731296D01*
X8049310Y-10726877D01*
X8052511Y-10721898D01*
X8055051Y-10716463D01*
X8056880Y-10710468D01*
X8057997Y-10704068D01*
X8058403Y-10697210D01*
X8058403Y-10635234D01*
X8057997Y-10628376D01*
X8056880Y-10621975D01*
X8055051Y-10615980D01*
X8052511Y-10610545D01*
X8049310Y-10605566D01*
X8045500Y-10601147D01*
X8041081Y-10597337D01*
X8036102Y-10594136D01*
X8030667Y-10591596D01*
X8024672Y-10589768D01*
X8018272Y-10588650D01*
X8011414Y-10588244D01*
X7997190Y-10588244D01*
X7991602Y-10588498D01*
X7986318Y-10589260D01*
X7981391Y-10590530D01*
X7976717Y-10592257D01*
X7972348Y-10594441D01*
X7968386Y-10597032D01*
X7964678Y-10600080D01*
X7961375Y-10603484D01*
X7955025Y-10588244D01*
G37*
G36*
X9162034Y-10521442D02*
G01*
X9162034Y-10731500D01*
X9208516Y-10731500D01*
X9208516Y-10607040D01*
X9285986Y-10731500D01*
X9329420Y-10731500D01*
X9329420Y-10521442D01*
X9282938Y-10521442D01*
X9282938Y-10645902D01*
X9205468Y-10521442D01*
G37*
G36*
X9416034Y-10521442D02*
G01*
X9375151Y-10646664D01*
X9420606Y-10646664D01*
X9443720Y-10570972D01*
X9466834Y-10646664D01*
X9375151Y-10646664D01*
X9347454Y-10731500D01*
X9394698Y-10731500D01*
X9408414Y-10687050D01*
X9479280Y-10687050D01*
X9492996Y-10731500D01*
X9541764Y-10731500D01*
X9473184Y-10521442D01*
G37*
G36*
X9559798Y-10521442D02*
G01*
X9559798Y-10731500D01*
X9606280Y-10731500D01*
X9606280Y-10607040D01*
X9683750Y-10731500D01*
X9727184Y-10731500D01*
X9727184Y-10521442D01*
X9680702Y-10521442D01*
X9680702Y-10645902D01*
X9603232Y-10521442D01*
G37*
G36*
X9763252Y-10521442D02*
G01*
X9763252Y-10562082D01*
X9875012Y-10562082D01*
X9879025Y-10562590D01*
X9881870Y-10564215D01*
X9883597Y-10567009D01*
X9884156Y-10570972D01*
X9884156Y-10681970D01*
X9883597Y-10685983D01*
X9881870Y-10688828D01*
X9879025Y-10690555D01*
X9875012Y-10691114D01*
X9809734Y-10691114D01*
X9809734Y-10562082D01*
X9763252Y-10562082D01*
X9763252Y-10731500D01*
X9883394Y-10731500D01*
X9890252Y-10731093D01*
X9896703Y-10729976D01*
X9902647Y-10728147D01*
X9908184Y-10725607D01*
X9913162Y-10722406D01*
X9917582Y-10718596D01*
X9921443Y-10714177D01*
X9924643Y-10709198D01*
X9927234Y-10703763D01*
X9929114Y-10697768D01*
X9930231Y-10691368D01*
X9930638Y-10684510D01*
X9930638Y-10568686D01*
X9930231Y-10561828D01*
X9929114Y-10555376D01*
X9927234Y-10549432D01*
X9924643Y-10543895D01*
X9921443Y-10538917D01*
X9917582Y-10534497D01*
X9913162Y-10530636D01*
X9908184Y-10527436D01*
X9902647Y-10524845D01*
X9896703Y-10522966D01*
X9890252Y-10521848D01*
X9883394Y-10521442D01*
G37*
G36*
X10103358Y-10521442D02*
G01*
X10096550Y-10521848D01*
X10090200Y-10522966D01*
X10084257Y-10524845D01*
X10078821Y-10527436D01*
X10073894Y-10530636D01*
X10069525Y-10534497D01*
X10065715Y-10538917D01*
X10062514Y-10543895D01*
X10059974Y-10549432D01*
X10058146Y-10555376D01*
X10057028Y-10561828D01*
X10056622Y-10568686D01*
X10056622Y-10684510D01*
X10057028Y-10691368D01*
X10058146Y-10697768D01*
X10059974Y-10703763D01*
X10062514Y-10709198D01*
X10065715Y-10714177D01*
X10069525Y-10718596D01*
X10073894Y-10722406D01*
X10078821Y-10725607D01*
X10084257Y-10728147D01*
X10090200Y-10729976D01*
X10096550Y-10731093D01*
X10103358Y-10731500D01*
X10146792Y-10731500D01*
X10152481Y-10731246D01*
X10157866Y-10730484D01*
X10162946Y-10729214D01*
X10167721Y-10727486D01*
X10172141Y-10725251D01*
X10176205Y-10722610D01*
X10179862Y-10719511D01*
X10183114Y-10716006D01*
X10189718Y-10731500D01*
X10224008Y-10731500D01*
X10224008Y-10615168D01*
X10133076Y-10615168D01*
X10133076Y-10655554D01*
X10177526Y-10655554D01*
X10177526Y-10681970D01*
X10176967Y-10685983D01*
X10175240Y-10688828D01*
X10172395Y-10690555D01*
X10168382Y-10691114D01*
X10111994Y-10691114D01*
X10108133Y-10690555D01*
X10105339Y-10688828D01*
X10103662Y-10685983D01*
X10103104Y-10681970D01*
X10103104Y-10570972D01*
X10103662Y-10567009D01*
X10105339Y-10564215D01*
X10108133Y-10562590D01*
X10111994Y-10562082D01*
X10168382Y-10562082D01*
X10172395Y-10562590D01*
X10175240Y-10564215D01*
X10176967Y-10567009D01*
X10177526Y-10570972D01*
X10177526Y-10590530D01*
X10224008Y-10590530D01*
X10224008Y-10568686D01*
X10223601Y-10561828D01*
X10222484Y-10555376D01*
X10220655Y-10549432D01*
X10218115Y-10543895D01*
X10214914Y-10538917D01*
X10211104Y-10534497D01*
X10206685Y-10530636D01*
X10201706Y-10527436D01*
X10196271Y-10524845D01*
X10190276Y-10522966D01*
X10183876Y-10521848D01*
X10177018Y-10521442D01*
G37*
G36*
X10975594Y-10521442D02*
G01*
X10975594Y-10562082D01*
X11087354Y-10562082D01*
X11091367Y-10562590D01*
X11094212Y-10564215D01*
X11095939Y-10567009D01*
X11096498Y-10570972D01*
X11096498Y-10681970D01*
X11095939Y-10685983D01*
X11094212Y-10688828D01*
X11091367Y-10690555D01*
X11087354Y-10691114D01*
X11022076Y-10691114D01*
X11022076Y-10562082D01*
X10975594Y-10562082D01*
X10975594Y-10731500D01*
X11095736Y-10731500D01*
X11102594Y-10731093D01*
X11109045Y-10729976D01*
X11114989Y-10728147D01*
X11120526Y-10725607D01*
X11125504Y-10722406D01*
X11129924Y-10718596D01*
X11133785Y-10714177D01*
X11136985Y-10709198D01*
X11139576Y-10703763D01*
X11141456Y-10697768D01*
X11142573Y-10691368D01*
X11142980Y-10684510D01*
X11142980Y-10568686D01*
X11142573Y-10561828D01*
X11141456Y-10555376D01*
X11139576Y-10549432D01*
X11136985Y-10543895D01*
X11133785Y-10538917D01*
X11129924Y-10534497D01*
X11125504Y-10530636D01*
X11120526Y-10527436D01*
X11114989Y-10524845D01*
X11109045Y-10522966D01*
X11102594Y-10521848D01*
X11095736Y-10521442D01*
G37*
G36*
X10260076Y-10575544D02*
G01*
X10260076Y-10731500D01*
X10303510Y-10731500D01*
X10303510Y-10620756D01*
X10304221Y-10617403D01*
X10305948Y-10614914D01*
X10308691Y-10613390D01*
X10312400Y-10612882D01*
X10358882Y-10612882D01*
X10358882Y-10575544D01*
X10335260Y-10575544D01*
X10329672Y-10575798D01*
X10324388Y-10576560D01*
X10319359Y-10577830D01*
X10314635Y-10579557D01*
X10310266Y-10581741D01*
X10306202Y-10584332D01*
X10302544Y-10587380D01*
X10299192Y-10590784D01*
X10293096Y-10575544D01*
G37*
G36*
X10420858Y-10575544D02*
G01*
X10414050Y-10575950D01*
X10407700Y-10577068D01*
X10401757Y-10578896D01*
X10396321Y-10581436D01*
X10391394Y-10584637D01*
X10387025Y-10588447D01*
X10383215Y-10592866D01*
X10380014Y-10597845D01*
X10377474Y-10603280D01*
X10375646Y-10609275D01*
X10374528Y-10615676D01*
X10374122Y-10622534D01*
X10374152Y-10685018D01*
X10417556Y-10685018D01*
X10417556Y-10622026D01*
X10418114Y-10618012D01*
X10419791Y-10615168D01*
X10422585Y-10613440D01*
X10426446Y-10612882D01*
X10457942Y-10612882D01*
X10461955Y-10613440D01*
X10464800Y-10615168D01*
X10466527Y-10618012D01*
X10467086Y-10622026D01*
X10467086Y-10685018D01*
X10466527Y-10688980D01*
X10464800Y-10691723D01*
X10461955Y-10693400D01*
X10457942Y-10693908D01*
X10426446Y-10693908D01*
X10422585Y-10693400D01*
X10419791Y-10691723D01*
X10418114Y-10688980D01*
X10417556Y-10685018D01*
X10374152Y-10685018D01*
X10374528Y-10691368D01*
X10375646Y-10697768D01*
X10377474Y-10703763D01*
X10380014Y-10709198D01*
X10383215Y-10714177D01*
X10387025Y-10718596D01*
X10391394Y-10722406D01*
X10396321Y-10725607D01*
X10401757Y-10728147D01*
X10407700Y-10729976D01*
X10414050Y-10731093D01*
X10420858Y-10731500D01*
X10463276Y-10731500D01*
X10470184Y-10731093D01*
X10476636Y-10729976D01*
X10482681Y-10728147D01*
X10488168Y-10725607D01*
X10493146Y-10722406D01*
X10497566Y-10718596D01*
X10501376Y-10714177D01*
X10504576Y-10709198D01*
X10507116Y-10703763D01*
X10508996Y-10697768D01*
X10510113Y-10691368D01*
X10510520Y-10684510D01*
X10510520Y-10622534D01*
X10510113Y-10615676D01*
X10508996Y-10609275D01*
X10507116Y-10603280D01*
X10504576Y-10597845D01*
X10501376Y-10592866D01*
X10497566Y-10588447D01*
X10493146Y-10584637D01*
X10488168Y-10581436D01*
X10482681Y-10578896D01*
X10476636Y-10577068D01*
X10470184Y-10575950D01*
X10463276Y-10575544D01*
G37*
G36*
X10543540Y-10575544D02*
G01*
X10543540Y-10684510D01*
X10543946Y-10691368D01*
X10545064Y-10697768D01*
X10546892Y-10703763D01*
X10549432Y-10709198D01*
X10552633Y-10714177D01*
X10556443Y-10718596D01*
X10560862Y-10722406D01*
X10565841Y-10725607D01*
X10571276Y-10728147D01*
X10577271Y-10729976D01*
X10583672Y-10731093D01*
X10590530Y-10731500D01*
X10604754Y-10731500D01*
X10610240Y-10731246D01*
X10615472Y-10730534D01*
X10620451Y-10729315D01*
X10625124Y-10727639D01*
X10629442Y-10725505D01*
X10633456Y-10722914D01*
X10637062Y-10719917D01*
X10640314Y-10716514D01*
X10646918Y-10731500D01*
X10679938Y-10731500D01*
X10679938Y-10575544D01*
X10636504Y-10575544D01*
X10636504Y-10685018D01*
X10635945Y-10688980D01*
X10634268Y-10691723D01*
X10631474Y-10693400D01*
X10627614Y-10693908D01*
X10596118Y-10693908D01*
X10592104Y-10693400D01*
X10589260Y-10691723D01*
X10587532Y-10688980D01*
X10586974Y-10685018D01*
X10586974Y-10575544D01*
G37*
G36*
X10716006Y-10575544D02*
G01*
X10716006Y-10685018D01*
X10759440Y-10685018D01*
X10759440Y-10620756D01*
X10760151Y-10617403D01*
X10761929Y-10614914D01*
X10764723Y-10613390D01*
X10768584Y-10612882D01*
X10800080Y-10612882D01*
X10803940Y-10613440D01*
X10806734Y-10615168D01*
X10808411Y-10618012D01*
X10808970Y-10622026D01*
X10808970Y-10685018D01*
X10808411Y-10688980D01*
X10806734Y-10691723D01*
X10803940Y-10693400D01*
X10800080Y-10693908D01*
X10768584Y-10693908D01*
X10764570Y-10693400D01*
X10761726Y-10691723D01*
X10759998Y-10688980D01*
X10759440Y-10685018D01*
X10716006Y-10685018D01*
X10716006Y-10791444D01*
X10759440Y-10791444D01*
X10759440Y-10720324D01*
X10766044Y-10725200D01*
X10773613Y-10728655D01*
X10781995Y-10730788D01*
X10791190Y-10731500D01*
X10805414Y-10731500D01*
X10812272Y-10731093D01*
X10818672Y-10729976D01*
X10824667Y-10728147D01*
X10830102Y-10725607D01*
X10835081Y-10722406D01*
X10839500Y-10718596D01*
X10843310Y-10714177D01*
X10846511Y-10709198D01*
X10849051Y-10703763D01*
X10850880Y-10697768D01*
X10851997Y-10691368D01*
X10852404Y-10684510D01*
X10852404Y-10622534D01*
X10851997Y-10615676D01*
X10850880Y-10609275D01*
X10849051Y-10603280D01*
X10846511Y-10597845D01*
X10843310Y-10592866D01*
X10839500Y-10588447D01*
X10835081Y-10584637D01*
X10830102Y-10581436D01*
X10824667Y-10578896D01*
X10818672Y-10577068D01*
X10812272Y-10575950D01*
X10805414Y-10575544D01*
X10791190Y-10575544D01*
X10785602Y-10575798D01*
X10780318Y-10576560D01*
X10775391Y-10577830D01*
X10770717Y-10579557D01*
X10766348Y-10581741D01*
X10762386Y-10584332D01*
X10758678Y-10587380D01*
X10755376Y-10590784D01*
X10749026Y-10575544D01*
G37*
D10*
X10731500Y-6590284D02*
G01*
X10731500Y-6699250D01*
X10731500Y-6699250D02*
G01*
X10793729Y-6699250D01*
X10828020Y-6590284D02*
G01*
X10828020Y-6699250D01*
X10828020Y-6590284D02*
G01*
X10895584Y-6590284D01*
X10828020Y-6642100D02*
G01*
X10869675Y-6642100D01*
X10828020Y-6699250D02*
G01*
X10895584Y-6699250D01*
X10929874Y-6590284D02*
G01*
X10929874Y-6699250D01*
X10929874Y-6590284D02*
G01*
X10966450Y-6590284D01*
X10981943Y-6595363D01*
X10992358Y-6605778D01*
X10997438Y-6616192D01*
X11002772Y-6631939D01*
X11002772Y-6657847D01*
X10997438Y-6673342D01*
X10992358Y-6683755D01*
X10981943Y-6694170D01*
X10966450Y-6699250D01*
X10929874Y-6699250D01*
X11037061Y-6611112D02*
G01*
X11047475Y-6605778D01*
X11062970Y-6590284D01*
X11062970Y-6699250D01*
X11159490Y-6605778D02*
G01*
X11154409Y-6595363D01*
X11138915Y-6590284D01*
X11128502Y-6590284D01*
X11112754Y-6595363D01*
X11102340Y-6611112D01*
X11097259Y-6637020D01*
X11097259Y-6662928D01*
X11102340Y-6683755D01*
X11112754Y-6694170D01*
X11128502Y-6699250D01*
X11133581Y-6699250D01*
X11149329Y-6694170D01*
X11159490Y-6683755D01*
X11164824Y-6668262D01*
X11164824Y-6662928D01*
X11159490Y-6647434D01*
X11149329Y-6637020D01*
X11133581Y-6631939D01*
X11128502Y-6631939D01*
X11112754Y-6637020D01*
X11102340Y-6647434D01*
X11097259Y-6662928D01*
X3619500Y-6590284D02*
G01*
X3619500Y-6699250D01*
X3619500Y-6699250D02*
G01*
X3681729Y-6699250D01*
X3716020Y-6590284D02*
G01*
X3716020Y-6699250D01*
X3716020Y-6590284D02*
G01*
X3783584Y-6590284D01*
X3716020Y-6642100D02*
G01*
X3757675Y-6642100D01*
X3716020Y-6699250D02*
G01*
X3783584Y-6699250D01*
X3817874Y-6590284D02*
G01*
X3817874Y-6699250D01*
X3817874Y-6590284D02*
G01*
X3854450Y-6590284D01*
X3869943Y-6595363D01*
X3880358Y-6605778D01*
X3885438Y-6616192D01*
X3890772Y-6631939D01*
X3890772Y-6657847D01*
X3885438Y-6673342D01*
X3880358Y-6683755D01*
X3869943Y-6694170D01*
X3854450Y-6699250D01*
X3817874Y-6699250D01*
X3987291Y-6590284D02*
G01*
X3935475Y-6590284D01*
X3930141Y-6637020D01*
X3935475Y-6631939D01*
X3950970Y-6626605D01*
X3966463Y-6626605D01*
X3982211Y-6631939D01*
X3992625Y-6642100D01*
X3997706Y-6657847D01*
X3997706Y-6668262D01*
X3992625Y-6683755D01*
X3982211Y-6694170D01*
X3966463Y-6699250D01*
X3950970Y-6699250D01*
X3935475Y-6694170D01*
X3930141Y-6689089D01*
X3925061Y-6678676D01*
X4165600Y-6221984D02*
G01*
X4165600Y-6330950D01*
X4165600Y-6330950D02*
G01*
X4227829Y-6330950D01*
X4262120Y-6221984D02*
G01*
X4262120Y-6330950D01*
X4262120Y-6221984D02*
G01*
X4329684Y-6221984D01*
X4262120Y-6273800D02*
G01*
X4303775Y-6273800D01*
X4262120Y-6330950D02*
G01*
X4329684Y-6330950D01*
X4363974Y-6221984D02*
G01*
X4363974Y-6330950D01*
X4363974Y-6221984D02*
G01*
X4400550Y-6221984D01*
X4416043Y-6227063D01*
X4426458Y-6237478D01*
X4431538Y-6247892D01*
X4436872Y-6263639D01*
X4436872Y-6289547D01*
X4431538Y-6305042D01*
X4426458Y-6315455D01*
X4416043Y-6325870D01*
X4400550Y-6330950D01*
X4363974Y-6330950D01*
X4533391Y-6237478D02*
G01*
X4528311Y-6227063D01*
X4512563Y-6221984D01*
X4502150Y-6221984D01*
X4486656Y-6227063D01*
X4476241Y-6242812D01*
X4471161Y-6268720D01*
X4471161Y-6294628D01*
X4476241Y-6315455D01*
X4486656Y-6325870D01*
X4502150Y-6330950D01*
X4507484Y-6330950D01*
X4522977Y-6325870D01*
X4533391Y-6315455D01*
X4538725Y-6299962D01*
X4538725Y-6294628D01*
X4533391Y-6279134D01*
X4522977Y-6268720D01*
X4507484Y-6263639D01*
X4502150Y-6263639D01*
X4486656Y-6268720D01*
X4476241Y-6279134D01*
X4471161Y-6294628D01*
X4648200Y-6221984D02*
G01*
X4648200Y-6330950D01*
X4648200Y-6330950D02*
G01*
X4710429Y-6330950D01*
X4744720Y-6221984D02*
G01*
X4744720Y-6330950D01*
X4744720Y-6221984D02*
G01*
X4812284Y-6221984D01*
X4744720Y-6273800D02*
G01*
X4786375Y-6273800D01*
X4744720Y-6330950D02*
G01*
X4812284Y-6330950D01*
X4846574Y-6221984D02*
G01*
X4846574Y-6330950D01*
X4846574Y-6221984D02*
G01*
X4883150Y-6221984D01*
X4898643Y-6227063D01*
X4909058Y-6237478D01*
X4914138Y-6247892D01*
X4919472Y-6263639D01*
X4919472Y-6289547D01*
X4914138Y-6305042D01*
X4909058Y-6315455D01*
X4898643Y-6325870D01*
X4883150Y-6330950D01*
X4846574Y-6330950D01*
X5026406Y-6221984D02*
G01*
X4974590Y-6330950D01*
X4953761Y-6221984D02*
G01*
X5026406Y-6221984D01*
X5156200Y-6590284D02*
G01*
X5156200Y-6699250D01*
X5156200Y-6699250D02*
G01*
X5218429Y-6699250D01*
X5252720Y-6590284D02*
G01*
X5252720Y-6699250D01*
X5252720Y-6590284D02*
G01*
X5320284Y-6590284D01*
X5252720Y-6642100D02*
G01*
X5294375Y-6642100D01*
X5252720Y-6699250D02*
G01*
X5320284Y-6699250D01*
X5354574Y-6590284D02*
G01*
X5354574Y-6699250D01*
X5354574Y-6590284D02*
G01*
X5391150Y-6590284D01*
X5406643Y-6595363D01*
X5417058Y-6605778D01*
X5422138Y-6616192D01*
X5427472Y-6631939D01*
X5427472Y-6657847D01*
X5422138Y-6673342D01*
X5417058Y-6683755D01*
X5406643Y-6694170D01*
X5391150Y-6699250D01*
X5354574Y-6699250D01*
X5487670Y-6590284D02*
G01*
X5472175Y-6595363D01*
X5466841Y-6605778D01*
X5466841Y-6616192D01*
X5472175Y-6626605D01*
X5482590Y-6631939D01*
X5503163Y-6637020D01*
X5518911Y-6642100D01*
X5529325Y-6652513D01*
X5534406Y-6662928D01*
X5534406Y-6678676D01*
X5529325Y-6689089D01*
X5523991Y-6694170D01*
X5508497Y-6699250D01*
X5487670Y-6699250D01*
X5472175Y-6694170D01*
X5466841Y-6689089D01*
X5461761Y-6678676D01*
X5461761Y-6662928D01*
X5466841Y-6652513D01*
X5477256Y-6642100D01*
X5492750Y-6637020D01*
X5513577Y-6631939D01*
X5523991Y-6626605D01*
X5529325Y-6616192D01*
X5529325Y-6605778D01*
X5523991Y-6595363D01*
X5508497Y-6590284D01*
X5487670Y-6590284D01*
X6413500Y-6590284D02*
G01*
X6413500Y-6699250D01*
X6413500Y-6699250D02*
G01*
X6475729Y-6699250D01*
X6510020Y-6590284D02*
G01*
X6510020Y-6699250D01*
X6510020Y-6590284D02*
G01*
X6577584Y-6590284D01*
X6510020Y-6642100D02*
G01*
X6551675Y-6642100D01*
X6510020Y-6699250D02*
G01*
X6577584Y-6699250D01*
X6611874Y-6590284D02*
G01*
X6611874Y-6699250D01*
X6611874Y-6590284D02*
G01*
X6648450Y-6590284D01*
X6663943Y-6595363D01*
X6674358Y-6605778D01*
X6679438Y-6616192D01*
X6684772Y-6631939D01*
X6684772Y-6657847D01*
X6679438Y-6673342D01*
X6674358Y-6683755D01*
X6663943Y-6694170D01*
X6648450Y-6699250D01*
X6611874Y-6699250D01*
X6786625Y-6626605D02*
G01*
X6781291Y-6642100D01*
X6770877Y-6652513D01*
X6755384Y-6657847D01*
X6750050Y-6657847D01*
X6734556Y-6652513D01*
X6724141Y-6642100D01*
X6719061Y-6626605D01*
X6719061Y-6621526D01*
X6724141Y-6605778D01*
X6734556Y-6595363D01*
X6750050Y-6590284D01*
X6755384Y-6590284D01*
X6770877Y-6595363D01*
X6781291Y-6605778D01*
X6786625Y-6626605D01*
X6786625Y-6652513D01*
X6781291Y-6678676D01*
X6770877Y-6694170D01*
X6755384Y-6699250D01*
X6744970Y-6699250D01*
X6729475Y-6694170D01*
X6724141Y-6683755D01*
X6921500Y-6234684D02*
G01*
X6921500Y-6343650D01*
X6921500Y-6343650D02*
G01*
X6983729Y-6343650D01*
X7018020Y-6234684D02*
G01*
X7018020Y-6343650D01*
X7018020Y-6234684D02*
G01*
X7085584Y-6234684D01*
X7018020Y-6286500D02*
G01*
X7059675Y-6286500D01*
X7018020Y-6343650D02*
G01*
X7085584Y-6343650D01*
X7119874Y-6234684D02*
G01*
X7119874Y-6343650D01*
X7119874Y-6234684D02*
G01*
X7156450Y-6234684D01*
X7171943Y-6239763D01*
X7182358Y-6250178D01*
X7187438Y-6260592D01*
X7192772Y-6276339D01*
X7192772Y-6302247D01*
X7187438Y-6317742D01*
X7182358Y-6328155D01*
X7171943Y-6338570D01*
X7156450Y-6343650D01*
X7119874Y-6343650D01*
X7227061Y-6255512D02*
G01*
X7237475Y-6250178D01*
X7252970Y-6234684D01*
X7252970Y-6343650D01*
X7318502Y-6234684D02*
G01*
X7302754Y-6239763D01*
X7292340Y-6255512D01*
X7287259Y-6281420D01*
X7287259Y-6296913D01*
X7292340Y-6323076D01*
X7302754Y-6338570D01*
X7318502Y-6343650D01*
X7328915Y-6343650D01*
X7344409Y-6338570D01*
X7354824Y-6323076D01*
X7359904Y-6296913D01*
X7359904Y-6281420D01*
X7354824Y-6255512D01*
X7344409Y-6239763D01*
X7328915Y-6234684D01*
X7318502Y-6234684D01*
X7442200Y-6234684D02*
G01*
X7442200Y-6343650D01*
X7442200Y-6343650D02*
G01*
X7504429Y-6343650D01*
X7538720Y-6234684D02*
G01*
X7538720Y-6343650D01*
X7538720Y-6234684D02*
G01*
X7606284Y-6234684D01*
X7538720Y-6286500D02*
G01*
X7580375Y-6286500D01*
X7538720Y-6343650D02*
G01*
X7606284Y-6343650D01*
X7640574Y-6234684D02*
G01*
X7640574Y-6343650D01*
X7640574Y-6234684D02*
G01*
X7677150Y-6234684D01*
X7692643Y-6239763D01*
X7703058Y-6250178D01*
X7708138Y-6260592D01*
X7713472Y-6276339D01*
X7713472Y-6302247D01*
X7708138Y-6317742D01*
X7703058Y-6328155D01*
X7692643Y-6338570D01*
X7677150Y-6343650D01*
X7640574Y-6343650D01*
X7747761Y-6255512D02*
G01*
X7758175Y-6250178D01*
X7773670Y-6234684D01*
X7773670Y-6343650D01*
X7807959Y-6255512D02*
G01*
X7818374Y-6250178D01*
X7833868Y-6234684D01*
X7833868Y-6343650D01*
X7886700Y-6590284D02*
G01*
X7886700Y-6699250D01*
X7886700Y-6699250D02*
G01*
X7948929Y-6699250D01*
X7983220Y-6590284D02*
G01*
X7983220Y-6699250D01*
X7983220Y-6590284D02*
G01*
X8050784Y-6590284D01*
X7983220Y-6642100D02*
G01*
X8024875Y-6642100D01*
X7983220Y-6699250D02*
G01*
X8050784Y-6699250D01*
X8085074Y-6590284D02*
G01*
X8085074Y-6699250D01*
X8085074Y-6590284D02*
G01*
X8121650Y-6590284D01*
X8137143Y-6595363D01*
X8147558Y-6605778D01*
X8152638Y-6616192D01*
X8157972Y-6631939D01*
X8157972Y-6657847D01*
X8152638Y-6673342D01*
X8147558Y-6683755D01*
X8137143Y-6694170D01*
X8121650Y-6699250D01*
X8085074Y-6699250D01*
X8192261Y-6611112D02*
G01*
X8202675Y-6605778D01*
X8218170Y-6590284D01*
X8218170Y-6699250D01*
X8257540Y-6616192D02*
G01*
X8257540Y-6611112D01*
X8262874Y-6600697D01*
X8267954Y-6595363D01*
X8278368Y-6590284D01*
X8299195Y-6590284D01*
X8309609Y-6595363D01*
X8314690Y-6600697D01*
X8320024Y-6611112D01*
X8320024Y-6621526D01*
X8314690Y-6631939D01*
X8304529Y-6647434D01*
X8252459Y-6699250D01*
X8325104Y-6699250D01*
X9194736Y-6590220D02*
G01*
X9194736Y-6699186D01*
X9194736Y-6699186D02*
G01*
X9256966Y-6699186D01*
X9291256Y-6590220D02*
G01*
X9291256Y-6699186D01*
X9291256Y-6590220D02*
G01*
X9358820Y-6590220D01*
X9291256Y-6642036D02*
G01*
X9332912Y-6642036D01*
X9291256Y-6699186D02*
G01*
X9358820Y-6699186D01*
X9393110Y-6590220D02*
G01*
X9393110Y-6699186D01*
X9393110Y-6590220D02*
G01*
X9429686Y-6590220D01*
X9445180Y-6595300D01*
X9455594Y-6605714D01*
X9460674Y-6616128D01*
X9466008Y-6631876D01*
X9466008Y-6657784D01*
X9460674Y-6673278D01*
X9455594Y-6683692D01*
X9445180Y-6694106D01*
X9429686Y-6699186D01*
X9393110Y-6699186D01*
X9500298Y-6611048D02*
G01*
X9510712Y-6605714D01*
X9526206Y-6590220D01*
X9526206Y-6699186D01*
X9570910Y-6590220D02*
G01*
X9628060Y-6590220D01*
X9596818Y-6631876D01*
X9612566Y-6631876D01*
X9622726Y-6636956D01*
X9628060Y-6642036D01*
X9633140Y-6657784D01*
X9633140Y-6668198D01*
X9628060Y-6683692D01*
X9617646Y-6694106D01*
X9602152Y-6699186D01*
X9586404Y-6699186D01*
X9570910Y-6694106D01*
X9565576Y-6689026D01*
X9560496Y-6678612D01*
X9715500Y-6209284D02*
G01*
X9715500Y-6318250D01*
X9715500Y-6318250D02*
G01*
X9777729Y-6318250D01*
X9812020Y-6209284D02*
G01*
X9812020Y-6318250D01*
X9812020Y-6209284D02*
G01*
X9879584Y-6209284D01*
X9812020Y-6261100D02*
G01*
X9853675Y-6261100D01*
X9812020Y-6318250D02*
G01*
X9879584Y-6318250D01*
X9913874Y-6209284D02*
G01*
X9913874Y-6318250D01*
X9913874Y-6209284D02*
G01*
X9950450Y-6209284D01*
X9965943Y-6214363D01*
X9976358Y-6224778D01*
X9981438Y-6235192D01*
X9986772Y-6250939D01*
X9986772Y-6276847D01*
X9981438Y-6292342D01*
X9976358Y-6302755D01*
X9965943Y-6313170D01*
X9950450Y-6318250D01*
X9913874Y-6318250D01*
X10021061Y-6230112D02*
G01*
X10031475Y-6224778D01*
X10046970Y-6209284D01*
X10046970Y-6318250D01*
X10133329Y-6209284D02*
G01*
X10081259Y-6281928D01*
X10159238Y-6281928D01*
X10133329Y-6209284D02*
G01*
X10133329Y-6318250D01*
X10223500Y-6209284D02*
G01*
X10223500Y-6318250D01*
X10223500Y-6318250D02*
G01*
X10285729Y-6318250D01*
X10320020Y-6209284D02*
G01*
X10320020Y-6318250D01*
X10320020Y-6209284D02*
G01*
X10387584Y-6209284D01*
X10320020Y-6261100D02*
G01*
X10361675Y-6261100D01*
X10320020Y-6318250D02*
G01*
X10387584Y-6318250D01*
X10421874Y-6209284D02*
G01*
X10421874Y-6318250D01*
X10421874Y-6209284D02*
G01*
X10458450Y-6209284D01*
X10473943Y-6214363D01*
X10484358Y-6224778D01*
X10489438Y-6235192D01*
X10494772Y-6250939D01*
X10494772Y-6276847D01*
X10489438Y-6292342D01*
X10484358Y-6302755D01*
X10473943Y-6313170D01*
X10458450Y-6318250D01*
X10421874Y-6318250D01*
X10529061Y-6230112D02*
G01*
X10539475Y-6224778D01*
X10554970Y-6209284D01*
X10554970Y-6318250D01*
X10651490Y-6209284D02*
G01*
X10599674Y-6209284D01*
X10594340Y-6256020D01*
X10599674Y-6250939D01*
X10615168Y-6245605D01*
X10630915Y-6245605D01*
X10646409Y-6250939D01*
X10656824Y-6261100D01*
X10661904Y-6276847D01*
X10661904Y-6287262D01*
X10656824Y-6302755D01*
X10646409Y-6313170D01*
X10630915Y-6318250D01*
X10615168Y-6318250D01*
X10599674Y-6313170D01*
X10594340Y-6308089D01*
X10589259Y-6297676D01*
X5473700Y-12622784D02*
G01*
X5473700Y-12731750D01*
X5473700Y-12622784D02*
G01*
X5520436Y-12622784D01*
X5535929Y-12627863D01*
X5541263Y-12633197D01*
X5546343Y-12643612D01*
X5546343Y-12654026D01*
X5541263Y-12664439D01*
X5535929Y-12669520D01*
X5520436Y-12674600D01*
X5473700Y-12674600D01*
X5510022Y-12674600D02*
G01*
X5546343Y-12731750D01*
X5580634Y-12622784D02*
G01*
X5580634Y-12731750D01*
X5580634Y-12622784D02*
G01*
X5653531Y-12731750D01*
X5653531Y-12622784D02*
G01*
X5653531Y-12731750D01*
X5687822Y-12643612D02*
G01*
X5698236Y-12638278D01*
X5713729Y-12622784D01*
X5713729Y-12731750D01*
X5779261Y-12622784D02*
G01*
X5763513Y-12627863D01*
X5753100Y-12643612D01*
X5748020Y-12669520D01*
X5748020Y-12685013D01*
X5753100Y-12711176D01*
X5763513Y-12726670D01*
X5779261Y-12731750D01*
X5789675Y-12731750D01*
X5805170Y-12726670D01*
X5815584Y-12711176D01*
X5820663Y-12685013D01*
X5820663Y-12669520D01*
X5815584Y-12643612D01*
X5805170Y-12627863D01*
X5789675Y-12622784D01*
X5779261Y-12622784D01*
X1028700Y-12622784D02*
G01*
X1028700Y-12731750D01*
X1028700Y-12622784D02*
G01*
X1075436Y-12622784D01*
X1090929Y-12627863D01*
X1096263Y-12633197D01*
X1101344Y-12643612D01*
X1101344Y-12654026D01*
X1096263Y-12664439D01*
X1090929Y-12669520D01*
X1075436Y-12674600D01*
X1028700Y-12674600D01*
X1065021Y-12674600D02*
G01*
X1101344Y-12731750D01*
X1135634Y-12622784D02*
G01*
X1135634Y-12731750D01*
X1135634Y-12622784D02*
G01*
X1208531Y-12731750D01*
X1208531Y-12622784D02*
G01*
X1208531Y-12731750D01*
X1242821Y-12643612D02*
G01*
X1253236Y-12638278D01*
X1268729Y-12622784D01*
X1268729Y-12731750D01*
X1308100Y-12648692D02*
G01*
X1308100Y-12643612D01*
X1313434Y-12633197D01*
X1318513Y-12627863D01*
X1328928Y-12622784D01*
X1349755Y-12622784D01*
X1360170Y-12627863D01*
X1365250Y-12633197D01*
X1370584Y-12643612D01*
X1370584Y-12654026D01*
X1365250Y-12664439D01*
X1355089Y-12679934D01*
X1303020Y-12731750D01*
X1375663Y-12731750D01*
X10174477Y-13131292D02*
G01*
X10169143Y-13120878D01*
X10158729Y-13110463D01*
X10148570Y-13105384D01*
X10127741Y-13105384D01*
X10117327Y-13110463D01*
X10106913Y-13120878D01*
X10101579Y-13131292D01*
X10096500Y-13147039D01*
X10096500Y-13172947D01*
X10101579Y-13188442D01*
X10106913Y-13198855D01*
X10117327Y-13209270D01*
X10127741Y-13214350D01*
X10148570Y-13214350D01*
X10158729Y-13209270D01*
X10169143Y-13198855D01*
X10174477Y-13188442D01*
X10208768Y-13126212D02*
G01*
X10219181Y-13120878D01*
X10234675Y-13105384D01*
X10234675Y-13214350D01*
X10161777Y-12724892D02*
G01*
X10156443Y-12714478D01*
X10146029Y-12704063D01*
X10135870Y-12698984D01*
X10115041Y-12698984D01*
X10104627Y-12704063D01*
X10094213Y-12714478D01*
X10088879Y-12724892D01*
X10083800Y-12740639D01*
X10083800Y-12766547D01*
X10088879Y-12782042D01*
X10094213Y-12792455D01*
X10104627Y-12802870D01*
X10115041Y-12807950D01*
X10135870Y-12807950D01*
X10146029Y-12802870D01*
X10156443Y-12792455D01*
X10161777Y-12782042D01*
X10201147Y-12724892D02*
G01*
X10201147Y-12719812D01*
X10206481Y-12709397D01*
X10211561Y-12704063D01*
X10221975Y-12698984D01*
X10242804Y-12698984D01*
X10253218Y-12704063D01*
X10258297Y-12709397D01*
X10263631Y-12719812D01*
X10263631Y-12730226D01*
X10258297Y-12740639D01*
X10247884Y-12756134D01*
X10196068Y-12807950D01*
X10268711Y-12807950D01*
X736600Y-6590284D02*
G01*
X736600Y-6699250D01*
X736600Y-6699250D02*
G01*
X798829Y-6699250D01*
X833120Y-6590284D02*
G01*
X833120Y-6699250D01*
X833120Y-6590284D02*
G01*
X900684Y-6590284D01*
X833120Y-6642100D02*
G01*
X874776Y-6642100D01*
X833120Y-6699250D02*
G01*
X900684Y-6699250D01*
X934973Y-6590284D02*
G01*
X934973Y-6699250D01*
X934973Y-6590284D02*
G01*
X971550Y-6590284D01*
X987044Y-6595363D01*
X997457Y-6605778D01*
X1002537Y-6616192D01*
X1007871Y-6631939D01*
X1007871Y-6657847D01*
X1002537Y-6673342D01*
X997457Y-6683755D01*
X987044Y-6694170D01*
X971550Y-6699250D01*
X934973Y-6699250D01*
X1042162Y-6611112D02*
G01*
X1052576Y-6605778D01*
X1068070Y-6590284D01*
X1068070Y-6699250D01*
X1358900Y-6234684D02*
G01*
X1358900Y-6343650D01*
X1358900Y-6343650D02*
G01*
X1421129Y-6343650D01*
X1455420Y-6234684D02*
G01*
X1455420Y-6343650D01*
X1455420Y-6234684D02*
G01*
X1522984Y-6234684D01*
X1455420Y-6286500D02*
G01*
X1497076Y-6286500D01*
X1455420Y-6343650D02*
G01*
X1522984Y-6343650D01*
X1557273Y-6234684D02*
G01*
X1557273Y-6343650D01*
X1557273Y-6234684D02*
G01*
X1593850Y-6234684D01*
X1609344Y-6239763D01*
X1619757Y-6250178D01*
X1624837Y-6260592D01*
X1630171Y-6276339D01*
X1630171Y-6302247D01*
X1624837Y-6317742D01*
X1619757Y-6328155D01*
X1609344Y-6338570D01*
X1593850Y-6343650D01*
X1557273Y-6343650D01*
X1669542Y-6260592D02*
G01*
X1669542Y-6255512D01*
X1674876Y-6245097D01*
X1679955Y-6239763D01*
X1690370Y-6234684D01*
X1711197Y-6234684D01*
X1721612Y-6239763D01*
X1726692Y-6245097D01*
X1732026Y-6255512D01*
X1732026Y-6265926D01*
X1726692Y-6276339D01*
X1716278Y-6291834D01*
X1664462Y-6343650D01*
X1737105Y-6343650D01*
X1866900Y-6234684D02*
G01*
X1866900Y-6343650D01*
X1866900Y-6343650D02*
G01*
X1929129Y-6343650D01*
X1963420Y-6234684D02*
G01*
X1963420Y-6343650D01*
X1963420Y-6234684D02*
G01*
X2030984Y-6234684D01*
X1963420Y-6286500D02*
G01*
X2005075Y-6286500D01*
X1963420Y-6343650D02*
G01*
X2030984Y-6343650D01*
X2065274Y-6234684D02*
G01*
X2065274Y-6343650D01*
X2065274Y-6234684D02*
G01*
X2101850Y-6234684D01*
X2117343Y-6239763D01*
X2127758Y-6250178D01*
X2132838Y-6260592D01*
X2138172Y-6276339D01*
X2138172Y-6302247D01*
X2132838Y-6317742D01*
X2127758Y-6328155D01*
X2117343Y-6338570D01*
X2101850Y-6343650D01*
X2065274Y-6343650D01*
X2182875Y-6234684D02*
G01*
X2240025Y-6234684D01*
X2208784Y-6276339D01*
X2224277Y-6276339D01*
X2234691Y-6281420D01*
X2240025Y-6286500D01*
X2245106Y-6302247D01*
X2245106Y-6312662D01*
X2240025Y-6328155D01*
X2229611Y-6338570D01*
X2213863Y-6343650D01*
X2198370Y-6343650D01*
X2182875Y-6338570D01*
X2177541Y-6333489D01*
X2172461Y-6323076D01*
X2374900Y-6590284D02*
G01*
X2374900Y-6699250D01*
X2374900Y-6699250D02*
G01*
X2437129Y-6699250D01*
X2471420Y-6590284D02*
G01*
X2471420Y-6699250D01*
X2471420Y-6590284D02*
G01*
X2538984Y-6590284D01*
X2471420Y-6642100D02*
G01*
X2513075Y-6642100D01*
X2471420Y-6699250D02*
G01*
X2538984Y-6699250D01*
X2573274Y-6590284D02*
G01*
X2573274Y-6699250D01*
X2573274Y-6590284D02*
G01*
X2609850Y-6590284D01*
X2625343Y-6595363D01*
X2635758Y-6605778D01*
X2640838Y-6616192D01*
X2646172Y-6631939D01*
X2646172Y-6657847D01*
X2640838Y-6673342D01*
X2635758Y-6683755D01*
X2625343Y-6694170D01*
X2609850Y-6699250D01*
X2573274Y-6699250D01*
X2732277Y-6590284D02*
G01*
X2680461Y-6662928D01*
X2758440Y-6662928D01*
X2732277Y-6590284D02*
G01*
X2732277Y-6699250D01*
X11417300Y-12698984D02*
G01*
X11417300Y-12807950D01*
X11417300Y-12807950D02*
G01*
X11479529Y-12807950D01*
X11513820Y-12698984D02*
G01*
X11513820Y-12807950D01*
X11513820Y-12698984D02*
G01*
X11581384Y-12698984D01*
X11513820Y-12750800D02*
G01*
X11555475Y-12750800D01*
X11513820Y-12807950D02*
G01*
X11581384Y-12807950D01*
X11615674Y-12698984D02*
G01*
X11615674Y-12807950D01*
X11615674Y-12698984D02*
G01*
X11652250Y-12698984D01*
X11667743Y-12704063D01*
X11678158Y-12714478D01*
X11683238Y-12724892D01*
X11688572Y-12740639D01*
X11688572Y-12766547D01*
X11683238Y-12782042D01*
X11678158Y-12792455D01*
X11667743Y-12802870D01*
X11652250Y-12807950D01*
X11615674Y-12807950D01*
X11722861Y-12719812D02*
G01*
X11733275Y-12714478D01*
X11748770Y-12698984D01*
X11748770Y-12807950D01*
X11855704Y-12698984D02*
G01*
X11803888Y-12807950D01*
X11783059Y-12698984D02*
G01*
X11855704Y-12698984D01*
X5676900Y-11505184D02*
G01*
X5676900Y-11614150D01*
X5676900Y-11614150D02*
G01*
X5739129Y-11614150D01*
X5773420Y-11505184D02*
G01*
X5773420Y-11614150D01*
X5773420Y-11505184D02*
G01*
X5840984Y-11505184D01*
X5773420Y-11557000D02*
G01*
X5815075Y-11557000D01*
X5773420Y-11614150D02*
G01*
X5840984Y-11614150D01*
X5875274Y-11505184D02*
G01*
X5875274Y-11614150D01*
X5875274Y-11505184D02*
G01*
X5911850Y-11505184D01*
X5927343Y-11510263D01*
X5937758Y-11520678D01*
X5942838Y-11531092D01*
X5948172Y-11546839D01*
X5948172Y-11572747D01*
X5942838Y-11588242D01*
X5937758Y-11598655D01*
X5927343Y-11609070D01*
X5911850Y-11614150D01*
X5875274Y-11614150D01*
X5982461Y-11526012D02*
G01*
X5992875Y-11520678D01*
X6008370Y-11505184D01*
X6008370Y-11614150D01*
X6068568Y-11505184D02*
G01*
X6053074Y-11510263D01*
X6047740Y-11520678D01*
X6047740Y-11531092D01*
X6053074Y-11541505D01*
X6063488Y-11546839D01*
X6084315Y-11551920D01*
X6099809Y-11557000D01*
X6110224Y-11567413D01*
X6115304Y-11577828D01*
X6115304Y-11593576D01*
X6110224Y-11603989D01*
X6104890Y-11609070D01*
X6089395Y-11614150D01*
X6068568Y-11614150D01*
X6053074Y-11609070D01*
X6047740Y-11603989D01*
X6042659Y-11593576D01*
X6042659Y-11577828D01*
X6047740Y-11567413D01*
X6058154Y-11557000D01*
X6073902Y-11551920D01*
X6094729Y-11546839D01*
X6104890Y-11541505D01*
X6110224Y-11531092D01*
X6110224Y-11520678D01*
X6104890Y-11510263D01*
X6089395Y-11505184D01*
X6068568Y-11505184D01*
X6629400Y-11314684D02*
G01*
X6629400Y-11423650D01*
X6629400Y-11423650D02*
G01*
X6691629Y-11423650D01*
X6725920Y-11314684D02*
G01*
X6725920Y-11423650D01*
X6725920Y-11314684D02*
G01*
X6793484Y-11314684D01*
X6725920Y-11366500D02*
G01*
X6767575Y-11366500D01*
X6725920Y-11423650D02*
G01*
X6793484Y-11423650D01*
X6827774Y-11314684D02*
G01*
X6827774Y-11423650D01*
X6827774Y-11314684D02*
G01*
X6864350Y-11314684D01*
X6879843Y-11319763D01*
X6890258Y-11330178D01*
X6895338Y-11340592D01*
X6900672Y-11356339D01*
X6900672Y-11382247D01*
X6895338Y-11397742D01*
X6890258Y-11408155D01*
X6879843Y-11418570D01*
X6864350Y-11423650D01*
X6827774Y-11423650D01*
X6934961Y-11335512D02*
G01*
X6945375Y-11330178D01*
X6960870Y-11314684D01*
X6960870Y-11423650D01*
X7062724Y-11351005D02*
G01*
X7057390Y-11366500D01*
X7047229Y-11376913D01*
X7031481Y-11382247D01*
X7026402Y-11382247D01*
X7010654Y-11376913D01*
X7000240Y-11366500D01*
X6995159Y-11351005D01*
X6995159Y-11345926D01*
X7000240Y-11330178D01*
X7010654Y-11319763D01*
X7026402Y-11314684D01*
X7031481Y-11314684D01*
X7047229Y-11319763D01*
X7057390Y-11330178D01*
X7062724Y-11351005D01*
X7062724Y-11376913D01*
X7057390Y-11403076D01*
X7047229Y-11418570D01*
X7031481Y-11423650D01*
X7021068Y-11423650D01*
X7005574Y-11418570D01*
X7000240Y-11408155D01*
X7124700Y-11314684D02*
G01*
X7124700Y-11423650D01*
X7124700Y-11423650D02*
G01*
X7186929Y-11423650D01*
X7221220Y-11314684D02*
G01*
X7221220Y-11423650D01*
X7221220Y-11314684D02*
G01*
X7288784Y-11314684D01*
X7221220Y-11366500D02*
G01*
X7262875Y-11366500D01*
X7221220Y-11423650D02*
G01*
X7288784Y-11423650D01*
X7323074Y-11314684D02*
G01*
X7323074Y-11423650D01*
X7323074Y-11314684D02*
G01*
X7359650Y-11314684D01*
X7375143Y-11319763D01*
X7385558Y-11330178D01*
X7390638Y-11340592D01*
X7395972Y-11356339D01*
X7395972Y-11382247D01*
X7390638Y-11397742D01*
X7385558Y-11408155D01*
X7375143Y-11418570D01*
X7359650Y-11423650D01*
X7323074Y-11423650D01*
X7435341Y-11340592D02*
G01*
X7435341Y-11335512D01*
X7440675Y-11325097D01*
X7445756Y-11319763D01*
X7456170Y-11314684D01*
X7476997Y-11314684D01*
X7487411Y-11319763D01*
X7492491Y-11325097D01*
X7497825Y-11335512D01*
X7497825Y-11345926D01*
X7492491Y-11356339D01*
X7482077Y-11371834D01*
X7430261Y-11423650D01*
X7502906Y-11423650D01*
X7568438Y-11314684D02*
G01*
X7552690Y-11319763D01*
X7542529Y-11335512D01*
X7537195Y-11361420D01*
X7537195Y-11376913D01*
X7542529Y-11403076D01*
X7552690Y-11418570D01*
X7568438Y-11423650D01*
X7578852Y-11423650D01*
X7594345Y-11418570D01*
X7604759Y-11403076D01*
X7609840Y-11376913D01*
X7609840Y-11361420D01*
X7604759Y-11335512D01*
X7594345Y-11319763D01*
X7578852Y-11314684D01*
X7568438Y-11314684D01*
X8026400Y-11505184D02*
G01*
X8026400Y-11614150D01*
X8026400Y-11614150D02*
G01*
X8088629Y-11614150D01*
X8122920Y-11505184D02*
G01*
X8122920Y-11614150D01*
X8122920Y-11505184D02*
G01*
X8190484Y-11505184D01*
X8122920Y-11557000D02*
G01*
X8164575Y-11557000D01*
X8122920Y-11614150D02*
G01*
X8190484Y-11614150D01*
X8224774Y-11505184D02*
G01*
X8224774Y-11614150D01*
X8224774Y-11505184D02*
G01*
X8261350Y-11505184D01*
X8276843Y-11510263D01*
X8287258Y-11520678D01*
X8292338Y-11531092D01*
X8297672Y-11546839D01*
X8297672Y-11572747D01*
X8292338Y-11588242D01*
X8287258Y-11598655D01*
X8276843Y-11609070D01*
X8261350Y-11614150D01*
X8224774Y-11614150D01*
X8337041Y-11531092D02*
G01*
X8337041Y-11526012D01*
X8342375Y-11515597D01*
X8347456Y-11510263D01*
X8357870Y-11505184D01*
X8378697Y-11505184D01*
X8389111Y-11510263D01*
X8394191Y-11515597D01*
X8399525Y-11526012D01*
X8399525Y-11536426D01*
X8394191Y-11546839D01*
X8383777Y-11562334D01*
X8331961Y-11614150D01*
X8404606Y-11614150D01*
X8438895Y-11526012D02*
G01*
X8449309Y-11520678D01*
X8464804Y-11505184D01*
X8464804Y-11614150D01*
X3619500Y-11505184D02*
G01*
X3619500Y-11614150D01*
X3619500Y-11614150D02*
G01*
X3681729Y-11614150D01*
X3716020Y-11505184D02*
G01*
X3716020Y-11614150D01*
X3716020Y-11505184D02*
G01*
X3783584Y-11505184D01*
X3716020Y-11557000D02*
G01*
X3757675Y-11557000D01*
X3716020Y-11614150D02*
G01*
X3783584Y-11614150D01*
X3817874Y-11505184D02*
G01*
X3817874Y-11614150D01*
X3817874Y-11505184D02*
G01*
X3854450Y-11505184D01*
X3869943Y-11510263D01*
X3880358Y-11520678D01*
X3885438Y-11531092D01*
X3890772Y-11546839D01*
X3890772Y-11572747D01*
X3885438Y-11588242D01*
X3880358Y-11598655D01*
X3869943Y-11609070D01*
X3854450Y-11614150D01*
X3817874Y-11614150D01*
X3930141Y-11531092D02*
G01*
X3930141Y-11526012D01*
X3935475Y-11515597D01*
X3940556Y-11510263D01*
X3950970Y-11505184D01*
X3971797Y-11505184D01*
X3982211Y-11510263D01*
X3987291Y-11515597D01*
X3992625Y-11526012D01*
X3992625Y-11536426D01*
X3987291Y-11546839D01*
X3976877Y-11562334D01*
X3925061Y-11614150D01*
X3997706Y-11614150D01*
X4037329Y-11531092D02*
G01*
X4037329Y-11526012D01*
X4042409Y-11515597D01*
X4047490Y-11510263D01*
X4057904Y-11505184D01*
X4078731Y-11505184D01*
X4089145Y-11510263D01*
X4094479Y-11515597D01*
X4099559Y-11526012D01*
X4099559Y-11536426D01*
X4094479Y-11546839D01*
X4084065Y-11562334D01*
X4031995Y-11614150D01*
X4104640Y-11614150D01*
X2692400Y-11301984D02*
G01*
X2692400Y-11410950D01*
X2692400Y-11410950D02*
G01*
X2754629Y-11410950D01*
X2788920Y-11301984D02*
G01*
X2788920Y-11410950D01*
X2788920Y-11301984D02*
G01*
X2856484Y-11301984D01*
X2788920Y-11353800D02*
G01*
X2830575Y-11353800D01*
X2788920Y-11410950D02*
G01*
X2856484Y-11410950D01*
X2890774Y-11301984D02*
G01*
X2890774Y-11410950D01*
X2890774Y-11301984D02*
G01*
X2927350Y-11301984D01*
X2942843Y-11307063D01*
X2953258Y-11317478D01*
X2958338Y-11327892D01*
X2963672Y-11343639D01*
X2963672Y-11369547D01*
X2958338Y-11385042D01*
X2953258Y-11395455D01*
X2942843Y-11405870D01*
X2927350Y-11410950D01*
X2890774Y-11410950D01*
X3003041Y-11327892D02*
G01*
X3003041Y-11322812D01*
X3008375Y-11312397D01*
X3013456Y-11307063D01*
X3023870Y-11301984D01*
X3044697Y-11301984D01*
X3055111Y-11307063D01*
X3060191Y-11312397D01*
X3065525Y-11322812D01*
X3065525Y-11333226D01*
X3060191Y-11343639D01*
X3049777Y-11359134D01*
X2997961Y-11410950D01*
X3070606Y-11410950D01*
X3115309Y-11301984D02*
G01*
X3172459Y-11301984D01*
X3141218Y-11343639D01*
X3156965Y-11343639D01*
X3167379Y-11348720D01*
X3172459Y-11353800D01*
X3177540Y-11369547D01*
X3177540Y-11379962D01*
X3172459Y-11395455D01*
X3162045Y-11405870D01*
X3146552Y-11410950D01*
X3130804Y-11410950D01*
X3115309Y-11405870D01*
X3110229Y-11400789D01*
X3104895Y-11390376D01*
X2146300Y-11301984D02*
G01*
X2146300Y-11410950D01*
X2146300Y-11410950D02*
G01*
X2208529Y-11410950D01*
X2242820Y-11301984D02*
G01*
X2242820Y-11410950D01*
X2242820Y-11301984D02*
G01*
X2310384Y-11301984D01*
X2242820Y-11353800D02*
G01*
X2284475Y-11353800D01*
X2242820Y-11410950D02*
G01*
X2310384Y-11410950D01*
X2344674Y-11301984D02*
G01*
X2344674Y-11410950D01*
X2344674Y-11301984D02*
G01*
X2381250Y-11301984D01*
X2396743Y-11307063D01*
X2407158Y-11317478D01*
X2412238Y-11327892D01*
X2417572Y-11343639D01*
X2417572Y-11369547D01*
X2412238Y-11385042D01*
X2407158Y-11395455D01*
X2396743Y-11405870D01*
X2381250Y-11410950D01*
X2344674Y-11410950D01*
X2456941Y-11327892D02*
G01*
X2456941Y-11322812D01*
X2462275Y-11312397D01*
X2467356Y-11307063D01*
X2477770Y-11301984D01*
X2498597Y-11301984D01*
X2509011Y-11307063D01*
X2514091Y-11312397D01*
X2519425Y-11322812D01*
X2519425Y-11333226D01*
X2514091Y-11343639D01*
X2503677Y-11359134D01*
X2451861Y-11410950D01*
X2524506Y-11410950D01*
X2610865Y-11301984D02*
G01*
X2558795Y-11374628D01*
X2636774Y-11374628D01*
X2610865Y-11301984D02*
G01*
X2610865Y-11410950D01*
X1168400Y-11505184D02*
G01*
X1168400Y-11614150D01*
X1168400Y-11614150D02*
G01*
X1230629Y-11614150D01*
X1264920Y-11505184D02*
G01*
X1264920Y-11614150D01*
X1264920Y-11505184D02*
G01*
X1332484Y-11505184D01*
X1264920Y-11557000D02*
G01*
X1306576Y-11557000D01*
X1264920Y-11614150D02*
G01*
X1332484Y-11614150D01*
X1366773Y-11505184D02*
G01*
X1366773Y-11614150D01*
X1366773Y-11505184D02*
G01*
X1403350Y-11505184D01*
X1418844Y-11510263D01*
X1429257Y-11520678D01*
X1434337Y-11531092D01*
X1439671Y-11546839D01*
X1439671Y-11572747D01*
X1434337Y-11588242D01*
X1429257Y-11598655D01*
X1418844Y-11609070D01*
X1403350Y-11614150D01*
X1366773Y-11614150D01*
X1479042Y-11531092D02*
G01*
X1479042Y-11526012D01*
X1484376Y-11515597D01*
X1489455Y-11510263D01*
X1499870Y-11505184D01*
X1520697Y-11505184D01*
X1531112Y-11510263D01*
X1536192Y-11515597D01*
X1541526Y-11526012D01*
X1541526Y-11536426D01*
X1536192Y-11546839D01*
X1525778Y-11562334D01*
X1473962Y-11614150D01*
X1546605Y-11614150D01*
X1643379Y-11505184D02*
G01*
X1591310Y-11505184D01*
X1586229Y-11551920D01*
X1591310Y-11546839D01*
X1606804Y-11541505D01*
X1622552Y-11541505D01*
X1638045Y-11546839D01*
X1648460Y-11557000D01*
X1653539Y-11572747D01*
X1653539Y-11583162D01*
X1648460Y-11598655D01*
X1638045Y-11609070D01*
X1622552Y-11614150D01*
X1606804Y-11614150D01*
X1591310Y-11609070D01*
X1586229Y-11603989D01*
X1580895Y-11593576D01*
X1739900Y-6971284D02*
G01*
X1739900Y-7080250D01*
X1739900Y-6971284D02*
G01*
X1786636Y-6971284D01*
X1802129Y-6976363D01*
X1807463Y-6981697D01*
X1812544Y-6992112D01*
X1812544Y-7007605D01*
X1807463Y-7018020D01*
X1802129Y-7023100D01*
X1786636Y-7028434D01*
X1739900Y-7028434D01*
X1846834Y-6992112D02*
G01*
X1857247Y-6986778D01*
X1872995Y-6971284D01*
X1872995Y-7080250D01*
X1689100Y-9015984D02*
G01*
X1689100Y-9124950D01*
X1689100Y-9015984D02*
G01*
X1735836Y-9015984D01*
X1751329Y-9021063D01*
X1756663Y-9026397D01*
X1761744Y-9036812D01*
X1761744Y-9052305D01*
X1756663Y-9062720D01*
X1751329Y-9067800D01*
X1735836Y-9073134D01*
X1689100Y-9073134D01*
X1801368Y-9041892D02*
G01*
X1801368Y-9036812D01*
X1806447Y-9026397D01*
X1811781Y-9021063D01*
X1822195Y-9015984D01*
X1842770Y-9015984D01*
X1853184Y-9021063D01*
X1858518Y-9026397D01*
X1863597Y-9036812D01*
X1863597Y-9047226D01*
X1858518Y-9057639D01*
X1848104Y-9073134D01*
X1796034Y-9124950D01*
X1868931Y-9124950D01*
X4508500Y-6971284D02*
G01*
X4508500Y-7080250D01*
X4508500Y-6971284D02*
G01*
X4555236Y-6971284D01*
X4570729Y-6976363D01*
X4576063Y-6981697D01*
X4581143Y-6992112D01*
X4581143Y-7007605D01*
X4576063Y-7018020D01*
X4570729Y-7023100D01*
X4555236Y-7028434D01*
X4508500Y-7028434D01*
X4625847Y-6971284D02*
G01*
X4682997Y-6971284D01*
X4652009Y-7012939D01*
X4667504Y-7012939D01*
X4677918Y-7018020D01*
X4682997Y-7023100D01*
X4688331Y-7038847D01*
X4688331Y-7049262D01*
X4682997Y-7064755D01*
X4672584Y-7075170D01*
X4657090Y-7080250D01*
X4641595Y-7080250D01*
X4625847Y-7075170D01*
X4620768Y-7070089D01*
X4615434Y-7059676D01*
X4508500Y-9015984D02*
G01*
X4508500Y-9124950D01*
X4508500Y-9015984D02*
G01*
X4555236Y-9015984D01*
X4570729Y-9021063D01*
X4576063Y-9026397D01*
X4581143Y-9036812D01*
X4581143Y-9052305D01*
X4576063Y-9062720D01*
X4570729Y-9067800D01*
X4555236Y-9073134D01*
X4508500Y-9073134D01*
X4667504Y-9015984D02*
G01*
X4615434Y-9088628D01*
X4693411Y-9088628D01*
X4667504Y-9015984D02*
G01*
X4667504Y-9124950D01*
X7277100Y-6971284D02*
G01*
X7277100Y-7080250D01*
X7277100Y-6971284D02*
G01*
X7323836Y-6971284D01*
X7339329Y-6976363D01*
X7344663Y-6981697D01*
X7349743Y-6992112D01*
X7349743Y-7007605D01*
X7344663Y-7018020D01*
X7339329Y-7023100D01*
X7323836Y-7028434D01*
X7277100Y-7028434D01*
X7446518Y-6971284D02*
G01*
X7394447Y-6971284D01*
X7389368Y-7018020D01*
X7394447Y-7012939D01*
X7410195Y-7007605D01*
X7425690Y-7007605D01*
X7441184Y-7012939D01*
X7451597Y-7023100D01*
X7456931Y-7038847D01*
X7456931Y-7049262D01*
X7451597Y-7064755D01*
X7441184Y-7075170D01*
X7425690Y-7080250D01*
X7410195Y-7080250D01*
X7394447Y-7075170D01*
X7389368Y-7070089D01*
X7384034Y-7059676D01*
X7289800Y-9028684D02*
G01*
X7289800Y-9137650D01*
X7289800Y-9028684D02*
G01*
X7336536Y-9028684D01*
X7352029Y-9033763D01*
X7357363Y-9039097D01*
X7362443Y-9049512D01*
X7362443Y-9065005D01*
X7357363Y-9075420D01*
X7352029Y-9080500D01*
X7336536Y-9085834D01*
X7289800Y-9085834D01*
X7459218Y-9044178D02*
G01*
X7453884Y-9033763D01*
X7438390Y-9028684D01*
X7427975Y-9028684D01*
X7412481Y-9033763D01*
X7402068Y-9049512D01*
X7396734Y-9075420D01*
X7396734Y-9101328D01*
X7402068Y-9122155D01*
X7412481Y-9132570D01*
X7427975Y-9137650D01*
X7433309Y-9137650D01*
X7448804Y-9132570D01*
X7459218Y-9122155D01*
X7464297Y-9106662D01*
X7464297Y-9101328D01*
X7459218Y-9085834D01*
X7448804Y-9075420D01*
X7433309Y-9070339D01*
X7427975Y-9070339D01*
X7412481Y-9075420D01*
X7402068Y-9085834D01*
X7396734Y-9101328D01*
X10096500Y-6971284D02*
G01*
X10096500Y-7080250D01*
X10096500Y-6971284D02*
G01*
X10143236Y-6971284D01*
X10158729Y-6976363D01*
X10164063Y-6981697D01*
X10169143Y-6992112D01*
X10169143Y-7007605D01*
X10164063Y-7018020D01*
X10158729Y-7023100D01*
X10143236Y-7028434D01*
X10096500Y-7028434D01*
X10276331Y-6971284D02*
G01*
X10224261Y-7080250D01*
X10203434Y-6971284D02*
G01*
X10276331Y-6971284D01*
X10096500Y-9028684D02*
G01*
X10096500Y-9137650D01*
X10096500Y-9028684D02*
G01*
X10143236Y-9028684D01*
X10158729Y-9033763D01*
X10164063Y-9039097D01*
X10169143Y-9049512D01*
X10169143Y-9065005D01*
X10164063Y-9075420D01*
X10158729Y-9080500D01*
X10143236Y-9085834D01*
X10096500Y-9085834D01*
X10229595Y-9028684D02*
G01*
X10213847Y-9033763D01*
X10208768Y-9044178D01*
X10208768Y-9054592D01*
X10213847Y-9065005D01*
X10224261Y-9070339D01*
X10245090Y-9075420D01*
X10260584Y-9080500D01*
X10270997Y-9090913D01*
X10276331Y-9101328D01*
X10276331Y-9117076D01*
X10270997Y-9127489D01*
X10265918Y-9132570D01*
X10250170Y-9137650D01*
X10229595Y-9137650D01*
X10213847Y-9132570D01*
X10208768Y-9127489D01*
X10203434Y-9117076D01*
X10203434Y-9101328D01*
X10208768Y-9090913D01*
X10219181Y-9080500D01*
X10234675Y-9075420D01*
X10255504Y-9070339D01*
X10265918Y-9065005D01*
X10270997Y-9054592D01*
X10270997Y-9044178D01*
X10265918Y-9033763D01*
X10250170Y-9028684D01*
X10229595Y-9028684D01*
X6997700Y-13524484D02*
G01*
X6997700Y-13633450D01*
X6997700Y-13524484D02*
G01*
X7044436Y-13524484D01*
X7059929Y-13529563D01*
X7065263Y-13534897D01*
X7070343Y-13545312D01*
X7070343Y-13560805D01*
X7065263Y-13571220D01*
X7059929Y-13576300D01*
X7044436Y-13581634D01*
X6997700Y-13581634D01*
X7172197Y-13560805D02*
G01*
X7167118Y-13576300D01*
X7156704Y-13586713D01*
X7141209Y-13592047D01*
X7135875Y-13592047D01*
X7120381Y-13586713D01*
X7109968Y-13576300D01*
X7104634Y-13560805D01*
X7104634Y-13555726D01*
X7109968Y-13539978D01*
X7120381Y-13529563D01*
X7135875Y-13524484D01*
X7141209Y-13524484D01*
X7156704Y-13529563D01*
X7167118Y-13539978D01*
X7172197Y-13560805D01*
X7172197Y-13586713D01*
X7167118Y-13612876D01*
X7156704Y-13628370D01*
X7141209Y-13633450D01*
X7130795Y-13633450D01*
X7115047Y-13628370D01*
X7109968Y-13617955D01*
X6959600Y-12749784D02*
G01*
X6959600Y-12858750D01*
X6959600Y-12749784D02*
G01*
X7006336Y-12749784D01*
X7021829Y-12754863D01*
X7027163Y-12760197D01*
X7032243Y-12770612D01*
X7032243Y-12786105D01*
X7027163Y-12796520D01*
X7021829Y-12801600D01*
X7006336Y-12806934D01*
X6959600Y-12806934D01*
X7066534Y-12770612D02*
G01*
X7076947Y-12765278D01*
X7092695Y-12749784D01*
X7092695Y-12858750D01*
X7157974Y-12749784D02*
G01*
X7142479Y-12754863D01*
X7132065Y-12770612D01*
X7126986Y-12796520D01*
X7126986Y-12812013D01*
X7132065Y-12838176D01*
X7142479Y-12853670D01*
X7157974Y-12858750D01*
X7168388Y-12858750D01*
X7184136Y-12853670D01*
X7194550Y-12838176D01*
X7199629Y-12812013D01*
X7199629Y-12796520D01*
X7194550Y-12770612D01*
X7184136Y-12754863D01*
X7168388Y-12749784D01*
X7157974Y-12749784D01*
X2527300Y-12737084D02*
G01*
X2527300Y-12846050D01*
X2527300Y-12737084D02*
G01*
X2574036Y-12737084D01*
X2589529Y-12742163D01*
X2594863Y-12747497D01*
X2599943Y-12757912D01*
X2599943Y-12773405D01*
X2594863Y-12783820D01*
X2589529Y-12788900D01*
X2574036Y-12794234D01*
X2527300Y-12794234D01*
X2634234Y-12757912D02*
G01*
X2644647Y-12752578D01*
X2660395Y-12737084D01*
X2660395Y-12846050D01*
X2699765Y-12762992D02*
G01*
X2699765Y-12757912D01*
X2705100Y-12747497D01*
X2710179Y-12742163D01*
X2720593Y-12737084D01*
X2741422Y-12737084D01*
X2751836Y-12742163D01*
X2756915Y-12747497D01*
X2762250Y-12757912D01*
X2762250Y-12768326D01*
X2756915Y-12778739D01*
X2746502Y-12794234D01*
X2694686Y-12846050D01*
X2767329Y-12846050D01*
X11112500Y-13549884D02*
G01*
X11112500Y-13658850D01*
X11112500Y-13549884D02*
G01*
X11159236Y-13549884D01*
X11174729Y-13554963D01*
X11180063Y-13560297D01*
X11185143Y-13570712D01*
X11185143Y-13581126D01*
X11180063Y-13591539D01*
X11174729Y-13596620D01*
X11159236Y-13601700D01*
X11112500Y-13601700D01*
X11148822Y-13601700D02*
G01*
X11185143Y-13658850D01*
X11219434Y-13570712D02*
G01*
X11229847Y-13565378D01*
X11245595Y-13549884D01*
X11245595Y-13658850D01*
X1955800Y-6755384D02*
G01*
X1955800Y-6864350D01*
X1955800Y-6755384D02*
G01*
X2002536Y-6755384D01*
X2018029Y-6760463D01*
X2023363Y-6765797D01*
X2028443Y-6776212D01*
X2028443Y-6786626D01*
X2023363Y-6797039D01*
X2018029Y-6802120D01*
X2002536Y-6807200D01*
X1955800Y-6807200D01*
X1992122Y-6807200D02*
G01*
X2028443Y-6864350D01*
X2062734Y-6755384D02*
G01*
X2062734Y-6864350D01*
X2062734Y-6755384D02*
G01*
X2135631Y-6864350D01*
X2135631Y-6755384D02*
G01*
X2135631Y-6864350D01*
X2169922Y-6776212D02*
G01*
X2180336Y-6770878D01*
X2195829Y-6755384D01*
X2195829Y-6864350D01*
X1638300Y-10273284D02*
G01*
X1638300Y-10382250D01*
X1638300Y-10273284D02*
G01*
X1685036Y-10273284D01*
X1700529Y-10278363D01*
X1705863Y-10283697D01*
X1710944Y-10294112D01*
X1710944Y-10304526D01*
X1705863Y-10314939D01*
X1700529Y-10320020D01*
X1685036Y-10325100D01*
X1638300Y-10325100D01*
X1674621Y-10325100D02*
G01*
X1710944Y-10382250D01*
X1745234Y-10273284D02*
G01*
X1745234Y-10382250D01*
X1745234Y-10273284D02*
G01*
X1818131Y-10382250D01*
X1818131Y-10273284D02*
G01*
X1818131Y-10382250D01*
X1857502Y-10299192D02*
G01*
X1857502Y-10294112D01*
X1862836Y-10283697D01*
X1867915Y-10278363D01*
X1878329Y-10273284D01*
X1899157Y-10273284D01*
X1909571Y-10278363D01*
X1914652Y-10283697D01*
X1919986Y-10294112D01*
X1919986Y-10304526D01*
X1914652Y-10314939D01*
X1904237Y-10330434D01*
X1852421Y-10382250D01*
X1925065Y-10382250D01*
X4762500Y-6755384D02*
G01*
X4762500Y-6864350D01*
X4762500Y-6755384D02*
G01*
X4809236Y-6755384D01*
X4824729Y-6760463D01*
X4830063Y-6765797D01*
X4835143Y-6776212D01*
X4835143Y-6786626D01*
X4830063Y-6797039D01*
X4824729Y-6802120D01*
X4809236Y-6807200D01*
X4762500Y-6807200D01*
X4798822Y-6807200D02*
G01*
X4835143Y-6864350D01*
X4869434Y-6755384D02*
G01*
X4869434Y-6864350D01*
X4869434Y-6755384D02*
G01*
X4942331Y-6864350D01*
X4942331Y-6755384D02*
G01*
X4942331Y-6864350D01*
X4987036Y-6755384D02*
G01*
X5044186Y-6755384D01*
X5012943Y-6797039D01*
X5028438Y-6797039D01*
X5038852Y-6802120D01*
X5044186Y-6807200D01*
X5049265Y-6822947D01*
X5049265Y-6833362D01*
X5044186Y-6848855D01*
X5033772Y-6859270D01*
X5018024Y-6864350D01*
X5002529Y-6864350D01*
X4987036Y-6859270D01*
X4981702Y-6854189D01*
X4976622Y-6843776D01*
X4432300Y-10273284D02*
G01*
X4432300Y-10382250D01*
X4432300Y-10273284D02*
G01*
X4479036Y-10273284D01*
X4494529Y-10278363D01*
X4499863Y-10283697D01*
X4504943Y-10294112D01*
X4504943Y-10304526D01*
X4499863Y-10314939D01*
X4494529Y-10320020D01*
X4479036Y-10325100D01*
X4432300Y-10325100D01*
X4468622Y-10325100D02*
G01*
X4504943Y-10382250D01*
X4539234Y-10273284D02*
G01*
X4539234Y-10382250D01*
X4539234Y-10273284D02*
G01*
X4612131Y-10382250D01*
X4612131Y-10273284D02*
G01*
X4612131Y-10382250D01*
X4698238Y-10273284D02*
G01*
X4646422Y-10345928D01*
X4724400Y-10345928D01*
X4698238Y-10273284D02*
G01*
X4698238Y-10382250D01*
X7543800Y-6755384D02*
G01*
X7543800Y-6864350D01*
X7543800Y-6755384D02*
G01*
X7590536Y-6755384D01*
X7606029Y-6760463D01*
X7611363Y-6765797D01*
X7616443Y-6776212D01*
X7616443Y-6786626D01*
X7611363Y-6797039D01*
X7606029Y-6802120D01*
X7590536Y-6807200D01*
X7543800Y-6807200D01*
X7580122Y-6807200D02*
G01*
X7616443Y-6864350D01*
X7650734Y-6755384D02*
G01*
X7650734Y-6864350D01*
X7650734Y-6755384D02*
G01*
X7723631Y-6864350D01*
X7723631Y-6755384D02*
G01*
X7723631Y-6864350D01*
X7820152Y-6755384D02*
G01*
X7768336Y-6755384D01*
X7763002Y-6802120D01*
X7768336Y-6797039D01*
X7783829Y-6791705D01*
X7799324Y-6791705D01*
X7815072Y-6797039D01*
X7825486Y-6807200D01*
X7830565Y-6822947D01*
X7830565Y-6833362D01*
X7825486Y-6848855D01*
X7815072Y-6859270D01*
X7799324Y-6864350D01*
X7783829Y-6864350D01*
X7768336Y-6859270D01*
X7763002Y-6854189D01*
X7757922Y-6843776D01*
X7226300Y-10260584D02*
G01*
X7226300Y-10369550D01*
X7226300Y-10260584D02*
G01*
X7273036Y-10260584D01*
X7288529Y-10265663D01*
X7293863Y-10270997D01*
X7298943Y-10281412D01*
X7298943Y-10291826D01*
X7293863Y-10302239D01*
X7288529Y-10307320D01*
X7273036Y-10312400D01*
X7226300Y-10312400D01*
X7262622Y-10312400D02*
G01*
X7298943Y-10369550D01*
X7333234Y-10260584D02*
G01*
X7333234Y-10369550D01*
X7333234Y-10260584D02*
G01*
X7406131Y-10369550D01*
X7406131Y-10260584D02*
G01*
X7406131Y-10369550D01*
X7502652Y-10276078D02*
G01*
X7497572Y-10265663D01*
X7481824Y-10260584D01*
X7471409Y-10260584D01*
X7455915Y-10265663D01*
X7445502Y-10281412D01*
X7440422Y-10307320D01*
X7440422Y-10333228D01*
X7445502Y-10354055D01*
X7455915Y-10364470D01*
X7471409Y-10369550D01*
X7476743Y-10369550D01*
X7492238Y-10364470D01*
X7502652Y-10354055D01*
X7507986Y-10338562D01*
X7507986Y-10333228D01*
X7502652Y-10317734D01*
X7492238Y-10307320D01*
X7476743Y-10302239D01*
X7471409Y-10302239D01*
X7455915Y-10307320D01*
X7445502Y-10317734D01*
X7440422Y-10333228D01*
X10350500Y-6755384D02*
G01*
X10350500Y-6864350D01*
X10350500Y-6755384D02*
G01*
X10397236Y-6755384D01*
X10412729Y-6760463D01*
X10418063Y-6765797D01*
X10423143Y-6776212D01*
X10423143Y-6786626D01*
X10418063Y-6797039D01*
X10412729Y-6802120D01*
X10397236Y-6807200D01*
X10350500Y-6807200D01*
X10386822Y-6807200D02*
G01*
X10423143Y-6864350D01*
X10457434Y-6755384D02*
G01*
X10457434Y-6864350D01*
X10457434Y-6755384D02*
G01*
X10530331Y-6864350D01*
X10530331Y-6755384D02*
G01*
X10530331Y-6864350D01*
X10637265Y-6755384D02*
G01*
X10585450Y-6864350D01*
X10564622Y-6755384D02*
G01*
X10637265Y-6755384D01*
X10007600Y-10260584D02*
G01*
X10007600Y-10369550D01*
X10007600Y-10260584D02*
G01*
X10054336Y-10260584D01*
X10069829Y-10265663D01*
X10075163Y-10270997D01*
X10080243Y-10281412D01*
X10080243Y-10291826D01*
X10075163Y-10302239D01*
X10069829Y-10307320D01*
X10054336Y-10312400D01*
X10007600Y-10312400D01*
X10043922Y-10312400D02*
G01*
X10080243Y-10369550D01*
X10114534Y-10260584D02*
G01*
X10114534Y-10369550D01*
X10114534Y-10260584D02*
G01*
X10187431Y-10369550D01*
X10187431Y-10260584D02*
G01*
X10187431Y-10369550D01*
X10247629Y-10260584D02*
G01*
X10232136Y-10265663D01*
X10226802Y-10276078D01*
X10226802Y-10286492D01*
X10232136Y-10296905D01*
X10242550Y-10302239D01*
X10263124Y-10307320D01*
X10278872Y-10312400D01*
X10289286Y-10322813D01*
X10294365Y-10333228D01*
X10294365Y-10348976D01*
X10289286Y-10359389D01*
X10283952Y-10364470D01*
X10268458Y-10369550D01*
X10247629Y-10369550D01*
X10232136Y-10364470D01*
X10226802Y-10359389D01*
X10221722Y-10348976D01*
X10221722Y-10333228D01*
X10226802Y-10322813D01*
X10237215Y-10312400D01*
X10252709Y-10307320D01*
X10273538Y-10302239D01*
X10283952Y-10296905D01*
X10289286Y-10286492D01*
X10289286Y-10276078D01*
X10283952Y-10265663D01*
X10268458Y-10260584D01*
X10247629Y-10260584D01*
X7251700Y-11822684D02*
G01*
X7251700Y-11931650D01*
X7251700Y-11822684D02*
G01*
X7298436Y-11822684D01*
X7313929Y-11827763D01*
X7319263Y-11833097D01*
X7324343Y-11843512D01*
X7324343Y-11853926D01*
X7319263Y-11864339D01*
X7313929Y-11869420D01*
X7298436Y-11874500D01*
X7251700Y-11874500D01*
X7288022Y-11874500D02*
G01*
X7324343Y-11931650D01*
X7358634Y-11822684D02*
G01*
X7358634Y-11931650D01*
X7358634Y-11822684D02*
G01*
X7431531Y-11931650D01*
X7431531Y-11822684D02*
G01*
X7431531Y-11931650D01*
X7533386Y-11859005D02*
G01*
X7528052Y-11874500D01*
X7517638Y-11884913D01*
X7502143Y-11890247D01*
X7496809Y-11890247D01*
X7481315Y-11884913D01*
X7470902Y-11874500D01*
X7465822Y-11859005D01*
X7465822Y-11853926D01*
X7470902Y-11838178D01*
X7481315Y-11827763D01*
X7496809Y-11822684D01*
X7502143Y-11822684D01*
X7517638Y-11827763D01*
X7528052Y-11838178D01*
X7533386Y-11859005D01*
X7533386Y-11884913D01*
X7528052Y-11911076D01*
X7517638Y-11926570D01*
X7502143Y-11931650D01*
X7491729Y-11931650D01*
X7476236Y-11926570D01*
X7470902Y-11916155D01*
X2819400Y-11822684D02*
G01*
X2819400Y-11931650D01*
X2819400Y-11822684D02*
G01*
X2866136Y-11822684D01*
X2881629Y-11827763D01*
X2886963Y-11833097D01*
X2892043Y-11843512D01*
X2892043Y-11853926D01*
X2886963Y-11864339D01*
X2881629Y-11869420D01*
X2866136Y-11874500D01*
X2819400Y-11874500D01*
X2855722Y-11874500D02*
G01*
X2892043Y-11931650D01*
X2926334Y-11822684D02*
G01*
X2926334Y-11931650D01*
X2926334Y-11822684D02*
G01*
X2999231Y-11931650D01*
X2999231Y-11822684D02*
G01*
X2999231Y-11931650D01*
X3033522Y-11843512D02*
G01*
X3043936Y-11838178D01*
X3059429Y-11822684D01*
X3059429Y-11931650D01*
X3093720Y-11843512D02*
G01*
X3104134Y-11838178D01*
X3119627Y-11822684D01*
X3119627Y-11931650D01*
X1042278Y-14289278D02*
G01*
X1031864Y-14278863D01*
X1016370Y-14273784D01*
X995542Y-14273784D01*
X980048Y-14278863D01*
X969634Y-14289278D01*
X969634Y-14299692D01*
X974714Y-14310105D01*
X980048Y-14315439D01*
X990462Y-14320520D01*
X1021704Y-14330934D01*
X1031864Y-14336013D01*
X1037198Y-14341347D01*
X1042278Y-14351762D01*
X1042278Y-14367255D01*
X1031864Y-14377670D01*
X1016370Y-14382750D01*
X995542Y-14382750D01*
X980048Y-14377670D01*
X969634Y-14367255D01*
X1076568Y-14273784D02*
G01*
X1102730Y-14382750D01*
X1128638Y-14273784D02*
G01*
X1102730Y-14382750D01*
X1128638Y-14273784D02*
G01*
X1154546Y-14382750D01*
X1180454Y-14273784D02*
G01*
X1154546Y-14382750D01*
X1214744Y-14294612D02*
G01*
X1225158Y-14289278D01*
X1240906Y-14273784D01*
X1240906Y-14382750D01*
X2058278Y-14276578D02*
G01*
X2047864Y-14266163D01*
X2032370Y-14261084D01*
X2011542Y-14261084D01*
X1996048Y-14266163D01*
X1985634Y-14276578D01*
X1985634Y-14286992D01*
X1990714Y-14297405D01*
X1996048Y-14302739D01*
X2006462Y-14307820D01*
X2037704Y-14318234D01*
X2047864Y-14323313D01*
X2053198Y-14328647D01*
X2058278Y-14339062D01*
X2058278Y-14354555D01*
X2047864Y-14364970D01*
X2032370Y-14370050D01*
X2011542Y-14370050D01*
X1996048Y-14364970D01*
X1985634Y-14354555D01*
X2092568Y-14261084D02*
G01*
X2118730Y-14370050D01*
X2144638Y-14261084D02*
G01*
X2118730Y-14370050D01*
X2144638Y-14261084D02*
G01*
X2170546Y-14370050D01*
X2196454Y-14261084D02*
G01*
X2170546Y-14370050D01*
X2236078Y-14286992D02*
G01*
X2236078Y-14281912D01*
X2241158Y-14271497D01*
X2246492Y-14266163D01*
X2256906Y-14261084D01*
X2277734Y-14261084D01*
X2287894Y-14266163D01*
X2293228Y-14271497D01*
X2298308Y-14281912D01*
X2298308Y-14292326D01*
X2293228Y-14302739D01*
X2282814Y-14318234D01*
X2230744Y-14370050D01*
X2303642Y-14370050D01*
X3061578Y-14276578D02*
G01*
X3051164Y-14266163D01*
X3035670Y-14261084D01*
X3014842Y-14261084D01*
X2999348Y-14266163D01*
X2988934Y-14276578D01*
X2988934Y-14286992D01*
X2994014Y-14297405D01*
X2999348Y-14302739D01*
X3009762Y-14307820D01*
X3041004Y-14318234D01*
X3051164Y-14323313D01*
X3056498Y-14328647D01*
X3061578Y-14339062D01*
X3061578Y-14354555D01*
X3051164Y-14364970D01*
X3035670Y-14370050D01*
X3014842Y-14370050D01*
X2999348Y-14364970D01*
X2988934Y-14354555D01*
X3095868Y-14261084D02*
G01*
X3122030Y-14370050D01*
X3147938Y-14261084D02*
G01*
X3122030Y-14370050D01*
X3147938Y-14261084D02*
G01*
X3173846Y-14370050D01*
X3199754Y-14261084D02*
G01*
X3173846Y-14370050D01*
X3244458Y-14261084D02*
G01*
X3301608Y-14261084D01*
X3270620Y-14302739D01*
X3286114Y-14302739D01*
X3296528Y-14307820D01*
X3301608Y-14312900D01*
X3306942Y-14328647D01*
X3306942Y-14339062D01*
X3301608Y-14354555D01*
X3291194Y-14364970D01*
X3275700Y-14370050D01*
X3260206Y-14370050D01*
X3244458Y-14364970D01*
X3239378Y-14359889D01*
X3234044Y-14349476D01*
X4102978Y-14276578D02*
G01*
X4092564Y-14266163D01*
X4077070Y-14261084D01*
X4056242Y-14261084D01*
X4040748Y-14266163D01*
X4030334Y-14276578D01*
X4030334Y-14286992D01*
X4035414Y-14297405D01*
X4040748Y-14302739D01*
X4051162Y-14307820D01*
X4082404Y-14318234D01*
X4092564Y-14323313D01*
X4097898Y-14328647D01*
X4102978Y-14339062D01*
X4102978Y-14354555D01*
X4092564Y-14364970D01*
X4077070Y-14370050D01*
X4056242Y-14370050D01*
X4040748Y-14364970D01*
X4030334Y-14354555D01*
X4137268Y-14261084D02*
G01*
X4163430Y-14370050D01*
X4189338Y-14261084D02*
G01*
X4163430Y-14370050D01*
X4189338Y-14261084D02*
G01*
X4215246Y-14370050D01*
X4241154Y-14261084D02*
G01*
X4215246Y-14370050D01*
X4327514Y-14261084D02*
G01*
X4275444Y-14333728D01*
X4353422Y-14333728D01*
X4327514Y-14261084D02*
G01*
X4327514Y-14370050D01*
X2209800Y-8126984D02*
G01*
X2209800Y-8204962D01*
X2214879Y-8220455D01*
X2225293Y-8230870D01*
X2241041Y-8235950D01*
X2251456Y-8235950D01*
X2266950Y-8230870D01*
X2277363Y-8220455D01*
X2282443Y-8204962D01*
X2282443Y-8126984D01*
X2316734Y-8147812D02*
G01*
X2327147Y-8142478D01*
X2342895Y-8126984D01*
X2342895Y-8235950D01*
X4991100Y-8355584D02*
G01*
X4991100Y-8433562D01*
X4996179Y-8449055D01*
X5006593Y-8459470D01*
X5022341Y-8464550D01*
X5032756Y-8464550D01*
X5048250Y-8459470D01*
X5058663Y-8449055D01*
X5063743Y-8433562D01*
X5063743Y-8355584D01*
X5103368Y-8381492D02*
G01*
X5103368Y-8376412D01*
X5108447Y-8365997D01*
X5113781Y-8360663D01*
X5124195Y-8355584D01*
X5144770Y-8355584D01*
X5155184Y-8360663D01*
X5160518Y-8365997D01*
X5165597Y-8376412D01*
X5165597Y-8386826D01*
X5160518Y-8397239D01*
X5150104Y-8412734D01*
X5098034Y-8464550D01*
X5170931Y-8464550D01*
X7797794Y-8368284D02*
G01*
X7797794Y-8446262D01*
X7802874Y-8461755D01*
X7813288Y-8472170D01*
X7829036Y-8477250D01*
X7839450Y-8477250D01*
X7854944Y-8472170D01*
X7865358Y-8461755D01*
X7870438Y-8446262D01*
X7870438Y-8368284D01*
X7915142Y-8368284D02*
G01*
X7972292Y-8368284D01*
X7941304Y-8409939D01*
X7956798Y-8409939D01*
X7967212Y-8415020D01*
X7972292Y-8420100D01*
X7977626Y-8435847D01*
X7977626Y-8446262D01*
X7972292Y-8461755D01*
X7961878Y-8472170D01*
X7946384Y-8477250D01*
X7930890Y-8477250D01*
X7915142Y-8472170D01*
X7910062Y-8467089D01*
X7904728Y-8456676D01*
X10718800Y-8368284D02*
G01*
X10718800Y-8446262D01*
X10723879Y-8461755D01*
X10734293Y-8472170D01*
X10750041Y-8477250D01*
X10760456Y-8477250D01*
X10775950Y-8472170D01*
X10786363Y-8461755D01*
X10791443Y-8446262D01*
X10791443Y-8368284D01*
X10877804Y-8368284D02*
G01*
X10825734Y-8440928D01*
X10903711Y-8440928D01*
X10877804Y-8368284D02*
G01*
X10877804Y-8477250D01*
X10083800Y-12267184D02*
G01*
X10083800Y-12345162D01*
X10088879Y-12360655D01*
X10099293Y-12371070D01*
X10115041Y-12376150D01*
X10125456Y-12376150D01*
X10140950Y-12371070D01*
X10151363Y-12360655D01*
X10156443Y-12345162D01*
X10156443Y-12267184D01*
X10253218Y-12267184D02*
G01*
X10201147Y-12267184D01*
X10196068Y-12313920D01*
X10201147Y-12308839D01*
X10216895Y-12303505D01*
X10232390Y-12303505D01*
X10247884Y-12308839D01*
X10258297Y-12319000D01*
X10263631Y-12334747D01*
X10263631Y-12345162D01*
X10258297Y-12360655D01*
X10247884Y-12371070D01*
X10232390Y-12376150D01*
X10216895Y-12376150D01*
X10201147Y-12371070D01*
X10196068Y-12365989D01*
X10190734Y-12355576D01*
X10795000Y-14337284D02*
G01*
X10795000Y-14415262D01*
X10800079Y-14430755D01*
X10810493Y-14441170D01*
X10826241Y-14446250D01*
X10836656Y-14446250D01*
X10852150Y-14441170D01*
X10862563Y-14430755D01*
X10867643Y-14415262D01*
X10867643Y-14337284D01*
X10974831Y-14352778D02*
G01*
X10964418Y-14342363D01*
X10948670Y-14337284D01*
X10928095Y-14337284D01*
X10912347Y-14342363D01*
X10901934Y-14352778D01*
X10901934Y-14363192D01*
X10907268Y-14373605D01*
X10912347Y-14378939D01*
X10922761Y-14384020D01*
X10954004Y-14394434D01*
X10964418Y-14399513D01*
X10969497Y-14404847D01*
X10974831Y-14415262D01*
X10974831Y-14430755D01*
X10964418Y-14441170D01*
X10948670Y-14446250D01*
X10928095Y-14446250D01*
X10912347Y-14441170D01*
X10901934Y-14430755D01*
X11009122Y-14337284D02*
G01*
X11009122Y-14446250D01*
X11009122Y-14337284D02*
G01*
X11055858Y-14337284D01*
X11071352Y-14342363D01*
X11076686Y-14347697D01*
X11081765Y-14358112D01*
X11081765Y-14368526D01*
X11076686Y-14378939D01*
X11071352Y-14384020D01*
X11055858Y-14389100D01*
X11009122Y-14389100D02*
G01*
X11055858Y-14389100D01*
X11071352Y-14394434D01*
X11076686Y-14399513D01*
X11081765Y-14409928D01*
X11081765Y-14425676D01*
X11076686Y-14436089D01*
X11071352Y-14441170D01*
X11055858Y-14446250D01*
X11009122Y-14446250D01*
X11194034Y-14363192D02*
G01*
X11188700Y-14352778D01*
X11178540Y-14342363D01*
X11168125Y-14337284D01*
X11147297Y-14337284D01*
X11136884Y-14342363D01*
X11126470Y-14352778D01*
X11121390Y-14363192D01*
X11116056Y-14378939D01*
X11116056Y-14404847D01*
X11121390Y-14420342D01*
X11126470Y-14430755D01*
X11136884Y-14441170D01*
X11147297Y-14446250D01*
X11168125Y-14446250D01*
X11178540Y-14441170D01*
X11188700Y-14430755D01*
X11194034Y-14420342D01*
X11228324Y-14358112D02*
G01*
X11238738Y-14352778D01*
X11254231Y-14337284D01*
X11254231Y-14446250D01*
D11*
X10956742Y-6496651D02*
G01*
X10955746Y-6496651D01*
X10922741Y-6463647D01*
X10956742Y-6428648D02*
G01*
X10956742Y-6429646D01*
X10922741Y-6463647D01*
X10956742Y-6428648D02*
G01*
X10956742Y-6496651D01*
X10958746Y-6388641D02*
G01*
X11073747Y-6388641D01*
X10958746Y-6538653D02*
G01*
X11073747Y-6538653D01*
X11073747Y-6388651D02*
G01*
X11073747Y-6536644D01*
X10920745Y-6538884D02*
G01*
X10815734Y-6538884D01*
X10785739Y-6498877D02*
G01*
X10785739Y-6508879D01*
X10815734Y-6538884D01*
X10785739Y-6428882D02*
G01*
X10785739Y-6498877D01*
X10785739Y-6428882D02*
G01*
X10785739Y-6418867D01*
X10815734Y-6388872D01*
X10920745Y-6388872D02*
G01*
X10815734Y-6388872D01*
X10956742Y-6463647D02*
G01*
X10922741Y-6463647D01*
X3819405Y-6484015D02*
G01*
X3818409Y-6484015D01*
X3785405Y-6451010D01*
X3819405Y-6416012D02*
G01*
X3819405Y-6417010D01*
X3785405Y-6451010D01*
X3819405Y-6416012D02*
G01*
X3819405Y-6484015D01*
X3821409Y-6376004D02*
G01*
X3936410Y-6376004D01*
X3821409Y-6526016D02*
G01*
X3936410Y-6526016D01*
X3936410Y-6376014D02*
G01*
X3936410Y-6524007D01*
X3783408Y-6526248D02*
G01*
X3678397Y-6526248D01*
X3648402Y-6486240D02*
G01*
X3648402Y-6496243D01*
X3678397Y-6526248D01*
X3648402Y-6416245D02*
G01*
X3648402Y-6486240D01*
X3648402Y-6416245D02*
G01*
X3648402Y-6406230D01*
X3678397Y-6376235D01*
X3783408Y-6376235D02*
G01*
X3678397Y-6376235D01*
X3819405Y-6451010D02*
G01*
X3785405Y-6451010D01*
X4352805Y-6496715D02*
G01*
X4351809Y-6496715D01*
X4318805Y-6463710D01*
X4352805Y-6428712D02*
G01*
X4352805Y-6429710D01*
X4318805Y-6463710D01*
X4352805Y-6428712D02*
G01*
X4352805Y-6496715D01*
X4354809Y-6388704D02*
G01*
X4469810Y-6388704D01*
X4354809Y-6538716D02*
G01*
X4469810Y-6538716D01*
X4469810Y-6388714D02*
G01*
X4469810Y-6536707D01*
X4316808Y-6538948D02*
G01*
X4211797Y-6538948D01*
X4181802Y-6498940D02*
G01*
X4181802Y-6508943D01*
X4211797Y-6538948D01*
X4181802Y-6428945D02*
G01*
X4181802Y-6498940D01*
X4181802Y-6428945D02*
G01*
X4181802Y-6418930D01*
X4211797Y-6388935D01*
X4316808Y-6388935D02*
G01*
X4211797Y-6388935D01*
X4352805Y-6463710D02*
G01*
X4318805Y-6463710D01*
X4848105Y-6496715D02*
G01*
X4847109Y-6496715D01*
X4814105Y-6463710D01*
X4848105Y-6428712D02*
G01*
X4848105Y-6429710D01*
X4814105Y-6463710D01*
X4848105Y-6428712D02*
G01*
X4848105Y-6496715D01*
X4850109Y-6388704D02*
G01*
X4965110Y-6388704D01*
X4850109Y-6538716D02*
G01*
X4965110Y-6538716D01*
X4965110Y-6388714D02*
G01*
X4965110Y-6536707D01*
X4812108Y-6538948D02*
G01*
X4707097Y-6538948D01*
X4677102Y-6498940D02*
G01*
X4677102Y-6508943D01*
X4707097Y-6538948D01*
X4677102Y-6428945D02*
G01*
X4677102Y-6498940D01*
X4677102Y-6428945D02*
G01*
X4677102Y-6418930D01*
X4707097Y-6388935D01*
X4812108Y-6388935D02*
G01*
X4707097Y-6388935D01*
X4848105Y-6463710D02*
G01*
X4814105Y-6463710D01*
X5368805Y-6496715D02*
G01*
X5367809Y-6496715D01*
X5334805Y-6463710D01*
X5368805Y-6428712D02*
G01*
X5368805Y-6429710D01*
X5334805Y-6463710D01*
X5368805Y-6428712D02*
G01*
X5368805Y-6496715D01*
X5370809Y-6388704D02*
G01*
X5485810Y-6388704D01*
X5370809Y-6538716D02*
G01*
X5485810Y-6538716D01*
X5485810Y-6388714D02*
G01*
X5485810Y-6536707D01*
X5332808Y-6538948D02*
G01*
X5227797Y-6538948D01*
X5197802Y-6498940D02*
G01*
X5197802Y-6508943D01*
X5227797Y-6538948D01*
X5197802Y-6428945D02*
G01*
X5197802Y-6498940D01*
X5197802Y-6428945D02*
G01*
X5197802Y-6418930D01*
X5227797Y-6388935D01*
X5332808Y-6388935D02*
G01*
X5227797Y-6388935D01*
X5368805Y-6463710D02*
G01*
X5334805Y-6463710D01*
X6626105Y-6496715D02*
G01*
X6625109Y-6496715D01*
X6592105Y-6463710D01*
X6626105Y-6428712D02*
G01*
X6626105Y-6429710D01*
X6592105Y-6463710D01*
X6626105Y-6428712D02*
G01*
X6626105Y-6496715D01*
X6628109Y-6388704D02*
G01*
X6743110Y-6388704D01*
X6628109Y-6538716D02*
G01*
X6743110Y-6538716D01*
X6743110Y-6388714D02*
G01*
X6743110Y-6536707D01*
X6590108Y-6538948D02*
G01*
X6485097Y-6538948D01*
X6455102Y-6498940D02*
G01*
X6455102Y-6508943D01*
X6485097Y-6538948D01*
X6455102Y-6428945D02*
G01*
X6455102Y-6498940D01*
X6455102Y-6428945D02*
G01*
X6455102Y-6418930D01*
X6485097Y-6388935D01*
X6590108Y-6388935D02*
G01*
X6485097Y-6388935D01*
X6626105Y-6463710D02*
G01*
X6592105Y-6463710D01*
X7134105Y-6496715D02*
G01*
X7133109Y-6496715D01*
X7100105Y-6463710D01*
X7134105Y-6428712D02*
G01*
X7134105Y-6429710D01*
X7100105Y-6463710D01*
X7134105Y-6428712D02*
G01*
X7134105Y-6496715D01*
X7136109Y-6388704D02*
G01*
X7251110Y-6388704D01*
X7136109Y-6538716D02*
G01*
X7251110Y-6538716D01*
X7251110Y-6388714D02*
G01*
X7251110Y-6536707D01*
X7098108Y-6538948D02*
G01*
X6993097Y-6538948D01*
X6963102Y-6498940D02*
G01*
X6963102Y-6508943D01*
X6993097Y-6538948D01*
X6963102Y-6428945D02*
G01*
X6963102Y-6498940D01*
X6963102Y-6428945D02*
G01*
X6963102Y-6418930D01*
X6993097Y-6388935D01*
X7098108Y-6388935D02*
G01*
X6993097Y-6388935D01*
X7134105Y-6463710D02*
G01*
X7100105Y-6463710D01*
X7629405Y-6496715D02*
G01*
X7628409Y-6496715D01*
X7595405Y-6463710D01*
X7629405Y-6428712D02*
G01*
X7629405Y-6429710D01*
X7595405Y-6463710D01*
X7629405Y-6428712D02*
G01*
X7629405Y-6496715D01*
X7631409Y-6388704D02*
G01*
X7746410Y-6388704D01*
X7631409Y-6538716D02*
G01*
X7746410Y-6538716D01*
X7746410Y-6388714D02*
G01*
X7746410Y-6536707D01*
X7593408Y-6538948D02*
G01*
X7488397Y-6538948D01*
X7458402Y-6498940D02*
G01*
X7458402Y-6508943D01*
X7488397Y-6538948D01*
X7458402Y-6428945D02*
G01*
X7458402Y-6498940D01*
X7458402Y-6428945D02*
G01*
X7458402Y-6418930D01*
X7488397Y-6388935D01*
X7593408Y-6388935D02*
G01*
X7488397Y-6388935D01*
X7629405Y-6463710D02*
G01*
X7595405Y-6463710D01*
X8124705Y-6496715D02*
G01*
X8123709Y-6496715D01*
X8090705Y-6463710D01*
X8124705Y-6428712D02*
G01*
X8124705Y-6429710D01*
X8090705Y-6463710D01*
X8124705Y-6428712D02*
G01*
X8124705Y-6496715D01*
X8126709Y-6388704D02*
G01*
X8241710Y-6388704D01*
X8126709Y-6538716D02*
G01*
X8241710Y-6538716D01*
X8241710Y-6388714D02*
G01*
X8241710Y-6536707D01*
X8088708Y-6538948D02*
G01*
X7983697Y-6538948D01*
X7953702Y-6498940D02*
G01*
X7953702Y-6508943D01*
X7983697Y-6538948D01*
X7953702Y-6428945D02*
G01*
X7953702Y-6498940D01*
X7953702Y-6428945D02*
G01*
X7953702Y-6418930D01*
X7983697Y-6388935D01*
X8088708Y-6388935D02*
G01*
X7983697Y-6388935D01*
X8124705Y-6463710D02*
G01*
X8090705Y-6463710D01*
X9432742Y-6496651D02*
G01*
X9431746Y-6496651D01*
X9398741Y-6463647D01*
X9432742Y-6428648D02*
G01*
X9432742Y-6429646D01*
X9398741Y-6463647D01*
X9432742Y-6428648D02*
G01*
X9432742Y-6496651D01*
X9434746Y-6388641D02*
G01*
X9549747Y-6388641D01*
X9434746Y-6538653D02*
G01*
X9549747Y-6538653D01*
X9549747Y-6388651D02*
G01*
X9549747Y-6536644D01*
X9396745Y-6538884D02*
G01*
X9291734Y-6538884D01*
X9261739Y-6498877D02*
G01*
X9261739Y-6508879D01*
X9291734Y-6538884D01*
X9261739Y-6428882D02*
G01*
X9261739Y-6498877D01*
X9261739Y-6428882D02*
G01*
X9261739Y-6418867D01*
X9291734Y-6388872D01*
X9396745Y-6388872D02*
G01*
X9291734Y-6388872D01*
X9432742Y-6463647D02*
G01*
X9398741Y-6463647D01*
X9940742Y-6496651D02*
G01*
X9939746Y-6496651D01*
X9906741Y-6463647D01*
X9940742Y-6428648D02*
G01*
X9940742Y-6429646D01*
X9906741Y-6463647D01*
X9940742Y-6428648D02*
G01*
X9940742Y-6496651D01*
X9942746Y-6388641D02*
G01*
X10057747Y-6388641D01*
X9942746Y-6538653D02*
G01*
X10057747Y-6538653D01*
X10057747Y-6388651D02*
G01*
X10057747Y-6536644D01*
X9904745Y-6538884D02*
G01*
X9799734Y-6538884D01*
X9769739Y-6498877D02*
G01*
X9769739Y-6508879D01*
X9799734Y-6538884D01*
X9769739Y-6428882D02*
G01*
X9769739Y-6498877D01*
X9769739Y-6428882D02*
G01*
X9769739Y-6418867D01*
X9799734Y-6388872D01*
X9904745Y-6388872D02*
G01*
X9799734Y-6388872D01*
X9940742Y-6463647D02*
G01*
X9906741Y-6463647D01*
X10448742Y-6496651D02*
G01*
X10447746Y-6496651D01*
X10414741Y-6463647D01*
X10448742Y-6428648D02*
G01*
X10448742Y-6429646D01*
X10414741Y-6463647D01*
X10448742Y-6428648D02*
G01*
X10448742Y-6496651D01*
X10450746Y-6388641D02*
G01*
X10565747Y-6388641D01*
X10450746Y-6538653D02*
G01*
X10565747Y-6538653D01*
X10565747Y-6388651D02*
G01*
X10565747Y-6536644D01*
X10412745Y-6538884D02*
G01*
X10307734Y-6538884D01*
X10277739Y-6498877D02*
G01*
X10277739Y-6508879D01*
X10307734Y-6538884D01*
X10277739Y-6428882D02*
G01*
X10277739Y-6498877D01*
X10277739Y-6428882D02*
G01*
X10277739Y-6418867D01*
X10307734Y-6388872D01*
X10412745Y-6388872D02*
G01*
X10307734Y-6388872D01*
X10448742Y-6463647D02*
G01*
X10414741Y-6463647D01*
D12*
X5451843Y-12375598D02*
G01*
X5451843Y-12275621D01*
X5825832Y-12275596D01*
X5825832Y-12379609D01*
X5825794Y-12465596D02*
G01*
X5825794Y-12567577D01*
X5451805Y-12567602D01*
X5451805Y-12463571D01*
X1393456Y-12452901D02*
G01*
X1393456Y-12552878D01*
X1019467Y-12552903D01*
X1019467Y-12448890D01*
X1019505Y-12362903D02*
G01*
X1019505Y-12260922D01*
X1393494Y-12260897D01*
X1393494Y-12364928D01*
D10*
X10426519Y-13263839D02*
G01*
X10278021Y-13263839D01*
X10278021Y-13482360D02*
G01*
X10426519Y-13482360D01*
X10441759Y-13467120D02*
G01*
X10441759Y-13279079D01*
X9944280Y-13263839D02*
G01*
X10092778Y-13263839D01*
X10092778Y-13482360D02*
G01*
X9944280Y-13482360D01*
X9929040Y-13467120D02*
G01*
X9929040Y-13279079D01*
X10287030Y-12866039D02*
G01*
X10208021Y-12866039D01*
X10208021Y-12965760D02*
G01*
X10287030Y-12965760D01*
X10302270Y-12950520D02*
G01*
X10302270Y-12881279D01*
X10083769Y-12866039D02*
G01*
X10162778Y-12866039D01*
X10162778Y-12965760D02*
G01*
X10083769Y-12965760D01*
X10068529Y-12950520D02*
G01*
X10068529Y-12881279D01*
D11*
X923742Y-6496651D02*
G01*
X922746Y-6496651D01*
X889741Y-6463647D01*
X923742Y-6428648D02*
G01*
X923742Y-6429646D01*
X889741Y-6463647D01*
X923742Y-6428648D02*
G01*
X923742Y-6496651D01*
X925746Y-6388641D02*
G01*
X1040747Y-6388641D01*
X925746Y-6538653D02*
G01*
X1040747Y-6538653D01*
X1040747Y-6388651D02*
G01*
X1040747Y-6536644D01*
X887745Y-6538884D02*
G01*
X782734Y-6538884D01*
X752739Y-6498877D02*
G01*
X752739Y-6508879D01*
X782734Y-6538884D01*
X752739Y-6428882D02*
G01*
X752739Y-6498877D01*
X752739Y-6428882D02*
G01*
X752739Y-6418867D01*
X782734Y-6388872D01*
X887745Y-6388872D02*
G01*
X782734Y-6388872D01*
X923742Y-6463647D02*
G01*
X889741Y-6463647D01*
X1546042Y-6496651D02*
G01*
X1545046Y-6496651D01*
X1512041Y-6463647D01*
X1546042Y-6428648D02*
G01*
X1546042Y-6429646D01*
X1512041Y-6463647D01*
X1546042Y-6428648D02*
G01*
X1546042Y-6496651D01*
X1548046Y-6388641D02*
G01*
X1663047Y-6388641D01*
X1548046Y-6538653D02*
G01*
X1663047Y-6538653D01*
X1663047Y-6388651D02*
G01*
X1663047Y-6536644D01*
X1510045Y-6538884D02*
G01*
X1405034Y-6538884D01*
X1375039Y-6498877D02*
G01*
X1375039Y-6508879D01*
X1405034Y-6538884D01*
X1375039Y-6428882D02*
G01*
X1375039Y-6498877D01*
X1375039Y-6428882D02*
G01*
X1375039Y-6418867D01*
X1405034Y-6388872D01*
X1510045Y-6388872D02*
G01*
X1405034Y-6388872D01*
X1546042Y-6463647D02*
G01*
X1512041Y-6463647D01*
X2066742Y-6496651D02*
G01*
X2065746Y-6496651D01*
X2032741Y-6463647D01*
X2066742Y-6428648D02*
G01*
X2066742Y-6429646D01*
X2032741Y-6463647D01*
X2066742Y-6428648D02*
G01*
X2066742Y-6496651D01*
X2068746Y-6388641D02*
G01*
X2183747Y-6388641D01*
X2068746Y-6538653D02*
G01*
X2183747Y-6538653D01*
X2183747Y-6388651D02*
G01*
X2183747Y-6536644D01*
X2030745Y-6538884D02*
G01*
X1925734Y-6538884D01*
X1895739Y-6498877D02*
G01*
X1895739Y-6508879D01*
X1925734Y-6538884D01*
X1895739Y-6428882D02*
G01*
X1895739Y-6498877D01*
X1895739Y-6428882D02*
G01*
X1895739Y-6418867D01*
X1925734Y-6388872D01*
X2030745Y-6388872D02*
G01*
X1925734Y-6388872D01*
X2066742Y-6463647D02*
G01*
X2032741Y-6463647D01*
X2574742Y-6496651D02*
G01*
X2573746Y-6496651D01*
X2540741Y-6463647D01*
X2574742Y-6428648D02*
G01*
X2574742Y-6429646D01*
X2540741Y-6463647D01*
X2574742Y-6428648D02*
G01*
X2574742Y-6496651D01*
X2576746Y-6388641D02*
G01*
X2691747Y-6388641D01*
X2576746Y-6538653D02*
G01*
X2691747Y-6538653D01*
X2691747Y-6388651D02*
G01*
X2691747Y-6536644D01*
X2538745Y-6538884D02*
G01*
X2433734Y-6538884D01*
X2403739Y-6498877D02*
G01*
X2403739Y-6508879D01*
X2433734Y-6538884D01*
X2403739Y-6428882D02*
G01*
X2403739Y-6498877D01*
X2403739Y-6428882D02*
G01*
X2403739Y-6418867D01*
X2433734Y-6388872D01*
X2538745Y-6388872D02*
G01*
X2433734Y-6388872D01*
X2574742Y-6463647D02*
G01*
X2540741Y-6463647D01*
X11179357Y-12718448D02*
G01*
X11180353Y-12718448D01*
X11213358Y-12751452D01*
X11179357Y-12786451D02*
G01*
X11179357Y-12785453D01*
X11213358Y-12751452D01*
X11179357Y-12786451D02*
G01*
X11179357Y-12718448D01*
X11177353Y-12826458D02*
G01*
X11062352Y-12826458D01*
X11177353Y-12676446D02*
G01*
X11062352Y-12676446D01*
X11062352Y-12826448D02*
G01*
X11062352Y-12678455D01*
X11215354Y-12676215D02*
G01*
X11320365Y-12676215D01*
X11350360Y-12716222D02*
G01*
X11350360Y-12706220D01*
X11320365Y-12676215D01*
X11350360Y-12786217D02*
G01*
X11350360Y-12716222D01*
X11350360Y-12786217D02*
G01*
X11350360Y-12796232D01*
X11320365Y-12826227D01*
X11215354Y-12826227D02*
G01*
X11320365Y-12826227D01*
X11179357Y-12751452D02*
G01*
X11213358Y-12751452D01*
X6333942Y-11589351D02*
G01*
X6332946Y-11589351D01*
X6299941Y-11556347D01*
X6333942Y-11521348D02*
G01*
X6333942Y-11522346D01*
X6299941Y-11556347D01*
X6333942Y-11521348D02*
G01*
X6333942Y-11589351D01*
X6335946Y-11481341D02*
G01*
X6450947Y-11481341D01*
X6335946Y-11631353D02*
G01*
X6450947Y-11631353D01*
X6450947Y-11481351D02*
G01*
X6450947Y-11629344D01*
X6297945Y-11631584D02*
G01*
X6192934Y-11631584D01*
X6162939Y-11591577D02*
G01*
X6162939Y-11601579D01*
X6192934Y-11631584D01*
X6162939Y-11521582D02*
G01*
X6162939Y-11591577D01*
X6162939Y-11521582D02*
G01*
X6162939Y-11511567D01*
X6192934Y-11481572D01*
X6297945Y-11481572D02*
G01*
X6192934Y-11481572D01*
X6333942Y-11556347D02*
G01*
X6299941Y-11556347D01*
X6841942Y-11589351D02*
G01*
X6840946Y-11589351D01*
X6807941Y-11556347D01*
X6841942Y-11521348D02*
G01*
X6841942Y-11522346D01*
X6807941Y-11556347D01*
X6841942Y-11521348D02*
G01*
X6841942Y-11589351D01*
X6843946Y-11481341D02*
G01*
X6958947Y-11481341D01*
X6843946Y-11631353D02*
G01*
X6958947Y-11631353D01*
X6958947Y-11481351D02*
G01*
X6958947Y-11629344D01*
X6805945Y-11631584D02*
G01*
X6700934Y-11631584D01*
X6670939Y-11591577D02*
G01*
X6670939Y-11601579D01*
X6700934Y-11631584D01*
X6670939Y-11521582D02*
G01*
X6670939Y-11591577D01*
X6670939Y-11521582D02*
G01*
X6670939Y-11511567D01*
X6700934Y-11481572D01*
X6805945Y-11481572D02*
G01*
X6700934Y-11481572D01*
X6841942Y-11556347D02*
G01*
X6807941Y-11556347D01*
X7349942Y-11589351D02*
G01*
X7348946Y-11589351D01*
X7315941Y-11556347D01*
X7349942Y-11521348D02*
G01*
X7349942Y-11522346D01*
X7315941Y-11556347D01*
X7349942Y-11521348D02*
G01*
X7349942Y-11589351D01*
X7351946Y-11481341D02*
G01*
X7466947Y-11481341D01*
X7351946Y-11631353D02*
G01*
X7466947Y-11631353D01*
X7466947Y-11481351D02*
G01*
X7466947Y-11629344D01*
X7313945Y-11631584D02*
G01*
X7208934Y-11631584D01*
X7178939Y-11591577D02*
G01*
X7178939Y-11601579D01*
X7208934Y-11631584D01*
X7178939Y-11521582D02*
G01*
X7178939Y-11591577D01*
X7178939Y-11521582D02*
G01*
X7178939Y-11511567D01*
X7208934Y-11481572D01*
X7313945Y-11481572D02*
G01*
X7208934Y-11481572D01*
X7349942Y-11556347D02*
G01*
X7315941Y-11556347D01*
X7857942Y-11589351D02*
G01*
X7856946Y-11589351D01*
X7823941Y-11556347D01*
X7857942Y-11521348D02*
G01*
X7857942Y-11522346D01*
X7823941Y-11556347D01*
X7857942Y-11521348D02*
G01*
X7857942Y-11589351D01*
X7859946Y-11481341D02*
G01*
X7974947Y-11481341D01*
X7859946Y-11631353D02*
G01*
X7974947Y-11631353D01*
X7974947Y-11481351D02*
G01*
X7974947Y-11629344D01*
X7821945Y-11631584D02*
G01*
X7716934Y-11631584D01*
X7686939Y-11591577D02*
G01*
X7686939Y-11601579D01*
X7716934Y-11631584D01*
X7686939Y-11521582D02*
G01*
X7686939Y-11591577D01*
X7686939Y-11521582D02*
G01*
X7686939Y-11511567D01*
X7716934Y-11481572D01*
X7821945Y-11481572D02*
G01*
X7716934Y-11481572D01*
X7857942Y-11556347D02*
G01*
X7823941Y-11556347D01*
X3425642Y-11589351D02*
G01*
X3424646Y-11589351D01*
X3391641Y-11556347D01*
X3425642Y-11521348D02*
G01*
X3425642Y-11522346D01*
X3391641Y-11556347D01*
X3425642Y-11521348D02*
G01*
X3425642Y-11589351D01*
X3427646Y-11481341D02*
G01*
X3542647Y-11481341D01*
X3427646Y-11631353D02*
G01*
X3542647Y-11631353D01*
X3542647Y-11481351D02*
G01*
X3542647Y-11629344D01*
X3389645Y-11631584D02*
G01*
X3284634Y-11631584D01*
X3254639Y-11591577D02*
G01*
X3254639Y-11601579D01*
X3284634Y-11631584D01*
X3254639Y-11521582D02*
G01*
X3254639Y-11591577D01*
X3254639Y-11521582D02*
G01*
X3254639Y-11511567D01*
X3284634Y-11481572D01*
X3389645Y-11481572D02*
G01*
X3284634Y-11481572D01*
X3425642Y-11556347D02*
G01*
X3391641Y-11556347D01*
X2917642Y-11589351D02*
G01*
X2916646Y-11589351D01*
X2883641Y-11556347D01*
X2917642Y-11521348D02*
G01*
X2917642Y-11522346D01*
X2883641Y-11556347D01*
X2917642Y-11521348D02*
G01*
X2917642Y-11589351D01*
X2919646Y-11481341D02*
G01*
X3034647Y-11481341D01*
X2919646Y-11631353D02*
G01*
X3034647Y-11631353D01*
X3034647Y-11481351D02*
G01*
X3034647Y-11629344D01*
X2881645Y-11631584D02*
G01*
X2776634Y-11631584D01*
X2746639Y-11591577D02*
G01*
X2746639Y-11601579D01*
X2776634Y-11631584D01*
X2746639Y-11521582D02*
G01*
X2746639Y-11591577D01*
X2746639Y-11521582D02*
G01*
X2746639Y-11511567D01*
X2776634Y-11481572D01*
X2881645Y-11481572D02*
G01*
X2776634Y-11481572D01*
X2917642Y-11556347D02*
G01*
X2883641Y-11556347D01*
X2409642Y-11589351D02*
G01*
X2408646Y-11589351D01*
X2375641Y-11556347D01*
X2409642Y-11521348D02*
G01*
X2409642Y-11522346D01*
X2375641Y-11556347D01*
X2409642Y-11521348D02*
G01*
X2409642Y-11589351D01*
X2411646Y-11481341D02*
G01*
X2526647Y-11481341D01*
X2411646Y-11631353D02*
G01*
X2526647Y-11631353D01*
X2526647Y-11481351D02*
G01*
X2526647Y-11629344D01*
X2373645Y-11631584D02*
G01*
X2268634Y-11631584D01*
X2238639Y-11591577D02*
G01*
X2238639Y-11601579D01*
X2268634Y-11631584D01*
X2238639Y-11521582D02*
G01*
X2238639Y-11591577D01*
X2238639Y-11521582D02*
G01*
X2238639Y-11511567D01*
X2268634Y-11481572D01*
X2373645Y-11481572D02*
G01*
X2268634Y-11481572D01*
X2409642Y-11556347D02*
G01*
X2375641Y-11556347D01*
X1901642Y-11589351D02*
G01*
X1900646Y-11589351D01*
X1867641Y-11556347D01*
X1901642Y-11521348D02*
G01*
X1901642Y-11522346D01*
X1867641Y-11556347D01*
X1901642Y-11521348D02*
G01*
X1901642Y-11589351D01*
X1903646Y-11481341D02*
G01*
X2018647Y-11481341D01*
X1903646Y-11631353D02*
G01*
X2018647Y-11631353D01*
X2018647Y-11481351D02*
G01*
X2018647Y-11629344D01*
X1865645Y-11631584D02*
G01*
X1760634Y-11631584D01*
X1730639Y-11591577D02*
G01*
X1730639Y-11601579D01*
X1760634Y-11631584D01*
X1730639Y-11521582D02*
G01*
X1730639Y-11591577D01*
X1730639Y-11521582D02*
G01*
X1730639Y-11511567D01*
X1760634Y-11481572D01*
X1865645Y-11481572D02*
G01*
X1760634Y-11481572D01*
X1901642Y-11556347D02*
G01*
X1867641Y-11556347D01*
D13*
X774700Y-7658100D02*
G01*
X2806700Y-7658100D01*
X2806700Y-7150100D01*
X774700Y-7150100D01*
X774700Y-7658100D01*
X762000Y-9690100D02*
G01*
X2794000Y-9690100D01*
X2794000Y-9182100D01*
X762000Y-9182100D01*
X762000Y-9690100D01*
X3568700Y-7658100D02*
G01*
X5600700Y-7658100D01*
X5600700Y-7150100D01*
X3568700Y-7150100D01*
X3568700Y-7658100D01*
X3556000Y-9690100D02*
G01*
X5588000Y-9690100D01*
X5588000Y-9182100D01*
X3556000Y-9182100D01*
X3556000Y-9690100D01*
X6350000Y-7658100D02*
G01*
X8382000Y-7658100D01*
X8382000Y-7150100D01*
X6350000Y-7150100D01*
X6350000Y-7658100D01*
X6362700Y-9690100D02*
G01*
X8394700Y-9690100D01*
X8394700Y-9182100D01*
X6362700Y-9182100D01*
X6362700Y-9690100D01*
X9156700Y-7658100D02*
G01*
X11188700Y-7658100D01*
X11188700Y-7150100D01*
X9156700Y-7150100D01*
X9156700Y-7658100D01*
X9156700Y-9690100D02*
G01*
X11188700Y-9690100D01*
X11188700Y-9182100D01*
X9156700Y-9182100D01*
X9156700Y-9690100D01*
X6070600Y-14198600D02*
G01*
X8102600Y-14198600D01*
X8102600Y-13690600D01*
X6070600Y-13690600D01*
X6070600Y-14198600D01*
X8089900Y-12166600D02*
G01*
X6057900Y-12166600D01*
X6057900Y-12674600D01*
X8089900Y-12674600D01*
X8089900Y-12166600D01*
X1630034Y-12674600D02*
G01*
X3662034Y-12674600D01*
X3662034Y-12166600D01*
X1630034Y-12166600D01*
X1630034Y-12674600D01*
D10*
X11231321Y-13502660D02*
G01*
X11327208Y-13502660D01*
X11327208Y-13370539D01*
X11231321Y-13370539D01*
X11146078Y-13502660D02*
G01*
X11050191Y-13502660D01*
X11050191Y-13370539D01*
X11146078Y-13370539D01*
X1900859Y-6789696D02*
G01*
X1900859Y-6716339D01*
X1655145Y-6716339D01*
X1655145Y-6789696D01*
X1900859Y-6824698D02*
G01*
X1900859Y-6898055D01*
X1655145Y-6898055D01*
X1655145Y-6824698D01*
D14*
X1998004Y-10151099D02*
G01*
X1998004Y-10211099D01*
X1558005Y-10211099D01*
X1558005Y-10151099D01*
X1998004Y-9991100D02*
G01*
X1998004Y-9951100D01*
X1998004Y-9931100D01*
X1558005Y-9931100D01*
X1558005Y-9991100D01*
X1978004Y-10091099D02*
G01*
X1978004Y-10051100D01*
X1578005Y-10051100D01*
X1578005Y-10091099D01*
X1958004Y-10091099D01*
X1978004Y-10091099D01*
X1978004Y-10104252D02*
G01*
X1978004Y-10037955D01*
X1578005Y-10104252D02*
G01*
X1578005Y-10037947D01*
D10*
X4461840Y-6824703D02*
G01*
X4461840Y-6898060D01*
X4707554Y-6898060D01*
X4707554Y-6824703D01*
X4461840Y-6789701D02*
G01*
X4461840Y-6716344D01*
X4707554Y-6716344D01*
X4707554Y-6789701D01*
D14*
X4792004Y-10151099D02*
G01*
X4792004Y-10211099D01*
X4352005Y-10211099D01*
X4352005Y-10151099D01*
X4792004Y-9991100D02*
G01*
X4792004Y-9951100D01*
X4792004Y-9931100D01*
X4352005Y-9931100D01*
X4352005Y-9991100D01*
X4772004Y-10091099D02*
G01*
X4772004Y-10051100D01*
X4372005Y-10051100D01*
X4372005Y-10091099D01*
X4752004Y-10091099D01*
X4772004Y-10091099D01*
X4772004Y-10104252D02*
G01*
X4772004Y-10037955D01*
X4372005Y-10104252D02*
G01*
X4372005Y-10037947D01*
D10*
X7243140Y-6824703D02*
G01*
X7243140Y-6898060D01*
X7488854Y-6898060D01*
X7488854Y-6824703D01*
X7243140Y-6789701D02*
G01*
X7243140Y-6716344D01*
X7488854Y-6716344D01*
X7488854Y-6789701D01*
D14*
X7586004Y-10151099D02*
G01*
X7586004Y-10211099D01*
X7146005Y-10211099D01*
X7146005Y-10151099D01*
X7586004Y-9991100D02*
G01*
X7586004Y-9951100D01*
X7586004Y-9931100D01*
X7146005Y-9931100D01*
X7146005Y-9991100D01*
X7566004Y-10091099D02*
G01*
X7566004Y-10051100D01*
X7166005Y-10051100D01*
X7166005Y-10091099D01*
X7546004Y-10091099D01*
X7566004Y-10091099D01*
X7566004Y-10104252D02*
G01*
X7566004Y-10037955D01*
X7166005Y-10104252D02*
G01*
X7166005Y-10037947D01*
D10*
X10049840Y-6824703D02*
G01*
X10049840Y-6898060D01*
X10295554Y-6898060D01*
X10295554Y-6824703D01*
X10049840Y-6789701D02*
G01*
X10049840Y-6716344D01*
X10295554Y-6716344D01*
X10295554Y-6789701D01*
D14*
X10380004Y-10151099D02*
G01*
X10380004Y-10211099D01*
X9940005Y-10211099D01*
X9940005Y-10151099D01*
X10380004Y-9991100D02*
G01*
X10380004Y-9951100D01*
X10380004Y-9931100D01*
X9940005Y-9931100D01*
X9940005Y-9991100D01*
X10360004Y-10091099D02*
G01*
X10360004Y-10051100D01*
X9960005Y-10051100D01*
X9960005Y-10091099D01*
X10340004Y-10091099D01*
X10360004Y-10091099D01*
X10360004Y-10104252D02*
G01*
X10360004Y-10037955D01*
X9960005Y-10104252D02*
G01*
X9960005Y-10037947D01*
D10*
X7196759Y-11856996D02*
G01*
X7196759Y-11783639D01*
X6951045Y-11783639D01*
X6951045Y-11856996D01*
X7196759Y-11891998D02*
G01*
X7196759Y-11965355D01*
X6951045Y-11965355D01*
X6951045Y-11891998D01*
X2518740Y-11892003D02*
G01*
X2518740Y-11965360D01*
X2764454Y-11965360D01*
X2764454Y-11892003D01*
X2518740Y-11857001D02*
G01*
X2518740Y-11783644D01*
X2764454Y-11783644D01*
X2764454Y-11857001D01*
D14*
X913363Y-14191896D02*
G01*
X1330695Y-14191896D01*
X862030Y-13825011D02*
G01*
X862030Y-14038785D01*
X1330700Y-13671897D02*
G01*
X913356Y-13671897D01*
X1382029Y-14038785D02*
G01*
X1382029Y-13825011D01*
X1942063Y-14191896D02*
G01*
X2359395Y-14191896D01*
X1890730Y-13825011D02*
G01*
X1890730Y-14038785D01*
X2359400Y-13671897D02*
G01*
X1942056Y-13671897D01*
X2410729Y-14038785D02*
G01*
X2410729Y-13825011D01*
X2945363Y-14191896D02*
G01*
X3362695Y-14191896D01*
X2894030Y-13825011D02*
G01*
X2894030Y-14038785D01*
X3362700Y-13671897D02*
G01*
X2945356Y-13671897D01*
X3414029Y-14038785D02*
G01*
X3414029Y-13825011D01*
X3974063Y-14191896D02*
G01*
X4391395Y-14191896D01*
X3922730Y-13825011D02*
G01*
X3922730Y-14038785D01*
X4391400Y-13671897D02*
G01*
X3974056Y-13671897D01*
X4442729Y-14038785D02*
G01*
X4442729Y-13825011D01*
D10*
X1638556Y-7979978D02*
G01*
X1942838Y-7979978D01*
X1942838Y-8860221D01*
X1638556Y-8860221D01*
X1638556Y-7979978D01*
X4419856Y-7967278D02*
G01*
X4724138Y-7967278D01*
X4724138Y-8847521D01*
X4419856Y-8847521D01*
X4419856Y-7967278D01*
X7213856Y-7979978D02*
G01*
X7518138Y-7979978D01*
X7518138Y-8860221D01*
X7213856Y-8860221D01*
X7213856Y-7979978D01*
X10020556Y-7979978D02*
G01*
X10324838Y-7979978D01*
X10324838Y-8860221D01*
X10020556Y-8860221D01*
X10020556Y-7979978D01*
D15*
X10312400Y-12458700D02*
G01*
X10312400Y-12534900D01*
X10033000Y-12458700D02*
G01*
X10033000Y-12534900D01*
X10134600Y-12560300D02*
G01*
X10058400Y-12560300D01*
X10134600Y-12433300D02*
G01*
X10058400Y-12433300D01*
X10210800Y-12560300D02*
G01*
X10287000Y-12560300D01*
X10210800Y-12433300D02*
G01*
X10287000Y-12433300D01*
D14*
X9725802Y-14373265D02*
G01*
X9725802Y-14186974D01*
X10619800Y-14745103D02*
G01*
X9725802Y-14745103D01*
X9725802Y-14596973D01*
X10619800Y-14373301D02*
G01*
X10619800Y-14186938D01*
X10619800Y-14745103D02*
G01*
X10619800Y-14596938D01*
D10*
G75*
G01*
X10426520Y-13482361D02*
G03*
X10441760Y-13467121I0J15240D01*
G75*
G01*
X10441760Y-13279079D02*
G03*
X10426520Y-13263839I-15240J0D01*
G75*
G01*
X9944280Y-13482361D02*
G02*
X9929040Y-13467121I0J15240D01*
G75*
G01*
X9929040Y-13279079D02*
G02*
X9944280Y-13263839I15240J0D01*
G75*
G01*
X10287030Y-12965760D02*
G03*
X10302270Y-12950520I0J15240D01*
G75*
G01*
X10302270Y-12881280D02*
G03*
X10287030Y-12866040I-15240J0D01*
G75*
G01*
X10083770Y-12965760D02*
G02*
X10068530Y-12950520I0J15240D01*
G75*
G01*
X10068530Y-12881280D02*
G02*
X10083770Y-12866040I15240J0D01*
D15*
G75*
G01*
X10169525Y-12503150D02*
G02*
X10185400Y-12458700I12732J20513D01*
G75*
G01*
X10169614Y-12503150D02*
G02*
X10160000Y-12547600I-7565J-21628D01*
D14*
G75*
G01
X1249655Y-13931875D02*
G03X1249655Y-13931875I-127635J0D01*
G75*
G01
X2278355Y-13931875D02*
G03X2278355Y-13931875I-127635J0D01*
G75*
G01
X3281655Y-13931875D02*
G03X3281655Y-13931875I-127635J0D01*
G75*
G01
X4310355Y-13931875D02*
G03X4310355Y-13931875I-127635J0D01*
D16*
G75*
G01
X1728800Y-8039100D02*
G03X1728800Y-8039100I-15011J0D01*
G75*
G01
X1528801Y-7965161D02*
G03X1528801Y-7965161I-15011J0D01*
G75*
G01
X4510100Y-8026400D02*
G03X4510100Y-8026400I-15011J0D01*
G75*
G01
X4310101Y-7952461D02*
G03X4310101Y-7952461I-15011J0D01*
G75*
G01
X7304100Y-8039100D02*
G03X7304100Y-8039100I-15011J0D01*
G75*
G01
X7104101Y-7965161D02*
G03X7104101Y-7965161I-15011J0D01*
G75*
G01
X10110800Y-8039100D02*
G03X10110800Y-8039100I-15011J0D01*
G75*
G01
X9910801Y-7965161D02*
G03X9910801Y-7965161I-15011J0D01*
M02*
