G04 Layer: TopSolderMaskLayer*
G04 EasyEDA v6.5.15, 2022-09-22 11:34:21*
G04 4b7f6f8434e74b0d931dc7ec5f8e676b,5f190de28158457892684f41c71a4f21,10*
G04 Gerber Generator version 0.2*
G04 Scale: 100 percent, Rotated: No, Reflected: No *
G04 Dimensions in millimeters *
G04 leading zeros omitted , absolute positions ,4 integer and 5 decimal *
%FSLAX45Y45*%
%MOMM*%

%AMMACRO1*1,1,$1,$2,$3*1,1,$1,$4,$5*1,1,$1,0-$2,0-$3*1,1,$1,0-$4,0-$5*20,1,$1,$2,$3,$4,$5,0*20,1,$1,$4,$5,0-$2,0-$3,0*20,1,$1,0-$2,0-$3,0-$4,0-$5,0*20,1,$1,0-$4,0-$5,$2,$3,0*4,1,4,$2,$3,$4,$5,0-$2,0-$3,0-$4,0-$5,$2,$3,0*%
%ADD10MACRO1,0.1016X-0.4X-0.4X-0.4X0.4*%
%ADD11MACRO1,0.1016X-0.4032X-0.432X-0.4032X0.432*%
%ADD12MACRO1,0.1016X0.325X-0.4X-0.325X-0.4*%
%ADD13MACRO1,0.1016X0.25X-0.4X-0.25X-0.4*%
%ADD14MACRO1,0.1016X-0.325X0.4X0.325X0.4*%
%ADD15MACRO1,0.1016X-0.25X0.4X0.25X0.4*%
%ADD16MACRO1,0.1016X-0.7425X-0.864X-0.7425X0.864*%
%ADD17MACRO1,0.1016X0.7425X-0.864X0.7425X0.864*%
%ADD18MACRO1,0.1016X-0.395X-0.27X-0.395X0.27*%
%ADD19MACRO1,0.1016X0.395X-0.27X0.395X0.27*%
%ADD20MACRO1,0.1016X0.4X0.4X0.4X-0.4*%
%ADD21C,1.9016*%
%ADD22MACRO1,0.1016X-0.9X0.9X0.9X0.9*%
%ADD23MACRO1,0.1016X0.9X-0.9X-0.9X-0.9*%
%ADD24MACRO1,0.1016X0.4032X-0.432X0.4032X0.432*%
%ADD25MACRO1,0.1016X0.15X-0.2525X0.15X0.2525*%
%ADD26MACRO1,0.1016X0.15X0.2525X0.15X-0.2525*%
%ADD27MACRO1,0.1016X0.15X-0.35X-0.15X-0.35*%
%ADD28MACRO1,0.1016X-0.15X0.2525X-0.15X-0.2525*%
%ADD29MACRO1,0.1016X-0.15X-0.2525X-0.15X0.2525*%
%ADD30MACRO1,0.1016X0.9X-0.55X-0.9X-0.55*%
%ADD31O,2.0379944X0.5739892*%
%ADD32MACRO1,0.1016X-0.15X0.65X0.15X0.65*%
%ADD33O,1.1999976X1.7999964*%
%ADD34O,1.1999976X1.9999959999999999*%
%ADD35O,0.0122X1.9999959999999999*%

%LPD*%
D10*
G01*
X11014643Y-6463946D03*
G01*
X10854743Y-6464647D03*
D11*
G01*
X4492717Y-14116888D03*
D10*
G01*
X3877307Y-6451310D03*
G01*
X3717406Y-6452011D03*
G01*
X4410707Y-6464010D03*
G01*
X4250806Y-6464711D03*
G01*
X4906007Y-6464010D03*
G01*
X4746106Y-6464711D03*
G01*
X5426707Y-6464010D03*
G01*
X5266806Y-6464711D03*
G01*
X6684007Y-6464010D03*
G01*
X6524106Y-6464711D03*
G01*
X7192007Y-6464010D03*
G01*
X7032106Y-6464711D03*
G01*
X7687307Y-6464010D03*
G01*
X7527406Y-6464711D03*
G01*
X8182607Y-6464010D03*
G01*
X8022706Y-6464711D03*
G01*
X9490643Y-6463946D03*
G01*
X9330743Y-6464647D03*
G01*
X9998643Y-6463946D03*
G01*
X9838743Y-6464647D03*
G01*
X10506643Y-6463946D03*
G01*
X10346743Y-6464647D03*
D12*
G01*
X5518810Y-12510597D03*
G01*
X5518810Y-12330602D03*
D13*
G01*
X5598795Y-12510597D03*
G01*
X5598795Y-12330602D03*
G01*
X5678804Y-12510597D03*
G01*
X5678804Y-12330602D03*
D12*
G01*
X5758789Y-12510597D03*
G01*
X5758789Y-12330602D03*
D14*
G01*
X1326489Y-12317902D03*
G01*
X1326489Y-12497897D03*
D15*
G01*
X1246505Y-12317902D03*
G01*
X1246505Y-12497897D03*
G01*
X1166494Y-12317902D03*
G01*
X1166494Y-12497897D03*
D14*
G01*
X1086510Y-12317902D03*
G01*
X1086510Y-12497897D03*
D16*
G01*
X10344650Y-13373100D03*
D17*
G01*
X10026149Y-13373100D03*
D18*
G01*
X10239905Y-12915900D03*
D19*
G01*
X10130894Y-12915900D03*
D10*
G01*
X981643Y-6463946D03*
G01*
X821743Y-6464647D03*
G01*
X1603943Y-6463946D03*
G01*
X1444043Y-6464647D03*
G01*
X2124643Y-6463946D03*
G01*
X1964743Y-6464647D03*
G01*
X2632643Y-6463946D03*
G01*
X2472743Y-6464647D03*
D20*
G01*
X11121456Y-12751153D03*
G01*
X11281356Y-12750452D03*
D10*
G01*
X6391843Y-11556646D03*
G01*
X6231943Y-11557347D03*
G01*
X6899843Y-11556646D03*
G01*
X6739943Y-11557347D03*
G01*
X7407843Y-11556646D03*
G01*
X7247943Y-11557347D03*
G01*
X7915843Y-11556646D03*
G01*
X7755943Y-11557347D03*
G01*
X3483543Y-11556646D03*
G01*
X3323643Y-11557347D03*
G01*
X2975543Y-11556646D03*
G01*
X2815643Y-11557347D03*
G01*
X2467543Y-11556646D03*
G01*
X2307643Y-11557347D03*
G01*
X1959543Y-11556646D03*
G01*
X1799643Y-11557347D03*
D21*
G01*
X2679700Y-7277100D03*
G01*
X2679700Y-7531100D03*
G01*
X2425700Y-7277100D03*
G01*
X2425700Y-7531100D03*
G01*
X2171700Y-7277100D03*
G01*
X2171700Y-7531100D03*
G01*
X1917700Y-7277100D03*
G01*
X1917700Y-7531100D03*
G01*
X1663700Y-7277100D03*
G01*
X1663700Y-7531100D03*
G01*
X1409700Y-7277100D03*
G01*
X1409700Y-7531100D03*
G01*
X1155700Y-7277100D03*
G01*
X1155700Y-7531100D03*
G01*
X901700Y-7277100D03*
D22*
G01*
X901700Y-7531100D03*
D21*
G01*
X2667000Y-9309100D03*
G01*
X2667000Y-9563100D03*
G01*
X2413000Y-9309100D03*
G01*
X2413000Y-9563100D03*
G01*
X2159000Y-9309100D03*
G01*
X2159000Y-9563100D03*
G01*
X1905000Y-9309100D03*
G01*
X1905000Y-9563100D03*
G01*
X1651000Y-9309100D03*
G01*
X1651000Y-9563100D03*
G01*
X1397000Y-9309100D03*
G01*
X1397000Y-9563100D03*
G01*
X1143000Y-9309100D03*
G01*
X1143000Y-9563100D03*
G01*
X889000Y-9309100D03*
D22*
G01*
X889000Y-9563100D03*
D21*
G01*
X5473700Y-7277100D03*
G01*
X5473700Y-7531100D03*
G01*
X5219700Y-7277100D03*
G01*
X5219700Y-7531100D03*
G01*
X4965700Y-7277100D03*
G01*
X4965700Y-7531100D03*
G01*
X4711700Y-7277100D03*
G01*
X4711700Y-7531100D03*
G01*
X4457700Y-7277100D03*
G01*
X4457700Y-7531100D03*
G01*
X4203700Y-7277100D03*
G01*
X4203700Y-7531100D03*
G01*
X3949700Y-7277100D03*
G01*
X3949700Y-7531100D03*
G01*
X3695700Y-7277100D03*
D22*
G01*
X3695700Y-7531100D03*
D21*
G01*
X5461000Y-9309100D03*
G01*
X5461000Y-9563100D03*
G01*
X5207000Y-9309100D03*
G01*
X5207000Y-9563100D03*
G01*
X4953000Y-9309100D03*
G01*
X4953000Y-9563100D03*
G01*
X4699000Y-9309100D03*
G01*
X4699000Y-9563100D03*
G01*
X4445000Y-9309100D03*
G01*
X4445000Y-9563100D03*
G01*
X4191000Y-9309100D03*
G01*
X4191000Y-9563100D03*
G01*
X3937000Y-9309100D03*
G01*
X3937000Y-9563100D03*
G01*
X3683000Y-9309100D03*
D22*
G01*
X3683000Y-9563100D03*
D21*
G01*
X8255000Y-7277100D03*
G01*
X8255000Y-7531100D03*
G01*
X8001000Y-7277100D03*
G01*
X8001000Y-7531100D03*
G01*
X7747000Y-7277100D03*
G01*
X7747000Y-7531100D03*
G01*
X7493000Y-7277100D03*
G01*
X7493000Y-7531100D03*
G01*
X7239000Y-7277100D03*
G01*
X7239000Y-7531100D03*
G01*
X6985000Y-7277100D03*
G01*
X6985000Y-7531100D03*
G01*
X6731000Y-7277100D03*
G01*
X6731000Y-7531100D03*
G01*
X6477000Y-7277100D03*
D22*
G01*
X6477000Y-7531100D03*
D21*
G01*
X8267700Y-9309100D03*
G01*
X8267700Y-9563100D03*
G01*
X8013700Y-9309100D03*
G01*
X8013700Y-9563100D03*
G01*
X7759700Y-9309100D03*
G01*
X7759700Y-9563100D03*
G01*
X7505700Y-9309100D03*
G01*
X7505700Y-9563100D03*
G01*
X7251700Y-9309100D03*
G01*
X7251700Y-9563100D03*
G01*
X6997700Y-9309100D03*
G01*
X6997700Y-9563100D03*
G01*
X6743700Y-9309100D03*
G01*
X6743700Y-9563100D03*
G01*
X6489700Y-9309100D03*
D22*
G01*
X6489700Y-9563100D03*
D21*
G01*
X11061700Y-7277100D03*
G01*
X11061700Y-7531100D03*
G01*
X10807700Y-7277100D03*
G01*
X10807700Y-7531100D03*
G01*
X10553700Y-7277100D03*
G01*
X10553700Y-7531100D03*
G01*
X10299700Y-7277100D03*
G01*
X10299700Y-7531100D03*
G01*
X10045700Y-7277100D03*
G01*
X10045700Y-7531100D03*
G01*
X9791700Y-7277100D03*
G01*
X9791700Y-7531100D03*
G01*
X9537700Y-7277100D03*
G01*
X9537700Y-7531100D03*
G01*
X9283700Y-7277100D03*
D22*
G01*
X9283700Y-7531100D03*
D21*
G01*
X11061700Y-9309100D03*
G01*
X11061700Y-9563100D03*
G01*
X10807700Y-9309100D03*
G01*
X10807700Y-9563100D03*
G01*
X10553700Y-9309100D03*
G01*
X10553700Y-9563100D03*
G01*
X10299700Y-9309100D03*
G01*
X10299700Y-9563100D03*
G01*
X10045700Y-9309100D03*
G01*
X10045700Y-9563100D03*
G01*
X9791700Y-9309100D03*
G01*
X9791700Y-9563100D03*
G01*
X9537700Y-9309100D03*
G01*
X9537700Y-9563100D03*
G01*
X9283700Y-9309100D03*
D22*
G01*
X9283700Y-9563100D03*
D21*
G01*
X7975600Y-13817600D03*
G01*
X7975600Y-14071600D03*
G01*
X7721600Y-13817600D03*
G01*
X7721600Y-14071600D03*
G01*
X7467600Y-13817600D03*
G01*
X7467600Y-14071600D03*
G01*
X7213600Y-13817600D03*
G01*
X7213600Y-14071600D03*
G01*
X6959600Y-13817600D03*
G01*
X6959600Y-14071600D03*
G01*
X6705600Y-13817600D03*
G01*
X6705600Y-14071600D03*
G01*
X6451600Y-13817600D03*
G01*
X6451600Y-14071600D03*
G01*
X6197600Y-13817600D03*
D22*
G01*
X6197600Y-14071600D03*
D21*
G01*
X6184900Y-12547600D03*
G01*
X6184900Y-12293600D03*
G01*
X6438900Y-12547600D03*
G01*
X6438900Y-12293600D03*
G01*
X6692900Y-12547600D03*
G01*
X6692900Y-12293600D03*
G01*
X6946900Y-12547600D03*
G01*
X6946900Y-12293600D03*
G01*
X7200900Y-12547600D03*
G01*
X7200900Y-12293600D03*
G01*
X7454900Y-12547600D03*
G01*
X7454900Y-12293600D03*
G01*
X7708900Y-12547600D03*
G01*
X7708900Y-12293600D03*
G01*
X7962900Y-12547600D03*
D23*
G01*
X7962900Y-12293600D03*
D21*
G01*
X3535045Y-12293600D03*
G01*
X3535045Y-12547600D03*
G01*
X3281045Y-12293600D03*
G01*
X3281045Y-12547600D03*
G01*
X3027045Y-12293600D03*
G01*
X3027045Y-12547600D03*
G01*
X2773045Y-12293600D03*
G01*
X2773045Y-12547600D03*
G01*
X2519045Y-12293600D03*
G01*
X2519045Y-12547600D03*
G01*
X2265045Y-12293600D03*
G01*
X2265045Y-12547600D03*
G01*
X2011045Y-12293600D03*
G01*
X2011045Y-12547600D03*
G01*
X1757045Y-12293600D03*
D22*
G01*
X1757034Y-12547600D03*
D11*
G01*
X11264024Y-13436600D03*
D24*
G01*
X11113375Y-13436600D03*
D25*
G01*
X1853002Y-6849948D03*
G01*
X1803002Y-6849948D03*
G01*
X1753002Y-6849948D03*
G01*
X1703002Y-6849948D03*
D26*
G01*
X1853002Y-6764446D03*
G01*
X1803002Y-6764446D03*
G01*
X1753002Y-6764446D03*
G01*
X1703002Y-6764446D03*
D27*
G01*
X1952993Y-9996115D03*
G01*
X1903006Y-9996115D03*
G01*
X1852993Y-9996115D03*
G01*
X1803006Y-9996115D03*
G01*
X1752993Y-9996115D03*
G01*
X1703006Y-9996115D03*
G01*
X1652993Y-9996115D03*
G01*
X1603006Y-9996089D03*
G01*
X1603006Y-10146110D03*
G01*
X1652993Y-10146110D03*
G01*
X1703006Y-10146110D03*
G01*
X1752993Y-10146110D03*
G01*
X1803006Y-10146110D03*
G01*
X1852993Y-10146110D03*
G01*
X1903006Y-10146110D03*
G01*
X1952993Y-10146110D03*
D28*
G01*
X4509697Y-6764451D03*
G01*
X4559697Y-6764451D03*
G01*
X4609697Y-6764451D03*
G01*
X4659697Y-6764451D03*
D29*
G01*
X4509697Y-6849953D03*
G01*
X4559697Y-6849953D03*
G01*
X4609697Y-6849953D03*
G01*
X4659697Y-6849953D03*
D27*
G01*
X4746993Y-9996115D03*
G01*
X4697006Y-9996115D03*
G01*
X4646993Y-9996115D03*
G01*
X4597006Y-9996115D03*
G01*
X4546993Y-9996115D03*
G01*
X4497006Y-9996115D03*
G01*
X4446993Y-9996115D03*
G01*
X4397006Y-9996089D03*
G01*
X4397006Y-10146110D03*
G01*
X4446993Y-10146110D03*
G01*
X4497006Y-10146110D03*
G01*
X4546993Y-10146110D03*
G01*
X4597006Y-10146110D03*
G01*
X4646993Y-10146110D03*
G01*
X4697006Y-10146110D03*
G01*
X4746993Y-10146110D03*
D28*
G01*
X7290997Y-6764451D03*
G01*
X7340997Y-6764451D03*
G01*
X7390997Y-6764451D03*
G01*
X7440997Y-6764451D03*
D29*
G01*
X7290997Y-6849953D03*
G01*
X7340997Y-6849953D03*
G01*
X7390997Y-6849953D03*
G01*
X7440997Y-6849953D03*
D27*
G01*
X7540993Y-9996115D03*
G01*
X7491006Y-9996115D03*
G01*
X7440993Y-9996115D03*
G01*
X7391006Y-9996115D03*
G01*
X7340993Y-9996115D03*
G01*
X7291006Y-9996115D03*
G01*
X7240993Y-9996115D03*
G01*
X7191006Y-9996089D03*
G01*
X7191006Y-10146110D03*
G01*
X7240993Y-10146110D03*
G01*
X7291006Y-10146110D03*
G01*
X7340993Y-10146110D03*
G01*
X7391006Y-10146110D03*
G01*
X7440993Y-10146110D03*
G01*
X7491006Y-10146110D03*
G01*
X7540993Y-10146110D03*
D28*
G01*
X10097697Y-6764451D03*
G01*
X10147697Y-6764451D03*
G01*
X10197697Y-6764451D03*
G01*
X10247697Y-6764451D03*
D29*
G01*
X10097697Y-6849953D03*
G01*
X10147697Y-6849953D03*
G01*
X10197697Y-6849953D03*
G01*
X10247697Y-6849953D03*
D27*
G01*
X10334993Y-9996115D03*
G01*
X10285006Y-9996115D03*
G01*
X10234993Y-9996115D03*
G01*
X10185006Y-9996115D03*
G01*
X10134993Y-9996115D03*
G01*
X10085006Y-9996115D03*
G01*
X10034993Y-9996115D03*
G01*
X9985006Y-9996089D03*
G01*
X9985006Y-10146110D03*
G01*
X10034993Y-10146110D03*
G01*
X10085006Y-10146110D03*
G01*
X10134993Y-10146110D03*
G01*
X10185006Y-10146110D03*
G01*
X10234993Y-10146110D03*
G01*
X10285006Y-10146110D03*
G01*
X10334993Y-10146110D03*
D25*
G01*
X7148902Y-11917248D03*
G01*
X7098902Y-11917248D03*
G01*
X7048902Y-11917248D03*
G01*
X6998902Y-11917248D03*
D26*
G01*
X7148902Y-11831746D03*
G01*
X7098902Y-11831746D03*
G01*
X7048902Y-11831746D03*
G01*
X6998902Y-11831746D03*
D28*
G01*
X2566597Y-11831751D03*
G01*
X2616597Y-11831751D03*
G01*
X2666597Y-11831751D03*
G01*
X2716597Y-11831751D03*
D29*
G01*
X2566597Y-11917253D03*
G01*
X2616597Y-11917253D03*
G01*
X2666597Y-11917253D03*
G01*
X2716597Y-11917253D03*
D30*
G01*
X1432029Y-14116900D03*
G01*
X812029Y-14116900D03*
G01*
X1432029Y-13746900D03*
G01*
X812030Y-13746900D03*
G01*
X2460729Y-14116900D03*
G01*
X1840729Y-14116900D03*
G01*
X2460729Y-13746900D03*
G01*
X1840730Y-13746900D03*
G01*
X3464029Y-14116900D03*
G01*
X2844029Y-14116900D03*
G01*
X3464029Y-13746900D03*
G01*
X2844030Y-13746900D03*
G01*
X4492729Y-14116900D03*
G01*
X3872729Y-14116900D03*
G01*
X4492729Y-13746900D03*
G01*
X3872730Y-13746900D03*
D31*
G01*
X1513789Y-8039100D03*
G01*
X1513789Y-8166100D03*
G01*
X1513789Y-8293100D03*
G01*
X1513789Y-8420100D03*
G01*
X1513789Y-8547100D03*
G01*
X1513789Y-8674100D03*
G01*
X1513789Y-8801100D03*
G01*
X2067610Y-8039100D03*
G01*
X2067610Y-8166100D03*
G01*
X2067610Y-8293100D03*
G01*
X2067610Y-8420100D03*
G01*
X2067610Y-8547100D03*
G01*
X2067610Y-8674100D03*
G01*
X2067610Y-8801100D03*
G01*
X4295089Y-8026400D03*
G01*
X4295089Y-8153400D03*
G01*
X4295089Y-8280400D03*
G01*
X4295089Y-8407400D03*
G01*
X4295089Y-8534400D03*
G01*
X4295089Y-8661400D03*
G01*
X4295089Y-8788400D03*
G01*
X4848910Y-8026400D03*
G01*
X4848910Y-8153400D03*
G01*
X4848910Y-8280400D03*
G01*
X4848910Y-8407400D03*
G01*
X4848910Y-8534400D03*
G01*
X4848910Y-8661400D03*
G01*
X4848910Y-8788400D03*
G01*
X7089089Y-8039100D03*
G01*
X7089089Y-8166100D03*
G01*
X7089089Y-8293100D03*
G01*
X7089089Y-8420100D03*
G01*
X7089089Y-8547100D03*
G01*
X7089089Y-8674100D03*
G01*
X7089089Y-8801100D03*
G01*
X7642910Y-8039100D03*
G01*
X7642910Y-8166100D03*
G01*
X7642910Y-8293100D03*
G01*
X7642910Y-8420100D03*
G01*
X7642910Y-8547100D03*
G01*
X7642910Y-8674100D03*
G01*
X7642910Y-8801100D03*
G01*
X9895789Y-8039100D03*
G01*
X9895789Y-8166100D03*
G01*
X9895789Y-8293100D03*
G01*
X9895789Y-8420100D03*
G01*
X9895789Y-8547100D03*
G01*
X9895789Y-8674100D03*
G01*
X9895789Y-8801100D03*
G01*
X10449610Y-8039100D03*
G01*
X10449610Y-8166100D03*
G01*
X10449610Y-8293100D03*
G01*
X10449610Y-8420100D03*
G01*
X10449610Y-8547100D03*
G01*
X10449610Y-8674100D03*
G01*
X10449610Y-8801100D03*
D11*
G01*
X10248024Y-12496800D03*
D24*
G01*
X10097375Y-12496800D03*
D32*
G01*
X9997695Y-13988280D03*
G01*
X10047707Y-13988280D03*
G01*
X10097695Y-13988277D03*
G01*
X10147707Y-13988280D03*
G01*
X10197694Y-13988277D03*
G01*
X10247707Y-13988280D03*
G01*
X10297669Y-13988280D03*
G01*
X10347707Y-13988280D03*
G01*
X9837705Y-13988293D03*
G01*
X9867703Y-13988277D03*
G01*
X9917706Y-13988293D03*
G01*
X9947701Y-13988290D03*
G01*
X10397698Y-13988293D03*
G01*
X10427710Y-13988290D03*
G01*
X10477700Y-13988275D03*
G01*
X10507700Y-13988275D03*
D33*
G01*
X10605211Y-14485112D03*
D34*
G01*
X10605211Y-14065122D03*
G01*
X9740188Y-14065122D03*
D33*
G01*
X9740188Y-14485112D03*
M02*
